<svg width="24" height="24" viewBox="0 0 24 24" fill="none" xmlns="http://www.w3.org/2000/svg">
<g id="icon24/arrow_left">
<path id="Vector" d="M15.5764 5.93436C15.5763 6.19955 15.471 6.45386 15.2834 6.64136L10.6974 11.2274C10.5149 11.4175 10.413 11.6708 10.413 11.9344C10.413 12.1979 10.5149 12.4512 10.6974 12.6414L15.2834 17.2274C15.4656 17.416 15.5664 17.6686 15.5641 17.9308C15.5618 18.193 15.4566 18.4438 15.2712 18.6292C15.0858 18.8146 14.835 18.9198 14.5728 18.922C14.3106 18.9243 14.058 18.8235 13.8694 18.6414L9.28341 14.0554C8.73793 13.4837 8.43359 12.724 8.43359 11.9339C8.43359 11.1437 8.73793 10.384 9.28341 9.81236L13.8694 5.22736C14.0093 5.08755 14.1874 4.99234 14.3814 4.95377C14.5753 4.91521 14.7764 4.93501 14.9591 5.01068C15.1418 5.08635 15.2979 5.21449 15.4078 5.3789C15.5177 5.54331 15.5764 5.73661 15.5764 5.93436Z" fill="#1D6BF3"/>
</g>
</svg>
