<svg width="73" height="16" viewBox="0 0 73 16" fill="none" xmlns="http://www.w3.org/2000/svg">
<g id="bi:arrow-up">
<path id="Vector" fill-rule="evenodd" clip-rule="evenodd" d="M57.9991 7.99965C57.9991 8.13226 58.0518 8.25944 58.1456 8.35321C58.2393 8.44698 58.3665 8.49965 58.4991 8.49965L70.2921 8.49965L67.1451 11.6457C67.0512 11.7395 66.9985 11.8669 66.9985 11.9997C66.9985 12.1324 67.0512 12.2598 67.1451 12.3537C67.239 12.4475 67.3663 12.5003 67.4991 12.5003C67.6319 12.5003 67.7592 12.4475 67.8531 12.3537L71.8531 8.35365C71.8997 8.30721 71.9366 8.25203 71.9618 8.19129C71.987 8.13054 72 8.06542 72 7.99965C72 7.93389 71.987 7.86877 71.9618 7.80802C71.9366 7.74728 71.8997 7.6921 71.8531 7.64565L67.8531 3.64565C67.8066 3.59917 67.7514 3.56229 67.6907 3.53713C67.63 3.51197 67.5649 3.49902 67.4991 3.49902C67.3663 3.49902 67.239 3.55177 67.1451 3.64565C67.0512 3.73954 66.9985 3.86688 66.9985 3.99965C66.9985 4.13243 67.0512 4.25977 67.1451 4.35365L70.2921 7.49965L58.4991 7.49965C58.3665 7.49965 58.2393 7.55233 58.1456 7.6461C58.0518 7.73987 57.9991 7.86705 57.9991 7.99965Z" fill="#1D6BF3"/>
</g>
</svg>
