<svg width="24" height="24" viewBox="0 0 24 24" fill="none" xmlns="http://www.w3.org/2000/svg">
<path fill-rule="evenodd" clip-rule="evenodd" d="M3.25 4.74943C5.95852 4.76732 7.84286 5.10615 9.10863 5.7003C10.3093 6.26386 10.9579 7.05637 11.25 8.09799V18.2843C9.69573 17.2057 7.33706 16.5895 3.25 16.5824V4.74943ZM12.75 18.2832C14.3053 17.2021 16.6602 16.5895 20.75 16.5824V4.74943C18.0415 4.76732 16.1571 5.10615 14.8914 5.7003C13.6907 6.26386 13.0421 7.05637 12.75 8.09799V18.2832ZM12 6.18501C11.4783 5.42189 10.7323 4.80543 9.746 4.34245C8.1773 3.60611 6.01323 3.26151 3.18188 3.24904L3.18135 3.24903C2.99502 3.24834 2.81008 3.28387 2.6371 3.3539C2.46409 3.42393 2.30604 3.52725 2.17239 3.65855C2.03871 3.78988 1.93209 3.94663 1.85933 4.12013C1.78678 4.29313 1.74951 4.47897 1.75 4.66686V16.5853C1.75 16.9449 1.86356 17.3138 2.11538 17.6044C2.37611 17.9052 2.7531 18.0824 3.17858 18.0824C8.52162 18.0824 10.3422 19.1496 11.4182 20.4723C11.5606 20.6473 11.7742 20.749 11.9998 20.749C12.2255 20.7491 12.4391 20.6475 12.5816 20.4726C13.6651 19.1419 15.478 18.0824 20.8214 18.0824C21.1961 18.0824 21.558 17.9363 21.8269 17.6721C22.0962 17.4075 22.25 17.0457 22.25 16.6657V4.66733C22.2505 4.47927 22.2133 4.29328 22.1407 4.12013C22.0679 3.94663 21.9613 3.78988 21.8276 3.65855C21.694 3.52725 21.5359 3.42393 21.3629 3.3539C21.1899 3.28388 21.005 3.24834 20.8186 3.24903L20.8181 3.24904C17.9868 3.26151 15.8227 3.60611 14.254 4.34245C13.2677 4.80543 12.5217 5.42189 12 6.18501Z" fill="white"/>
</svg>
