<svg width="24" height="24" viewBox="0 0 24 24" fill="none" xmlns="http://www.w3.org/2000/svg">
<path d="M20.25 6H16.5V5.25C16.4975 4.65402 16.2597 4.08316 15.8383 3.66174C15.4168 3.24031 14.846 3.00247 14.25 3H9.75C9.15402 3.00247 8.58316 3.24031 8.16174 3.66174C7.74031 4.08316 7.50247 4.65402 7.5 5.25V6H3.75C3.35218 6 2.97064 6.15804 2.68934 6.43934C2.40804 6.72064 2.25 7.10218 2.25 7.5V19.5C2.25 19.8978 2.40804 20.2794 2.68934 20.5607C2.97064 20.842 3.35218 21 3.75 21H20.25C20.6478 21 21.0294 20.842 21.3107 20.5607C21.592 20.2794 21.75 19.8978 21.75 19.5V7.5C21.75 7.10218 21.592 6.72064 21.3107 6.43934C21.0294 6.15804 20.6478 6 20.25 6ZM9 5.25C9 5.05109 9.07902 4.86032 9.21967 4.71967C9.36032 4.57902 9.55109 4.5 9.75 4.5H14.25C14.4489 4.5 14.6397 4.57902 14.7803 4.71967C14.921 4.86032 15 5.05109 15 5.25V6H9V5.25ZM20.25 7.5V14.25H3.75V7.5H20.25ZM20.25 19.5H3.75V15.75H20.25V19.5Z" fill="white"/>
</svg>
