<svg width="24" height="24" viewBox="0 0 24 24" fill="none" xmlns="http://www.w3.org/2000/svg">
<mask id="path-1-inside-1_965_3752" fill="white">
<path fill-rule="evenodd" clip-rule="evenodd" d="M15.7876 2.75011C16.9912 3.24973 18.0832 3.98399 19 4.91006C20.87 6.78006 21.9 9.27006 21.9 11.9201C21.9 17.3801 17.45 21.8301 11.99 21.8301C10.33 21.8301 8.7 21.4101 7.25 20.6201L2 22.0001L3.4 16.8601C2.54 15.3601 2.08 13.6601 2.08 11.9101C2.08 6.45006 6.53 2.00006 11.99 2.00006C13.2931 1.99552 14.5841 2.25049 15.7876 2.75011ZM7.79 19.0001C9.06 19.7501 10.51 20.1501 11.99 20.1501C16.53 20.1501 20.23 16.4601 20.21 11.9201C20.214 10.8372 20.0031 9.76425 19.5894 8.76348C19.1757 7.76272 18.5675 6.85402 17.8 6.09006C16.25 4.53006 14.18 3.67006 11.98 3.67006C7.44 3.67006 3.74 7.37006 3.74 11.9101C3.74114 13.4593 4.17775 14.977 5 16.2901L5.2 16.6001L4.37 19.6401L7.49 18.8201L7.79 19.0001ZM8 13C8.55228 13 9 12.5523 9 12C9 11.4477 8.55228 11 8 11C7.44772 11 7 11.4477 7 12C7 12.5523 7.44772 13 8 13ZM13 12C13 12.5523 12.5523 13 12 13C11.4477 13 11 12.5523 11 12C11 11.4477 11.4477 11 12 11C12.5523 11 13 11.4477 13 12ZM16 13C16.5523 13 17 12.5523 17 12C17 11.4477 16.5523 11 16 11C15.4477 11 15 11.4477 15 12C15 12.5523 15.4477 13 16 13Z"/>
</mask>
<path fill-rule="evenodd" clip-rule="evenodd" d="M15.7876 2.75011C16.9912 3.24973 18.0832 3.98399 19 4.91006C20.87 6.78006 21.9 9.27006 21.9 11.9201C21.9 17.3801 17.45 21.8301 11.99 21.8301C10.33 21.8301 8.7 21.4101 7.25 20.6201L2 22.0001L3.4 16.8601C2.54 15.3601 2.08 13.6601 2.08 11.9101C2.08 6.45006 6.53 2.00006 11.99 2.00006C13.2931 1.99552 14.5841 2.25049 15.7876 2.75011ZM7.79 19.0001C9.06 19.7501 10.51 20.1501 11.99 20.1501C16.53 20.1501 20.23 16.4601 20.21 11.9201C20.214 10.8372 20.0031 9.76425 19.5894 8.76348C19.1757 7.76272 18.5675 6.85402 17.8 6.09006C16.25 4.53006 14.18 3.67006 11.98 3.67006C7.44 3.67006 3.74 7.37006 3.74 11.9101C3.74114 13.4593 4.17775 14.977 5 16.2901L5.2 16.6001L4.37 19.6401L7.49 18.8201L7.79 19.0001ZM8 13C8.55228 13 9 12.5523 9 12C9 11.4477 8.55228 11 8 11C7.44772 11 7 11.4477 7 12C7 12.5523 7.44772 13 8 13ZM13 12C13 12.5523 12.5523 13 12 13C11.4477 13 11 12.5523 11 12C11 11.4477 11.4477 11 12 11C12.5523 11 13 11.4477 13 12ZM16 13C16.5523 13 17 12.5523 17 12C17 11.4477 16.5523 11 16 11C15.4477 11 15 11.4477 15 12C15 12.5523 15.4477 13 16 13Z" fill="white"/>
<path d="M19 4.91006L18.2893 5.61361L18.2929 5.61717L19 4.91006ZM15.7876 2.75011L16.171 1.82653L15.7876 2.75011ZM7.25 20.6201L7.72843 19.7419L7.37978 19.552L6.99578 19.6529L7.25 20.6201ZM2 22.0001L1.03515 21.7373L0.5803 23.4072L2.25422 22.9672L2 22.0001ZM3.4 16.8601L4.36485 17.1229L4.47388 16.7226L4.26753 16.3627L3.4 16.8601ZM11.99 2.00006V3.00007L11.9935 3.00005L11.99 2.00006ZM7.79 19.0001L7.27549 19.8576L7.2815 19.8611L7.79 19.0001ZM20.21 11.9201L19.21 11.9163L19.21 11.9245L20.21 11.9201ZM19.5894 8.76348L20.5135 8.38146L19.5894 8.76348ZM17.8 6.09006L17.0906 6.7949L17.0945 6.79879L17.8 6.09006ZM3.74 11.9101H2.74L2.74 11.9108L3.74 11.9101ZM5 16.2901L4.15239 16.8209L4.1597 16.8322L5 16.2901ZM5.2 16.6001L6.16469 16.8634L6.28223 16.4329L6.0403 16.0579L5.2 16.6001ZM4.37 19.6401L3.40531 19.3767L2.94914 21.0474L4.62419 20.6072L4.37 19.6401ZM7.49 18.8201L8.0045 17.9626L7.64325 17.7458L7.23581 17.8529L7.49 18.8201ZM19.7107 4.20652C18.7005 3.1861 17.4972 2.37704 16.171 1.82653L15.4042 3.67369C16.4852 4.12241 17.4659 4.78187 18.2893 5.6136L19.7107 4.20652ZM22.9 11.9201C22.9 9.0055 21.7651 6.26095 19.7071 4.20295L18.2929 5.61717C19.9749 7.29917 20.9 9.53462 20.9 11.9201H22.9ZM11.99 22.8301C18.0023 22.8301 22.9 17.9323 22.9 11.9201H20.9C20.9 16.8278 16.8977 20.8301 11.99 20.8301V22.8301ZM6.77157 21.4982C8.36705 22.3674 10.1614 22.8301 11.99 22.8301V20.8301C10.4986 20.8301 9.03295 20.4527 7.72843 19.7419L6.77157 21.4982ZM2.25422 22.9672L7.50422 21.5872L6.99578 19.6529L1.74578 21.0329L2.25422 22.9672ZM2.43515 16.5973L1.03515 21.7373L2.96485 22.2629L4.36485 17.1229L2.43515 16.5973ZM1.08 11.9101C1.08 13.8363 1.58653 15.7075 2.53247 17.3574L4.26753 16.3627C3.49347 15.0126 3.08 13.4838 3.08 11.9101H1.08ZM11.99 1.00006C5.97772 1.00006 1.08 5.89777 1.08 11.9101H3.08C3.08 7.00234 7.08228 3.00006 11.99 3.00006V1.00006ZM16.171 1.82653C14.8449 1.27601 13.4224 0.995063 11.9865 1.00007L11.9935 3.00005C13.1638 2.99598 14.3233 3.22497 15.4042 3.67369L16.171 1.82653ZM11.99 19.1501C10.6903 19.1501 9.4157 18.7988 8.2985 18.139L7.2815 19.8611C8.7043 20.7014 10.3297 21.1501 11.99 21.1501V19.1501ZM19.21 11.9245C19.2276 15.9063 15.9802 19.1501 11.99 19.1501V21.1501C17.0798 21.1501 21.2325 17.0138 21.21 11.9157L19.21 11.9245ZM18.6652 9.14551C19.0284 10.024 19.2135 10.9658 19.21 11.9163L21.21 11.9238C21.2145 10.7086 20.9778 9.50452 20.5135 8.38146L18.6652 9.14551ZM17.0945 6.79879C17.7682 7.46939 18.3021 8.26705 18.6652 9.14551L20.5135 8.38146C20.0493 7.2584 19.3668 6.23865 18.5055 5.38133L17.0945 6.79879ZM11.98 4.67006C13.9141 4.67006 15.7287 5.42415 17.0906 6.79489L18.5094 5.38523C16.7713 3.63597 14.4459 2.67006 11.98 2.67006V4.67006ZM4.74 11.9101C4.74 7.92234 7.99228 4.67006 11.98 4.67006V2.67006C6.88771 2.67006 2.74 6.81777 2.74 11.9101H4.74ZM5.84753 15.7593C5.12478 14.6052 4.741 13.2711 4.74 11.9093L2.74 11.9108C2.74128 13.6475 3.23072 15.3489 4.15247 16.8208L5.84753 15.7593ZM6.0403 16.0579L5.8403 15.7479L4.1597 16.8322L4.3597 17.1422L6.0403 16.0579ZM5.33469 19.9034L6.16469 16.8634L4.23531 16.3367L3.40531 19.3767L5.33469 19.9034ZM7.23581 17.8529L4.11581 18.6729L4.62419 20.6072L7.74419 19.7872L7.23581 17.8529ZM8.3045 18.1426L8.0045 17.9626L6.9755 19.6776L7.2755 19.8576L8.3045 18.1426ZM8 12V14C9.10457 14 10 13.1046 10 12H8ZM8 12H10C10 10.8954 9.10457 10 8 10V12ZM8 12V10C6.89543 10 6 10.8954 6 12H8ZM8 12H6C6 13.1046 6.89543 14 8 14V12ZM12 14C13.1046 14 14 13.1046 14 12H12V14ZM10 12C10 13.1046 10.8954 14 12 14V12H10ZM12 10C10.8954 10 10 10.8954 10 12H12V10ZM14 12C14 10.8954 13.1046 10 12 10V12H14ZM16 12V14C17.1046 14 18 13.1046 18 12H16ZM16 12H18C18 10.8954 17.1046 10 16 10V12ZM16 12V10C14.8954 10 14 10.8954 14 12H16ZM16 12H14C14 13.1046 14.8954 14 16 14V12Z" fill="white" mask="url(#path-1-inside-1_965_3752)"/>
</svg>
