<svg width="24" height="24" viewBox="0 0 24 24" fill="none" xmlns="http://www.w3.org/2000/svg">
<g id="icon24/ exit" clip-path="url(#clip0_965_3781)">
<g id="Vector">
<mask id="path-1-inside-1_965_3781" fill="white">
<path fill-rule="evenodd" clip-rule="evenodd" d="M4.80313 1.59961C4.37878 1.59961 3.97181 1.76818 3.67175 2.06824C3.3717 2.3683 3.20313 2.77526 3.20312 3.19961V20.7996C3.20313 21.224 3.3717 21.6309 3.67175 21.931C3.97181 22.231 4.37878 22.3996 4.80313 22.3996H16.8031C17.0153 22.3996 17.2188 22.3153 17.3688 22.1653C17.5188 22.0153 17.6031 21.8118 17.6031 21.5996C17.6031 21.3874 17.5188 21.184 17.3688 21.0339C17.2188 20.8839 17.0153 20.7996 16.8031 20.7996H4.80313V3.19961H16.8031C17.0153 3.19961 17.2188 3.11532 17.3688 2.96529C17.5188 2.81527 17.6031 2.61178 17.6031 2.39961C17.6031 2.18744 17.5188 1.98395 17.3688 1.83392C17.2188 1.68389 17.0153 1.59961 16.8031 1.59961H4.80313ZM20.1695 7.83321C20.0193 7.68299 19.8156 7.5986 19.6031 7.5986C19.3907 7.5986 19.1869 7.68299 19.0367 7.83321C18.8865 7.98343 18.8021 8.18717 18.8021 8.39961C18.8021 8.61205 18.8865 8.81579 19.0367 8.96601L21.2719 11.1996H10.4031C10.191 11.1996 9.98747 11.2839 9.83744 11.4339C9.68741 11.584 9.60313 11.7874 9.60313 11.9996C9.60313 12.2118 9.68741 12.4153 9.83744 12.5653C9.98747 12.7153 10.191 12.7996 10.4031 12.7996H21.2719L19.0367 15.0332C18.8865 15.1834 18.8021 15.3872 18.8021 15.5996C18.8021 15.812 18.8865 16.0158 19.0367 16.166C19.1869 16.3162 19.3907 16.4006 19.6031 16.4006C19.8156 16.4006 20.0193 16.3162 20.1695 16.166L23.7695 12.566C23.844 12.4917 23.9031 12.4034 23.9435 12.3062C23.9838 12.209 24.0046 12.1048 24.0046 11.9996C24.0046 11.8944 23.9838 11.7902 23.9435 11.693C23.9031 11.5958 23.844 11.5075 23.7695 11.4332L20.1695 7.83321Z"/>
</mask>
<path fill-rule="evenodd" clip-rule="evenodd" d="M4.80313 1.59961C4.37878 1.59961 3.97181 1.76818 3.67175 2.06824C3.3717 2.3683 3.20313 2.77526 3.20312 3.19961V20.7996C3.20313 21.224 3.3717 21.6309 3.67175 21.931C3.97181 22.231 4.37878 22.3996 4.80313 22.3996H16.8031C17.0153 22.3996 17.2188 22.3153 17.3688 22.1653C17.5188 22.0153 17.6031 21.8118 17.6031 21.5996C17.6031 21.3874 17.5188 21.184 17.3688 21.0339C17.2188 20.8839 17.0153 20.7996 16.8031 20.7996H4.80313V3.19961H16.8031C17.0153 3.19961 17.2188 3.11532 17.3688 2.96529C17.5188 2.81527 17.6031 2.61178 17.6031 2.39961C17.6031 2.18744 17.5188 1.98395 17.3688 1.83392C17.2188 1.68389 17.0153 1.59961 16.8031 1.59961H4.80313ZM20.1695 7.83321C20.0193 7.68299 19.8156 7.5986 19.6031 7.5986C19.3907 7.5986 19.1869 7.68299 19.0367 7.83321C18.8865 7.98343 18.8021 8.18717 18.8021 8.39961C18.8021 8.61205 18.8865 8.81579 19.0367 8.96601L21.2719 11.1996H10.4031C10.191 11.1996 9.98747 11.2839 9.83744 11.4339C9.68741 11.584 9.60313 11.7874 9.60313 11.9996C9.60313 12.2118 9.68741 12.4153 9.83744 12.5653C9.98747 12.7153 10.191 12.7996 10.4031 12.7996H21.2719L19.0367 15.0332C18.8865 15.1834 18.8021 15.3872 18.8021 15.5996C18.8021 15.812 18.8865 16.0158 19.0367 16.166C19.1869 16.3162 19.3907 16.4006 19.6031 16.4006C19.8156 16.4006 20.0193 16.3162 20.1695 16.166L23.7695 12.566C23.844 12.4917 23.9031 12.4034 23.9435 12.3062C23.9838 12.209 24.0046 12.1048 24.0046 11.9996C24.0046 11.8944 23.9838 11.7902 23.9435 11.693C23.9031 11.5958 23.844 11.5075 23.7695 11.4332L20.1695 7.83321Z" fill="white"/>
<path d="M4.80313 1.59961V-8.40039V1.59961ZM3.20312 3.19961H-6.79688H3.20312ZM3.20312 20.7996H-6.79688H3.20312ZM4.80313 20.7996H-5.19687V30.7996H4.80313V20.7996ZM4.80313 3.19961V-6.80039H-5.19687V3.19961H4.80313ZM16.8031 3.19961V13.1996V3.19961ZM16.8031 1.59961V-8.40039V1.59961ZM19.0367 8.96601L11.9657 16.0371L11.9682 16.0396L19.0367 8.96601ZM21.2719 11.1996V21.1996H45.4263L28.3405 4.12601L21.2719 11.1996ZM21.2719 12.7996L28.3405 19.8732L45.4263 2.79961H21.2719V12.7996ZM19.0367 15.0332L11.9682 7.95961L11.9657 7.96214L19.0367 15.0332ZM20.1695 16.166L27.2406 23.2371L20.1695 16.166ZM23.7695 12.566L16.7074 5.486L16.6985 5.49494L23.7695 12.566ZM23.7695 11.4332L16.6985 18.5043L16.7074 18.5132L23.7695 11.4332ZM4.80313 -8.40039C1.72662 -8.40039 -1.22389 -7.17825 -3.39931 -5.00283L10.7428 9.13931C9.16751 10.7146 7.03094 11.5996 4.80313 11.5996V-8.40039ZM-3.39931 -5.00283C-5.57474 -2.82741 -6.79688 0.123099 -6.79688 3.19961H13.2031C13.2031 5.42743 12.3181 7.564 10.7428 9.13931L-3.39931 -5.00283ZM-6.79688 3.19961V20.7996H13.2031V3.19961H-6.79688ZM-6.79688 20.7996C-6.79688 23.8761 -5.57473 26.8266 -3.39931 29.002L10.7428 14.8599C12.3181 16.4352 13.2031 18.5718 13.2031 20.7996H-6.79688ZM-3.39931 29.002C-1.22389 31.1775 1.72661 32.3996 4.80313 32.3996V12.3996C7.03095 12.3996 9.16752 13.2846 10.7428 14.8599L-3.39931 29.002ZM4.80313 32.3996H16.8031V12.3996H4.80313V32.3996ZM16.8031 32.3996C19.6674 32.3996 22.4145 31.2618 24.4399 29.2364L10.2977 15.0942C12.0231 13.3689 14.3632 12.3996 16.8031 12.3996V32.3996ZM24.4399 29.2364C26.4653 27.211 27.6031 24.4639 27.6031 21.5996H7.60313C7.60313 19.1596 8.57239 16.8196 10.2977 15.0942L24.4399 29.2364ZM27.6031 21.5996C27.6031 18.7353 26.4653 15.9883 24.4399 13.9629L10.2977 28.105C8.57239 26.3796 7.60313 24.0396 7.60313 21.5996H27.6031ZM24.4399 13.9629C22.4145 11.9374 19.6674 10.7996 16.8031 10.7996V30.7996C14.3632 30.7996 12.0231 29.8303 10.2977 28.105L24.4399 13.9629ZM16.8031 10.7996H4.80313V30.7996H16.8031V10.7996ZM14.8031 20.7996V3.19961H-5.19687V20.7996H14.8031ZM4.80313 13.1996H16.8031V-6.80039H4.80313V13.1996ZM16.8031 13.1996C19.6675 13.1996 22.4145 12.0618 24.4399 10.0364L10.2977 -4.10577C12.0231 -5.83111 14.3631 -6.80039 16.8031 -6.80039V13.1996ZM24.4399 10.0364C26.4653 8.01096 27.6031 5.26393 27.6031 2.39961H7.60313C7.60313 -0.0403627 8.57239 -2.38042 10.2977 -4.10577L24.4399 10.0364ZM27.6031 2.39961C27.6031 -0.464709 26.4653 -3.21174 24.4399 -5.23714L10.2977 8.90499C8.57239 7.17964 7.60313 4.83958 7.60313 2.39961H27.6031ZM24.4399 -5.23714C22.4145 -7.26254 19.6675 -8.40039 16.8031 -8.40039V11.5996C14.3631 11.5996 12.0231 10.6303 10.2977 8.90499L24.4399 -5.23714ZM16.8031 -8.40039H4.80313V11.5996H16.8031V-8.40039ZM27.2406 0.762141C25.215 -1.26344 22.4677 -2.4014 19.6031 -2.4014V17.5986C17.1634 17.5986 14.8236 16.6294 13.0985 14.9043L27.2406 0.762141ZM19.6031 -2.4014C16.7385 -2.4014 13.9912 -1.26344 11.9657 0.762141L26.1078 14.9043C24.3827 16.6294 22.0429 17.5986 19.6031 17.5986V-2.4014ZM11.9657 0.762141C9.94006 2.78774 8.80211 5.53502 8.80211 8.39961H28.8021C28.8021 10.8393 27.833 13.1791 26.1078 14.9043L11.9657 0.762141ZM8.80211 8.39961C8.80211 11.2642 9.94006 14.0115 11.9657 16.0371L26.1078 1.89494C27.833 3.6201 28.8021 5.95991 28.8021 8.39961H8.80211ZM11.9682 16.0396L14.2034 18.2732L28.3405 4.12601L26.1053 1.89241L11.9682 16.0396ZM21.2719 1.19961H10.4031V21.1996H21.2719V1.19961ZM10.4031 1.19961C7.53878 1.19961 4.79176 2.33747 2.76637 4.36286L16.9085 18.505C15.1832 20.2303 12.8431 21.1996 10.4031 21.1996V1.19961ZM2.76637 4.36286C0.740984 6.38824 -0.396875 9.13526 -0.396875 11.9996H19.6031C19.6031 14.4396 18.6338 16.7797 16.9085 18.505L2.76637 4.36286ZM-0.396875 11.9996C-0.396875 14.864 0.740984 17.611 2.76637 19.6364L16.9085 5.49423C18.6338 7.21956 19.6031 9.55961 19.6031 11.9996H-0.396875ZM2.76637 19.6364C4.79176 21.6618 7.53878 22.7996 10.4031 22.7996V2.79961C12.8431 2.79961 15.1832 3.7689 16.9085 5.49423L2.76637 19.6364ZM10.4031 22.7996H21.2719V2.79961H10.4031V22.7996ZM14.2034 5.72601L11.9682 7.95961L26.1053 22.1068L28.3405 19.8732L14.2034 5.72601ZM11.9657 7.96214C9.94006 9.98774 8.80211 12.735 8.80211 15.5996H28.8021C28.8021 18.0393 27.833 20.3791 26.1078 22.1043L11.9657 7.96214ZM8.80211 15.5996C8.80211 18.4642 9.94006 21.2115 11.9657 23.2371L26.1078 9.09494C27.833 10.8201 28.8021 13.1599 28.8021 15.5996H8.80211ZM11.9657 23.2371C13.9913 25.2627 16.7385 26.4006 19.6031 26.4006V6.40062C22.0428 6.40062 24.3826 7.36978 26.1078 9.09494L11.9657 23.2371ZM19.6031 26.4006C22.4677 26.4006 25.215 25.2627 27.2406 23.2371L13.0985 9.09494C14.8236 7.36978 17.1634 6.40062 19.6031 6.40062V26.4006ZM27.2406 23.2371L30.8406 19.6371L16.6985 5.49494L13.0985 9.09494L27.2406 23.2371ZM30.8316 19.646C31.8374 18.6428 32.6354 17.451 33.1798 16.1389L14.7071 8.47355C15.1709 7.35587 15.8506 6.34063 16.7074 5.48601L30.8316 19.646ZM33.1798 16.1389C33.7243 14.8268 34.0046 13.4202 34.0046 11.9996H14.0046C14.0046 10.7895 14.2433 9.59126 14.7071 8.47355L33.1798 16.1389ZM34.0046 11.9996C34.0046 10.579 33.7243 9.17241 33.1798 7.86032L14.7071 15.5257C14.2433 14.408 14.0046 13.2097 14.0046 11.9996H34.0046ZM33.1798 7.86032C32.6354 6.54825 31.8374 5.35646 30.8316 4.35321L16.7074 18.5132C15.8506 17.6586 15.1709 16.6434 14.7071 15.5257L33.1798 7.86032ZM30.8406 4.36214L27.2406 0.762141L13.0985 14.9043L16.6985 18.5043L30.8406 4.36214Z" fill="white" mask="url(#path-1-inside-1_965_3781)"/>
</g>
</g>
<defs>
<clipPath id="clip0_965_3781">
<rect width="24" height="24" fill="white"/>
</clipPath>
</defs>
</svg>
