<svg xmlns="http://www.w3.org/2000/svg" width="1920" height="1080" fill="none">
  <g clip-path="url(#a)">
    <path fill="#1A1B22" d="M0 0h1920v1080H0z"/>
    <path fill="#fff" d="M1845 195c0 259.022-209.98 469-469 469-25.09 0-49.72-1.97-73.75-5.765l-3.21 5.563A478.511 478.511 0 0 0 1376 670c262.34 0 475-212.665 475-475 0-262.335-212.66-475-475-475-262.34 0-475 212.665-475 475 0 226.413 158.41 415.827 370.45 463.456l3.14-5.448C1064.32 606.66 907 419.202 907 195c0-259.022 209.98-469 469-469s469 209.978 469 469z"/>
    <path fill="#488EFB" d="M1422.44 385.612 1073 990.86l442.48 255.46 364.8-631.855-417.27-240.911-3 5.196 412.08 237.911-358.81 621.469-432.08-249.466 346.44-600.052-5.2-3z"/>
    <path stroke="#fff" stroke-width="4" d="m-394.3 700.448 249.07-616.72 440.362 498.458L-394.3 700.448z"/>
  </g>
  <defs>
    <clipPath id="a">
      <path fill="#fff" d="M0 0h1920v1080H0z"/>
    </clipPath>
  </defs>
</svg>
