<svg width="25" height="24" viewBox="0 0 25 24" fill="none" xmlns="http://www.w3.org/2000/svg">
<path d="M19.3594 12C19.3594 10.05 18.68 8.39567 17.3214 7.037C15.9634 5.679 14.3094 5 12.3594 5V3C13.6094 3 14.7804 3.23733 15.8724 3.712C16.9637 4.18733 17.9137 4.829 18.7224 5.637C19.5304 6.44567 20.172 7.39567 20.6474 8.487C21.122 9.579 21.3594 10.75 21.3594 12H19.3594ZM15.3594 12C15.3594 11.1667 15.0677 10.4583 14.4844 9.875C13.901 9.29167 13.1927 9 12.3594 9V7C13.7427 7 14.922 7.48733 15.8974 8.462C16.872 9.43733 17.3594 10.6167 17.3594 12H15.3594ZM20.3094 21C18.1594 21 16.0637 20.5207 14.0224 19.562C11.9804 18.604 10.172 17.3373 8.59737 15.762C7.02204 14.1873 5.75538 12.379 4.79738 10.337C3.83871 8.29567 3.35938 6.2 3.35938 4.05C3.35938 3.75 3.45937 3.5 3.65937 3.3C3.85937 3.1 4.10938 3 4.40938 3H8.45938C8.69271 3 8.90104 3.075 9.08438 3.225C9.26771 3.375 9.37604 3.56667 9.40938 3.8L10.0594 7.3C10.0927 7.53333 10.0887 7.74567 10.0474 7.937C10.0054 8.129 9.90937 8.3 9.75937 8.45L7.33437 10.9C8.03437 12.1 8.91371 13.225 9.97237 14.275C11.0304 15.325 12.1927 16.2333 13.4594 17L15.8094 14.65C15.9594 14.5 16.1554 14.3873 16.3974 14.312C16.6387 14.2373 16.876 14.2167 17.1094 14.25L20.5594 14.95C20.7927 15 20.9844 15.1123 21.1344 15.287C21.2844 15.4623 21.3594 15.6667 21.3594 15.9V19.95C21.3594 20.25 21.2594 20.5 21.0594 20.7C20.8594 20.9 20.6094 21 20.3094 21ZM6.38438 9L8.03438 7.35L7.60938 5H5.38438C5.46771 5.68333 5.58437 6.35833 5.73438 7.025C5.88438 7.69167 6.10104 8.35 6.38438 9ZM15.3344 17.95C15.9844 18.2333 16.647 18.4583 17.3224 18.625C17.997 18.7917 18.676 18.9 19.3594 18.95V16.75L17.0094 16.275L15.3344 17.95Z" fill="white"/>
</svg>
