<svg width="24" height="24" viewBox="0 0 24 24" fill="none" xmlns="http://www.w3.org/2000/svg">
<mask id="path-1-inside-1_965_3774" fill="white">
<path fill-rule="evenodd" clip-rule="evenodd" d="M20.2529 11.4221V12.5696L21.6704 13.8671C21.932 14.0965 22.1058 14.4097 22.1619 14.7532C22.218 15.0966 22.1529 15.4488 21.9779 15.7496L20.2679 18.7496C20.1364 18.9774 19.9472 19.1666 19.7195 19.2982C19.4918 19.4299 19.2334 19.4993 18.9704 19.4996C18.8074 19.5008 18.6452 19.4755 18.4904 19.4246L16.6754 18.8096C16.3581 19.0187 16.0274 19.2066 15.6854 19.3721L15.3029 21.2621C15.2343 21.6074 15.0464 21.9175 14.7722 22.1383C14.498 22.3591 14.1549 22.4763 13.8029 22.4696H10.2629C9.9109 22.4763 9.56776 22.3591 9.29353 22.1383C9.01931 21.9175 8.83146 21.6074 8.76288 21.2621L8.38037 19.3721C8.04076 19.2066 7.71253 19.0187 7.39787 18.8096L5.57537 19.4246C5.42051 19.4755 5.25839 19.5008 5.09538 19.4996C4.83233 19.4993 4.57398 19.4299 4.34625 19.2982C4.11851 19.1666 3.9294 18.9774 3.79787 18.7496L2.02788 15.7496C1.8448 15.4459 1.77523 15.0871 1.83152 14.737C1.88782 14.3869 2.06633 14.0681 2.33537 13.8371L3.75287 12.5771V11.4296L2.33537 10.1321C2.07372 9.90267 1.89996 9.58943 1.84386 9.246C1.78776 8.90257 1.85282 8.55031 2.02788 8.24957L3.79787 5.24957C3.9294 5.02177 4.11851 4.83256 4.34625 4.70092C4.57398 4.56928 4.83233 4.49984 5.09538 4.49957C5.25675 4.48859 5.41885 4.50379 5.57537 4.54457L7.36038 5.18957C7.6776 4.98043 8.00833 4.79252 8.35038 4.62707L8.73288 2.73707C8.80146 2.39178 8.98931 2.0816 9.26353 1.86085C9.53776 1.6401 9.8809 1.52283 10.2329 1.52957H13.7429C14.0949 1.52283 14.438 1.6401 14.7122 1.86085C14.9864 2.0816 15.1743 2.39178 15.2429 2.73707L15.6254 4.62707C15.965 4.79256 16.2932 4.98048 16.6079 5.18957L18.4304 4.57457C18.5852 4.52366 18.7474 4.49832 18.9104 4.49957C19.1734 4.49984 19.4318 4.56928 19.6595 4.70092C19.8872 4.83256 20.0764 5.02177 20.2079 5.24957L21.9779 8.24957C22.1636 8.55076 22.2368 8.9079 22.1847 9.25787C22.1325 9.60784 21.9583 9.92811 21.6929 10.1621L20.2529 11.4221ZM16.3379 17.1296L18.9104 17.9996L20.6804 14.9996L18.6404 13.1471C18.7791 12.3707 18.7791 11.5759 18.6404 10.7996L20.6804 8.99957L18.9104 5.99957L16.3304 6.83957C15.7261 6.33643 15.0416 5.93839 14.3054 5.66207L13.7729 2.99957H10.2329L9.70038 5.69207C8.95833 5.96076 8.27008 6.35949 7.66788 6.86957L5.09538 5.99957L3.32537 8.99957L5.36538 10.8521C5.2267 11.6284 5.2267 12.4232 5.36538 13.1996L3.32537 14.9996L5.09538 17.9996L7.67537 17.1596C8.27966 17.6627 8.96419 18.0608 9.70038 18.3371L10.2329 20.9996H13.7729L14.3054 18.3071C15.0474 18.0384 15.7357 17.6397 16.3379 17.1296ZM9.50384 15.7416C10.2439 16.2361 11.1139 16.5 12.0039 16.5C12.5965 16.506 13.1844 16.3937 13.7331 16.1697C14.2818 15.9457 14.7802 15.6145 15.1993 15.1954C15.6184 14.7763 15.9496 14.2779 16.1736 13.7292C16.3976 13.1805 16.5099 12.5926 16.5039 12C16.5039 11.11 16.24 10.24 15.7455 9.49994C15.2511 8.75991 14.5483 8.18314 13.726 7.84254C12.9037 7.50195 11.9989 7.41283 11.126 7.58647C10.2531 7.7601 9.45126 8.18868 8.82193 8.81802C8.19259 9.44736 7.76401 10.2492 7.59037 11.1221C7.41674 11.995 7.50586 12.8998 7.84645 13.7221C8.18704 14.5443 8.76382 15.2471 9.50384 15.7416ZM10.845 9.20954C11.2132 9.06205 11.6074 8.99077 12.0039 9C12.4004 8.99077 12.7946 9.06205 13.1628 9.20954C13.5309 9.35704 13.8654 9.57768 14.1458 9.85812C14.4262 10.1386 14.6469 10.473 14.7944 10.8411C14.9419 11.2093 15.0131 11.6035 15.0039 12C15.0131 12.3965 14.9419 12.7907 14.7944 13.1589C14.6469 13.527 14.4262 13.8615 14.1458 14.1419C13.8654 14.4223 13.5309 14.643 13.1628 14.7905C12.7946 14.938 12.4004 15.0092 12.0039 15C11.6074 15.0092 11.2132 14.938 10.845 14.7905C10.4769 14.643 10.1425 14.4223 9.86202 14.1419C9.58158 13.8615 9.36095 13.527 9.21345 13.1589C9.06596 12.7907 8.99467 12.3965 9.00391 12C8.99467 11.6035 9.06596 11.2093 9.21345 10.8411C9.36095 10.473 9.58158 10.1386 9.86202 9.85812C10.1425 9.57768 10.4769 9.35704 10.845 9.20954Z"/>
</mask>
<path fill-rule="evenodd" clip-rule="evenodd" d="M20.2529 11.4221V12.5696L21.6704 13.8671C21.932 14.0965 22.1058 14.4097 22.1619 14.7532C22.218 15.0966 22.1529 15.4488 21.9779 15.7496L20.2679 18.7496C20.1364 18.9774 19.9472 19.1666 19.7195 19.2982C19.4918 19.4299 19.2334 19.4993 18.9704 19.4996C18.8074 19.5008 18.6452 19.4755 18.4904 19.4246L16.6754 18.8096C16.3581 19.0187 16.0274 19.2066 15.6854 19.3721L15.3029 21.2621C15.2343 21.6074 15.0464 21.9175 14.7722 22.1383C14.498 22.3591 14.1549 22.4763 13.8029 22.4696H10.2629C9.9109 22.4763 9.56776 22.3591 9.29353 22.1383C9.01931 21.9175 8.83146 21.6074 8.76288 21.2621L8.38037 19.3721C8.04076 19.2066 7.71253 19.0187 7.39787 18.8096L5.57537 19.4246C5.42051 19.4755 5.25839 19.5008 5.09538 19.4996C4.83233 19.4993 4.57398 19.4299 4.34625 19.2982C4.11851 19.1666 3.9294 18.9774 3.79787 18.7496L2.02788 15.7496C1.8448 15.4459 1.77523 15.0871 1.83152 14.737C1.88782 14.3869 2.06633 14.0681 2.33537 13.8371L3.75287 12.5771V11.4296L2.33537 10.1321C2.07372 9.90267 1.89996 9.58943 1.84386 9.246C1.78776 8.90257 1.85282 8.55031 2.02788 8.24957L3.79787 5.24957C3.9294 5.02177 4.11851 4.83256 4.34625 4.70092C4.57398 4.56928 4.83233 4.49984 5.09538 4.49957C5.25675 4.48859 5.41885 4.50379 5.57537 4.54457L7.36038 5.18957C7.6776 4.98043 8.00833 4.79252 8.35038 4.62707L8.73288 2.73707C8.80146 2.39178 8.98931 2.0816 9.26353 1.86085C9.53776 1.6401 9.8809 1.52283 10.2329 1.52957H13.7429C14.0949 1.52283 14.438 1.6401 14.7122 1.86085C14.9864 2.0816 15.1743 2.39178 15.2429 2.73707L15.6254 4.62707C15.965 4.79256 16.2932 4.98048 16.6079 5.18957L18.4304 4.57457C18.5852 4.52366 18.7474 4.49832 18.9104 4.49957C19.1734 4.49984 19.4318 4.56928 19.6595 4.70092C19.8872 4.83256 20.0764 5.02177 20.2079 5.24957L21.9779 8.24957C22.1636 8.55076 22.2368 8.9079 22.1847 9.25787C22.1325 9.60784 21.9583 9.92811 21.6929 10.1621L20.2529 11.4221ZM16.3379 17.1296L18.9104 17.9996L20.6804 14.9996L18.6404 13.1471C18.7791 12.3707 18.7791 11.5759 18.6404 10.7996L20.6804 8.99957L18.9104 5.99957L16.3304 6.83957C15.7261 6.33643 15.0416 5.93839 14.3054 5.66207L13.7729 2.99957H10.2329L9.70038 5.69207C8.95833 5.96076 8.27008 6.35949 7.66788 6.86957L5.09538 5.99957L3.32537 8.99957L5.36538 10.8521C5.2267 11.6284 5.2267 12.4232 5.36538 13.1996L3.32537 14.9996L5.09538 17.9996L7.67537 17.1596C8.27966 17.6627 8.96419 18.0608 9.70038 18.3371L10.2329 20.9996H13.7729L14.3054 18.3071C15.0474 18.0384 15.7357 17.6397 16.3379 17.1296ZM9.50384 15.7416C10.2439 16.2361 11.1139 16.5 12.0039 16.5C12.5965 16.506 13.1844 16.3937 13.7331 16.1697C14.2818 15.9457 14.7802 15.6145 15.1993 15.1954C15.6184 14.7763 15.9496 14.2779 16.1736 13.7292C16.3976 13.1805 16.5099 12.5926 16.5039 12C16.5039 11.11 16.24 10.24 15.7455 9.49994C15.2511 8.75991 14.5483 8.18314 13.726 7.84254C12.9037 7.50195 11.9989 7.41283 11.126 7.58647C10.2531 7.7601 9.45126 8.18868 8.82193 8.81802C8.19259 9.44736 7.76401 10.2492 7.59037 11.1221C7.41674 11.995 7.50586 12.8998 7.84645 13.7221C8.18704 14.5443 8.76382 15.2471 9.50384 15.7416ZM10.845 9.20954C11.2132 9.06205 11.6074 8.99077 12.0039 9C12.4004 8.99077 12.7946 9.06205 13.1628 9.20954C13.5309 9.35704 13.8654 9.57768 14.1458 9.85812C14.4262 10.1386 14.6469 10.473 14.7944 10.8411C14.9419 11.2093 15.0131 11.6035 15.0039 12C15.0131 12.3965 14.9419 12.7907 14.7944 13.1589C14.6469 13.527 14.4262 13.8615 14.1458 14.1419C13.8654 14.4223 13.5309 14.643 13.1628 14.7905C12.7946 14.938 12.4004 15.0092 12.0039 15C11.6074 15.0092 11.2132 14.938 10.845 14.7905C10.4769 14.643 10.1425 14.4223 9.86202 14.1419C9.58158 13.8615 9.36095 13.527 9.21345 13.1589C9.06596 12.7907 8.99467 12.3965 9.00391 12C8.99467 11.6035 9.06596 11.2093 9.21345 10.8411C9.36095 10.473 9.58158 10.1386 9.86202 9.85812C10.1425 9.57768 10.4769 9.35704 10.845 9.20954Z" fill="white"/>
<path d="M20.2529 12.5696H19.2529V13.0099L19.5777 13.3072L20.2529 12.5696ZM20.2529 11.4221L19.5944 10.6695L19.2529 10.9683V11.4221H20.2529ZM21.6704 13.8671L20.9952 14.6047L21.0031 14.6119L21.0111 14.619L21.6704 13.8671ZM22.1619 14.7532L23.1488 14.5919L23.1488 14.5919L22.1619 14.7532ZM21.9779 15.7496L21.1136 15.2465L21.1091 15.2544L21.9779 15.7496ZM20.2679 18.7496L21.1339 19.2496L21.1367 19.2448L20.2679 18.7496ZM18.9704 19.4996L18.9694 18.4996L18.9627 18.4996L18.9704 19.4996ZM18.4904 19.4246L18.1694 20.3717L18.178 20.3745L18.4904 19.4246ZM16.6754 18.8096L16.9963 17.8625L16.5332 17.7055L16.125 17.9747L16.6754 18.8096ZM15.6854 19.3721L15.2499 18.4719L14.8036 18.6878L14.7052 19.1737L15.6854 19.3721ZM15.3029 21.2621L14.3227 21.0637L14.322 21.0673L15.3029 21.2621ZM14.7722 22.1383L14.1452 21.3593L14.1451 21.3593L14.7722 22.1383ZM13.8029 22.4696L13.822 21.4698L13.8125 21.4696H13.8029V22.4696ZM10.2629 22.4696V21.4696H10.2533L10.2437 21.4698L10.2629 22.4696ZM9.29353 22.1383L9.9206 21.3593L9.9206 21.3593L9.29353 22.1383ZM8.76288 21.2621L9.74372 21.0673L9.743 21.0637L8.76288 21.2621ZM8.38037 19.3721L9.3605 19.1737L9.26251 18.6895L8.81842 18.4731L8.38037 19.3721ZM7.39787 18.8096L7.95133 17.9767L7.54285 17.7053L7.07814 17.8621L7.39787 18.8096ZM5.57537 19.4246L5.88772 20.3746L5.89511 20.3721L5.57537 19.4246ZM5.09538 19.4996L5.10304 18.4996L5.0964 18.4996L5.09538 19.4996ZM3.79787 18.7496L4.66394 18.2496L4.65914 18.2414L3.79787 18.7496ZM2.02788 15.7496L2.88918 15.2414L2.88429 15.2333L2.02788 15.7496ZM2.33537 13.8371L2.9868 14.5958L2.99332 14.5902L2.99974 14.5845L2.33537 13.8371ZM3.75287 12.5771L4.41724 13.3245L4.75287 13.0261V12.5771H3.75287ZM3.75287 11.4296H4.75287V10.9892L4.42807 10.6919L3.75287 11.4296ZM2.33537 10.1321L3.01057 9.39443L3.00267 9.3872L2.99462 9.38015L2.33537 10.1321ZM1.84386 9.246L2.83078 9.08479L1.84386 9.246ZM2.02788 8.24957L1.16659 7.74142L1.16363 7.7465L2.02788 8.24957ZM3.79787 5.24957L4.65918 5.75774L4.6639 5.74957L3.79787 5.24957ZM5.09538 4.49957L5.0964 5.49957L5.12986 5.49954L5.16325 5.49727L5.09538 4.49957ZM5.57537 4.54457L5.91521 3.60409L5.87198 3.58847L5.8275 3.57688L5.57537 4.54457ZM7.36038 5.18957L7.02054 6.13006L7.49214 6.30047L7.9108 6.02446L7.36038 5.18957ZM8.35038 4.62707L8.78581 5.52729L9.23215 5.3114L9.3305 4.82543L8.35038 4.62707ZM8.73288 2.73707L9.71301 2.93543L9.71372 2.93189L8.73288 2.73707ZM9.26353 1.86085L8.63647 1.08188L8.63647 1.08188L9.26353 1.86085ZM10.2329 1.52957L10.2137 2.52939L10.2233 2.52957H10.2329V1.52957ZM13.7429 1.52957V2.52957H13.7525L13.762 2.52939L13.7429 1.52957ZM14.7122 1.86085L14.0851 2.63981L14.0851 2.63982L14.7122 1.86085ZM15.2429 2.73707L14.262 2.93189L14.2627 2.93543L15.2429 2.73707ZM15.6254 4.62707L14.6452 4.82543L14.7432 5.30963L15.1873 5.52603L15.6254 4.62707ZM16.6079 5.18957L16.0544 6.02245L16.4629 6.2939L16.9276 6.13708L16.6079 5.18957ZM18.4304 4.57457L18.118 3.62457L18.1106 3.62707L18.4304 4.57457ZM18.9104 4.49957L18.9027 5.49957L18.9093 5.49957L18.9104 4.49957ZM20.2079 5.24957L19.3418 5.74959L19.3466 5.75772L20.2079 5.24957ZM21.9779 8.24957L21.1166 8.75772L21.1215 8.7661L21.1267 8.77438L21.9779 8.24957ZM22.1847 9.25787L21.1956 9.11048L22.1847 9.25787ZM21.6929 10.1621L22.3514 10.9147L22.3541 10.9123L21.6929 10.1621ZM18.9104 17.9996L18.59 18.9469L19.3591 19.207L19.7716 18.5077L18.9104 17.9996ZM16.3379 17.1296L16.6582 16.1823L16.1228 16.0012L15.6915 16.3665L16.3379 17.1296ZM20.6804 14.9996L21.5416 15.5077L21.9553 14.8066L21.3526 14.2593L20.6804 14.9996ZM18.6404 13.1471L17.656 12.9712L17.5587 13.5156L17.9681 13.8874L18.6404 13.1471ZM18.6404 10.7996L17.9788 10.0497L17.5571 10.4218L17.656 10.9754L18.6404 10.7996ZM20.6804 8.99957L21.342 9.74941L21.9614 9.20288L21.5416 8.49142L20.6804 8.99957ZM18.9104 5.99957L19.7716 5.49142L19.3639 4.80026L18.6008 5.0487L18.9104 5.99957ZM16.3304 6.83957L15.6905 7.60806L16.1149 7.9614L16.64 7.79044L16.3304 6.83957ZM14.3054 5.66207L13.3248 5.85819L13.4338 6.40304L13.954 6.5983L14.3054 5.66207ZM13.7729 2.99957L14.7535 2.80346L14.5927 1.99957H13.7729V2.99957ZM10.2329 2.99957V1.99957H9.41128L9.25188 2.80556L10.2329 2.99957ZM9.70038 5.69207L10.0408 6.63233L10.5718 6.44007L10.6814 5.88609L9.70038 5.69207ZM7.66788 6.86957L7.34751 7.81687L7.88292 7.99794L8.31421 7.63263L7.66788 6.86957ZM5.09538 5.99957L5.41574 5.05228L4.64666 4.79218L4.23411 5.49142L5.09538 5.99957ZM3.32537 8.99957L2.46411 8.49142L2.05042 9.19259L2.65311 9.73988L3.32537 8.99957ZM5.36538 10.8521L6.34979 11.0279L6.44703 10.4835L6.03764 10.1118L5.36538 10.8521ZM5.36538 13.1996L6.027 13.9494L6.44868 13.5773L6.34979 13.0237L5.36538 13.1996ZM3.32537 14.9996L2.66375 14.2497L2.04435 14.7963L2.46411 15.5077L3.32537 14.9996ZM5.09538 17.9996L4.23411 18.5077L4.64189 19.1989L5.40496 18.9504L5.09538 17.9996ZM7.67537 17.1596L8.31524 16.3911L7.89087 16.0377L7.36579 16.2087L7.67537 17.1596ZM9.70038 18.3371L10.681 18.141L10.572 17.5961L10.0518 17.4008L9.70038 18.3371ZM10.2329 20.9996L9.25229 21.1957L9.41307 21.9996H10.2329V20.9996ZM13.7729 20.9996V21.9996H14.5945L14.7539 21.1936L13.7729 20.9996ZM14.3054 18.3071L13.9649 17.3668L13.4339 17.5591L13.3244 18.1131L14.3054 18.3071ZM12.0039 16.5L12.0141 15.5H12.0039V16.5ZM13.7331 16.1697L13.3551 15.2439L13.3551 15.2439L13.7331 16.1697ZM15.1993 15.1954L15.9064 15.9025L15.9064 15.9025L15.1993 15.1954ZM16.1736 13.7292L15.2478 13.3512L15.2478 13.3512L16.1736 13.7292ZM16.5039 12L15.5039 12L15.504 12.0102L16.5039 12ZM13.726 7.84254L13.3433 8.76642L13.726 7.84254ZM11.126 7.58647L10.9309 6.60568L11.126 7.58647ZM7.59037 11.1221L6.60959 10.927L7.59037 11.1221ZM7.84645 13.7221L8.77033 13.3394L7.84645 13.7221ZM12.0039 9L11.9806 9.99973L12.0039 10.0003L12.0272 9.99973L12.0039 9ZM10.845 9.20954L11.2169 10.1378L11.2169 10.1378L10.845 9.20954ZM13.1628 9.20954L12.7909 10.1378L12.7909 10.1378L13.1628 9.20954ZM14.1458 9.85812L14.8529 9.15101L14.8529 9.15101L14.1458 9.85812ZM14.7944 10.8411L13.8661 11.213L13.8661 11.213L14.7944 10.8411ZM15.0039 12L14.0042 11.9767L14.0036 12L14.0042 12.0233L15.0039 12ZM14.7944 13.1589L13.8661 12.787L13.8661 12.787L14.7944 13.1589ZM13.1628 14.7905L12.7909 13.8622L12.7909 13.8622L13.1628 14.7905ZM12.0039 15L12.0272 14.0003L12.0039 13.9997L11.9806 14.0003L12.0039 15ZM10.845 14.7905L11.2169 13.8622L11.2169 13.8622L10.845 14.7905ZM9.86202 14.1419L9.15491 14.849L9.15492 14.849L9.86202 14.1419ZM9.21345 13.1589L10.1417 12.787L10.1417 12.787L9.21345 13.1589ZM9.00391 12L10.0036 12.0233L10.0042 12L10.0036 11.9767L9.00391 12ZM9.21345 10.8411L10.1417 11.213L10.1417 11.213L9.21345 10.8411ZM9.86202 9.85812L9.15492 9.15101L9.15491 9.15101L9.86202 9.85812ZM21.2529 12.5696V11.4221H19.2529V12.5696H21.2529ZM22.3456 13.1294L20.9281 11.8319L19.5777 13.3072L20.9952 14.6047L22.3456 13.1294ZM23.1488 14.5919C23.0553 14.0196 22.7657 13.4975 22.3296 13.1151L21.0111 14.619C21.0983 14.6955 21.1563 14.7999 21.175 14.9144L23.1488 14.5919ZM22.8421 16.2526C23.1339 15.7514 23.2423 15.1643 23.1488 14.5919L21.175 14.9144C21.1937 15.0288 21.172 15.1463 21.1136 15.2465L22.8421 16.2526ZM21.1367 19.2448L22.8467 16.2448L21.1091 15.2544L19.3991 18.2544L21.1367 19.2448ZM20.2199 20.164C20.5995 19.9446 20.9147 19.6292 21.1339 19.2496L19.4018 18.2496C19.358 18.3255 19.295 18.3886 19.2191 18.4325L20.2199 20.164ZM18.9714 20.4996C19.4098 20.4991 19.8404 20.3834 20.2199 20.164L19.2191 18.4325C19.1431 18.4763 19.057 18.4995 18.9694 18.4996L18.9714 20.4996ZM18.178 20.3745C18.4361 20.4594 18.7064 20.5016 18.978 20.4995L18.9627 18.4996C18.9084 18.5 18.8543 18.4916 18.8027 18.4746L18.178 20.3745ZM16.3545 19.7567L18.1695 20.3717L18.8113 18.4775L16.9963 17.8625L16.3545 19.7567ZM16.1208 20.2723C16.5026 20.0876 16.8717 19.8779 17.2258 19.6445L16.125 17.9747C15.8446 18.1595 15.5523 18.3256 15.2499 18.4719L16.1208 20.2723ZM16.283 21.4604L16.6655 19.5704L14.7052 19.1737L14.3227 21.0637L16.283 21.4604ZM15.3993 22.9173C15.8563 22.5493 16.1694 22.0324 16.2837 21.4569L14.322 21.0673C14.2992 21.1824 14.2366 21.2857 14.1452 21.3593L15.3993 22.9173ZM13.7837 23.4694C14.3703 23.4806 14.9422 23.2852 15.3993 22.9173L14.1451 21.3593C14.0537 21.4329 13.9394 21.472 13.822 21.4698L13.7837 23.4694ZM10.2629 23.4696H13.8029V21.4696H10.2629V23.4696ZM8.66647 22.9173C9.12351 23.2852 9.69541 23.4806 10.282 23.4694L10.2437 21.4698C10.1264 21.472 10.012 21.4329 9.9206 21.3593L8.66647 22.9173ZM7.78204 21.4569C7.89634 22.0324 8.20942 22.5493 8.66647 22.9173L9.9206 21.3593C9.82919 21.2857 9.76658 21.1824 9.74371 21.0673L7.78204 21.4569ZM7.40025 19.5704L7.78275 21.4604L9.743 21.0637L9.3605 19.1737L7.40025 19.5704ZM6.84442 19.6425C7.19603 19.8761 7.56282 20.0861 7.94233 20.271L8.81842 18.4731C8.5187 18.3271 8.22903 18.1612 7.95133 17.9767L6.84442 19.6425ZM5.89511 20.3721L7.71761 19.7571L7.07814 17.8621L5.25564 18.4771L5.89511 20.3721ZM5.08771 20.4995C5.3594 20.5016 5.62961 20.4594 5.88771 20.3745L5.26304 18.4746C5.21142 18.4916 5.15738 18.5 5.10304 18.4996L5.08771 20.4995ZM3.8458 20.164C4.22536 20.3834 4.65594 20.4991 5.09435 20.4996L5.0964 18.4996C5.00872 18.4995 4.9226 18.4763 4.84669 18.4325L3.8458 20.164ZM2.93185 19.2496C3.15105 19.6292 3.46625 19.9446 3.8458 20.164L4.84669 18.4325C4.77078 18.3886 4.70774 18.3255 4.6639 18.2496L2.93185 19.2496ZM1.16661 16.2577L2.93661 19.2577L4.65914 18.2414L2.88914 15.2414L1.16661 16.2577ZM0.844204 14.5783C0.750383 15.1618 0.866326 15.7597 1.17146 16.2659L2.88429 15.2333C2.82327 15.1321 2.80008 15.0125 2.81884 14.8958L0.844204 14.5783ZM1.68395 13.0784C1.23554 13.4634 0.938025 13.9948 0.844204 14.5783L2.81884 14.8958C2.83761 14.7791 2.89711 14.6728 2.9868 14.5958L1.68395 13.0784ZM3.08851 11.8297L1.67101 13.0897L2.99974 14.5845L4.41724 13.3245L3.08851 11.8297ZM2.75287 11.4296V12.5771H4.75287V11.4296H2.75287ZM1.66018 10.8697L3.07768 12.1672L4.42807 10.6919L3.01057 9.39443L1.66018 10.8697ZM0.856942 9.40721C0.950439 9.97959 1.24003 10.5017 1.67613 10.884L2.99462 9.38015C2.9074 9.30368 2.84948 9.19926 2.83078 9.08479L0.856942 9.40721ZM1.16363 7.7465C0.871864 8.24774 0.763445 8.83482 0.856942 9.40721L2.83078 9.08479C2.81208 8.97031 2.83377 8.85289 2.89212 8.75264L1.16363 7.7465ZM2.93661 4.74142L1.16661 7.74142L2.88914 8.75772L4.65914 5.75772L2.93661 4.74142ZM3.8458 3.83515C3.46624 4.05455 3.15105 4.3699 2.93185 4.74957L4.6639 5.74957C4.70774 5.67364 4.77078 5.61057 4.84669 5.56669L3.8458 3.83515ZM5.09435 3.49957C4.65594 3.50002 4.22536 3.61575 3.8458 3.83515L4.84669 5.56669C4.9226 5.52281 5.00872 5.49966 5.0964 5.49957L5.09435 3.49957ZM5.8275 3.57688C5.56662 3.50891 5.29647 3.48358 5.0275 3.50188L5.16325 5.49727C5.21704 5.49361 5.27107 5.49867 5.32325 5.51227L5.8275 3.57688ZM7.70021 4.24909L5.91521 3.60409L5.23554 5.48506L7.02054 6.13006L7.70021 4.24909ZM7.91494 3.72685C7.53316 3.91152 7.16403 4.12126 6.80996 4.35469L7.9108 6.02446C8.19118 5.83961 8.48349 5.67353 8.78581 5.52729L7.91494 3.72685ZM7.75275 2.53871L7.37025 4.42871L9.3305 4.82543L9.713 2.93543L7.75275 2.53871ZM8.63647 1.08188C8.17942 1.44981 7.86634 1.96676 7.75204 2.54226L9.71372 2.93189C9.73658 2.81679 9.79919 2.7134 9.8906 2.63981L8.63647 1.08188ZM10.252 0.529756C9.66541 0.518514 9.09351 0.713962 8.63647 1.08188L9.8906 2.63981C9.98201 2.56623 10.0964 2.52714 10.2137 2.52939L10.252 0.529756ZM13.7429 0.529572H10.2329V2.52957H13.7429V0.529572ZM15.3393 1.08188C14.8822 0.713961 14.3103 0.518514 13.7237 0.529756L13.762 2.52939C13.8794 2.52714 13.9937 2.56623 14.0851 2.63981L15.3393 1.08188ZM16.2237 2.54226C16.1094 1.96676 15.7963 1.44981 15.3393 1.08188L14.0851 2.63982C14.1766 2.7134 14.2392 2.81679 14.262 2.93189L16.2237 2.54226ZM16.6055 4.42871L16.223 2.53871L14.2627 2.93543L14.6452 4.82543L16.6055 4.42871ZM17.1613 4.3567C16.8097 4.12304 16.4429 3.91305 16.0634 3.72812L15.1873 5.52603C15.4871 5.67208 15.7767 5.83792 16.0544 6.02245L17.1613 4.3567ZM18.1106 3.62707L16.2881 4.24207L16.9276 6.13708L18.7501 5.52208L18.1106 3.62707ZM18.918 3.4996C18.6463 3.49752 18.3761 3.53974 18.118 3.6246L18.7427 5.52454C18.7943 5.50757 18.8484 5.49913 18.9027 5.49954L18.918 3.4996ZM20.1599 3.83515C19.7804 3.61575 19.3498 3.50002 18.9114 3.49957L18.9093 5.49957C18.997 5.49966 19.0831 5.52281 19.1591 5.56669L20.1599 3.83515ZM21.0739 4.74958C20.8547 4.3699 20.5395 4.05455 20.1599 3.83515L19.1591 5.56669C19.235 5.61057 19.298 5.67364 19.3418 5.74957L21.0739 4.74958ZM22.8391 7.74142L21.0691 4.74142L19.3466 5.75772L21.1166 8.75772L22.8391 7.74142ZM23.1737 9.40527C23.2607 8.82198 23.1386 8.22675 22.8291 7.72476L21.1267 8.77438C21.1886 8.87478 21.213 8.99383 21.1956 9.11048L23.1737 9.40527ZM22.3541 10.9123C22.7965 10.5223 23.0868 9.98855 23.1737 9.40527L21.1956 9.11048C21.1782 9.22714 21.1201 9.33389 21.0317 9.41188L22.3541 10.9123ZM20.9114 12.1746L22.3514 10.9146L21.0344 9.4095L19.5944 10.6695L20.9114 12.1746ZM19.2307 17.0523L16.6582 16.1823L16.0175 18.0769L18.59 18.9469L19.2307 17.0523ZM19.8191 14.4914L18.0491 17.4914L19.7716 18.5077L21.5416 15.5077L19.8191 14.4914ZM17.9681 13.8874L20.0081 15.7399L21.3526 14.2593L19.3126 12.4068L17.9681 13.8874ZM17.656 10.9754C17.7739 11.6355 17.7739 12.3112 17.656 12.9712L19.6248 13.3229C19.7842 12.4303 19.7842 11.5164 19.6248 10.6237L17.656 10.9754ZM20.0188 8.24974L17.9788 10.0497L19.302 11.5494L21.342 9.74941L20.0188 8.24974ZM18.0491 6.50772L19.8191 9.50772L21.5416 8.49142L19.7716 5.49142L18.0491 6.50772ZM16.64 7.79044L19.22 6.95044L18.6008 5.0487L16.0208 5.8887L16.64 7.79044ZM13.954 6.5983C14.5853 6.83525 15.1723 7.17659 15.6905 7.60806L16.9702 6.07108C16.2799 5.49627 15.4978 5.04153 14.6568 4.72585L13.954 6.5983ZM12.7923 3.19569L13.3248 5.85819L15.286 5.46596L14.7535 2.80346L12.7923 3.19569ZM10.2329 3.99957H13.7729V1.99957H10.2329V3.99957ZM10.6814 5.88609L11.2139 3.19359L9.25188 2.80556L8.71938 5.49806L10.6814 5.88609ZM8.31421 7.63263C8.82578 7.19931 9.41046 6.86059 10.0408 6.63233L9.35991 4.75181C8.5062 5.06094 7.71437 5.51967 7.02154 6.10652L8.31421 7.63263ZM4.77501 6.94687L7.34751 7.81687L7.98824 5.92228L5.41574 5.05228L4.77501 6.94687ZM4.18664 9.50772L5.95664 6.50772L4.23411 5.49142L2.46411 8.49142L4.18664 9.50772ZM6.03764 10.1118L3.99764 8.25926L2.65311 9.73988L4.69311 11.5924L6.03764 10.1118ZM6.34979 13.0237C6.23189 12.3637 6.23189 11.688 6.34979 11.0279L4.38096 10.6762C4.2215 11.5689 4.2215 12.4828 4.38096 13.3754L6.34979 13.0237ZM3.987 15.7494L6.027 13.9494L4.70375 12.4497L2.66375 14.2497L3.987 15.7494ZM5.95664 17.4914L4.18664 14.4914L2.46411 15.5077L4.23411 18.5077L5.95664 17.4914ZM7.36579 16.2087L4.78579 17.0487L5.40496 18.9504L7.98496 18.1104L7.36579 16.2087ZM10.0518 17.4008C9.42046 17.1639 8.83344 16.8226 8.31524 16.3911L7.03551 17.9281C7.72588 18.5029 8.50792 18.9576 9.34897 19.2733L10.0518 17.4008ZM11.2135 20.8035L10.681 18.141L8.71979 18.5332L9.25229 21.1957L11.2135 20.8035ZM13.7729 19.9996H10.2329V21.9996H13.7729V19.9996ZM13.3244 18.1131L12.7919 20.8056L14.7539 21.1936L15.2864 18.5011L13.3244 18.1131ZM15.6915 16.3665C15.18 16.7998 14.5953 17.1386 13.9649 17.3668L14.6458 19.2473C15.4996 18.9382 16.2914 18.4795 16.9842 17.8926L15.6915 16.3665ZM12.0039 15.5C11.3117 15.5 10.635 15.2947 10.0594 14.9101L8.94827 16.5731C9.85274 17.1774 10.9161 17.5 12.0039 17.5V15.5ZM13.3551 15.2439C12.9296 15.4176 12.4737 15.5047 12.0141 15.5001L11.9938 17.5C12.7194 17.5073 13.4392 17.3698 14.1111 17.0955L13.3551 15.2439ZM14.4922 14.4883C14.1672 14.8133 13.7806 15.0702 13.3551 15.2439L14.1111 17.0955C14.7829 16.8212 15.3933 16.4156 15.9064 15.9025L14.4922 14.4883ZM15.2478 13.3512C15.0741 13.7767 14.8172 14.1633 14.4922 14.4883L15.9064 15.9025C16.4195 15.3894 16.8251 14.779 17.0994 14.1072L15.2478 13.3512ZM15.504 12.0102C15.5086 12.4698 15.4215 12.9257 15.2478 13.3512L17.0994 14.1072C17.3737 13.4353 17.5112 12.7155 17.5039 11.9899L15.504 12.0102ZM14.9141 10.0555C15.2986 10.6311 15.5039 11.3078 15.5039 12L17.5039 12C17.5039 10.9122 17.1813 9.84884 16.577 8.94437L14.9141 10.0555ZM13.3433 8.76642C13.9828 9.03133 14.5295 9.47993 14.9141 10.0555L16.577 8.94437C15.9726 8.0399 15.1137 7.33495 14.1087 6.91866L13.3433 8.76642ZM11.3211 8.56725C12 8.43221 12.7038 8.50152 13.3433 8.76642L14.1087 6.91866C13.1037 6.50238 11.9978 6.39346 10.9309 6.60568L11.3211 8.56725ZM9.52903 9.52513C10.0185 9.03564 10.6422 8.7023 11.3211 8.56725L10.9309 6.60568C9.86402 6.8179 8.88401 7.34173 8.11482 8.11091L9.52903 9.52513ZM8.57116 11.3172C8.70621 10.6383 9.03955 10.0146 9.52903 9.52513L8.11482 8.11091C7.34563 8.8801 6.82181 9.86011 6.60959 10.927L8.57116 11.3172ZM8.77033 13.3394C8.50542 12.6999 8.43611 11.9961 8.57116 11.3172L6.60959 10.927C6.39737 11.9939 6.50629 13.0998 6.92257 14.1048L8.77033 13.3394ZM10.0594 14.9101C9.48384 14.5256 9.03524 13.9789 8.77033 13.3394L6.92257 14.1048C7.33885 15.1098 8.0438 15.9687 8.94827 16.5731L10.0594 14.9101ZM12.0272 8.00027C11.4955 7.98789 10.9668 8.08348 10.4731 8.28127L11.2169 10.1378C11.4595 10.0406 11.7193 9.99364 11.9806 9.99973L12.0272 8.00027ZM13.5347 8.28127C13.041 8.08348 12.5123 7.98789 11.9806 8.00027L12.0272 9.99973C12.2885 9.99364 12.5483 10.0406 12.7909 10.1378L13.5347 8.28127ZM14.8529 9.15101C14.4768 8.77494 14.0284 8.47906 13.5347 8.28127L12.7909 10.1378C13.0335 10.235 13.2539 10.3804 13.4387 10.5652L14.8529 9.15101ZM15.7226 10.4692C15.5248 9.97552 15.229 9.52708 14.8529 9.15101L13.4387 10.5652C13.6235 10.75 13.7689 10.9704 13.8661 11.213L15.7226 10.4692ZM16.0036 12.0233C16.016 11.4916 15.9204 10.9629 15.7226 10.4692L13.8661 11.213C13.9633 11.4556 14.0103 11.7154 14.0042 11.9767L16.0036 12.0233ZM15.7226 13.5308C15.9204 13.0371 16.016 12.5084 16.0036 11.9767L14.0042 12.0233C14.0103 12.2846 13.9633 12.5444 13.8661 12.787L15.7226 13.5308ZM14.8529 14.849C15.229 14.4729 15.5248 14.0245 15.7226 13.5308L13.8661 12.787C13.7689 13.0296 13.6235 13.25 13.4387 13.4348L14.8529 14.849ZM13.5347 15.7187C14.0284 15.5209 14.4768 15.2251 14.8529 14.849L13.4387 13.4348C13.2539 13.6196 13.0335 13.765 12.7909 13.8622L13.5347 15.7187ZM11.9806 15.9997C12.5123 16.0121 13.041 15.9165 13.5347 15.7187L12.7909 13.8622C12.5483 13.9594 12.2885 14.0064 12.0272 14.0003L11.9806 15.9997ZM10.4731 15.7187C10.9668 15.9165 11.4955 16.0121 12.0272 15.9997L11.9806 14.0003C11.7193 14.0064 11.4595 13.9594 11.2169 13.8622L10.4731 15.7187ZM9.15492 14.849C9.53098 15.2251 9.97943 15.5209 10.4731 15.7187L11.2169 13.8622C10.9743 13.765 10.7539 13.6196 10.5691 13.4348L9.15492 14.849ZM8.28518 13.5308C8.48297 14.0245 8.77885 14.4729 9.15491 14.849L10.5691 13.4348C10.3843 13.25 10.2389 13.0296 10.1417 12.787L8.28518 13.5308ZM8.00418 11.9767C7.99179 12.5084 8.08739 13.0371 8.28518 13.5308L10.1417 12.787C10.0445 12.5444 9.99755 12.2846 10.0036 12.0233L8.00418 11.9767ZM8.28518 10.4692C8.08739 10.9629 7.99179 11.4916 8.00418 12.0233L10.0036 11.9767C9.99755 11.7154 10.0445 11.4556 10.1417 11.213L8.28518 10.4692ZM9.15491 9.15101C8.77885 9.52708 8.48297 9.97552 8.28518 10.4692L10.1417 11.213C10.2389 10.9704 10.3843 10.75 10.5691 10.5652L9.15491 9.15101ZM10.4731 8.28127C9.97943 8.47906 9.53098 8.77494 9.15492 9.15101L10.5691 10.5652C10.7539 10.3804 10.9743 10.235 11.2169 10.1378L10.4731 8.28127Z" fill="white" mask="url(#path-1-inside-1_965_3774)"/>
</svg>
