<svg width="24" height="24" viewBox="0 0 24 24" fill="none" xmlns="http://www.w3.org/2000/svg">
<g clip-path="url(#clip0_965_24173)">
<path d="M24.0032 9.42024C24.0037 9.09442 23.9179 8.77428 23.7546 8.49236C23.5912 8.21045 23.3561 7.97682 23.0732 7.81524L12.9632 1.81524C12.6718 1.64524 12.3405 1.55566 12.0032 1.55566C11.6659 1.55566 11.3346 1.64524 11.0432 1.81524L0.918199 7.81524C0.638406 7.98126 0.406627 8.21722 0.24564 8.49994C0.0846534 8.78266 0 9.1024 0 9.42774C0 9.75308 0.0846534 10.0728 0.24564 10.3555C0.406627 10.6383 0.638406 10.8742 0.918199 11.0402L3.7982 12.7202V16.9352C3.79993 17.2647 3.88639 17.5881 4.04926 17.8744C4.21214 18.1608 4.44594 18.4004 4.7282 18.5702L11.1032 22.2452C11.3878 22.4028 11.7078 22.4855 12.0332 22.4855C12.3585 22.4855 12.6786 22.4028 12.9632 22.2452L19.3382 18.5702C19.6205 18.4004 19.8543 18.1608 20.0171 17.8744C20.18 17.5881 20.2665 17.2647 20.2682 16.9352V12.6752L22.1282 11.5802V15.6602H24.0032V9.42024ZM18.4082 16.9202L12.0032 20.6102L5.6732 16.9352V13.8302L11.0432 17.0252C11.3356 17.1923 11.6665 17.2802 12.0032 17.2802C12.3399 17.2802 12.6708 17.1923 12.9632 17.0252L18.3932 13.7852L18.4082 16.9202ZM12.0032 15.4052L1.8782 9.40524L12.0032 3.39024L22.1282 9.39024L12.0032 15.4052Z" fill="#FFFFFF"/>
</g>
<defs>
<clipPath id="clip0_965_24173">
<rect width="24" height="24" fill="white"/>
</clipPath>
</defs>
</svg>
