<svg width="24" height="25" viewBox="0 0 24 25" fill="none" xmlns="http://www.w3.org/2000/svg">
<g id="icon24/user" clip-path="url(#clip0_1237_54609)">
<path id="Vector" d="M20.6703 4.05405C18.4051 1.68967 15.2709 0.355324 11.9965 0.361348C5.3794 0.353014 0.00834381 5.71052 9.49964e-06 12.3277C-0.00410745 15.5997 1.33009 18.731 3.69271 20.9945C3.69959 21.0014 3.70215 21.0117 3.70898 21.0177C3.77836 21.0845 3.85377 21.1411 3.92406 21.2054C4.11686 21.3767 4.30965 21.5541 4.51274 21.7195C4.62154 21.8052 4.73465 21.8908 4.84606 21.9697C5.038 22.1127 5.22994 22.2558 5.43042 22.3878C5.56668 22.4735 5.7072 22.5592 5.84683 22.6449C6.03189 22.7563 6.21615 22.8685 6.40724 22.9705C6.5692 23.0562 6.73453 23.1298 6.89906 23.2078C7.079 23.2935 7.25638 23.3792 7.44059 23.4563C7.6248 23.5334 7.80991 23.5934 7.99668 23.6602C8.18345 23.727 8.34456 23.7887 8.52365 23.8436C8.72588 23.9044 8.93323 23.9515 9.13888 24.0021C9.31024 24.044 9.47647 24.092 9.653 24.1263C9.88947 24.1735 10.1294 24.2035 10.3693 24.236C10.5176 24.2566 10.6624 24.2857 10.8123 24.3003C11.2048 24.3389 11.6006 24.3603 11.9999 24.3603C12.3992 24.3603 12.7951 24.3389 13.1875 24.3003C13.3375 24.2857 13.4823 24.2566 13.6305 24.236C13.8704 24.2035 14.1103 24.1735 14.3468 24.1263C14.5182 24.092 14.6896 24.0406 14.8609 24.0021C15.0666 23.9515 15.2739 23.9044 15.4762 23.8436C15.6553 23.7887 15.8283 23.7219 16.0031 23.6602C16.178 23.5985 16.3767 23.5317 16.5592 23.4563C16.7417 23.3809 16.9208 23.2926 17.1008 23.2078C17.2653 23.1298 17.4307 23.0561 17.5926 22.9705C17.7837 22.8685 17.9679 22.7562 18.153 22.6449C18.2927 22.5592 18.4332 22.4812 18.5694 22.3878C18.7699 22.2559 18.9619 22.1128 19.1538 21.9697C19.2652 21.884 19.3782 21.8068 19.4871 21.7195C19.6902 21.5567 19.883 21.3836 20.0758 21.2054C20.146 21.1411 20.2214 21.0846 20.2908 21.0177C20.2977 21.0117 20.3003 21.0014 20.3071 20.9945C25.0855 16.4168 25.248 8.83227 20.6703 4.05405ZM18.7444 20.0974C18.5884 20.2345 18.4273 20.3647 18.2645 20.4907C18.1686 20.5644 18.0726 20.6372 17.9741 20.7075C17.819 20.8198 17.6613 20.926 17.5011 21.028C17.3845 21.1025 17.2654 21.1745 17.1454 21.2448C16.9946 21.3305 16.8412 21.4161 16.6862 21.5018C16.549 21.5721 16.4094 21.6381 16.2689 21.7032C16.1284 21.7683 15.9733 21.8377 15.8216 21.8986C15.6699 21.9594 15.5089 22.0168 15.3503 22.0699C15.2055 22.1196 15.0607 22.171 14.9142 22.2147C14.7428 22.2661 14.5637 22.3081 14.3863 22.351C14.2475 22.3835 14.1104 22.4204 13.9699 22.4478C13.7668 22.4872 13.5595 22.5146 13.3513 22.5429C13.233 22.5583 13.1157 22.5798 12.9965 22.5918C12.6675 22.6234 12.3341 22.6423 11.9974 22.6423C11.6607 22.6423 11.3273 22.6235 10.9983 22.5918C10.8792 22.5798 10.7618 22.5583 10.6435 22.5429C10.4353 22.5146 10.228 22.4872 10.0249 22.4478C9.88435 22.4204 9.74724 22.3836 9.60847 22.351C9.43108 22.3081 9.25456 22.2653 9.08064 22.2147C8.93414 22.171 8.78929 22.1196 8.6445 22.0699C8.48599 22.0151 8.32744 21.9594 8.17321 21.8986C8.01897 21.8377 7.87332 21.7709 7.72591 21.7032C7.57851 21.6355 7.44571 21.5721 7.30865 21.5018C7.15356 21.4213 7.00018 21.3364 6.84936 21.2448C6.72941 21.1745 6.61027 21.1025 6.49374 21.028C6.33353 20.926 6.17583 20.8198 6.02075 20.7075C5.92219 20.6373 5.82624 20.5644 5.73025 20.4907C5.56743 20.3647 5.40637 20.2337 5.25042 20.0974C5.21272 20.0691 5.17843 20.0331 5.14163 20.0005C5.17993 17.0857 7.05249 14.5119 9.81411 13.5784C11.1949 14.2352 12.7981 14.2352 14.179 13.5784C16.9405 14.5119 18.8131 17.0856 18.8515 20.0005C18.8155 20.0331 18.7812 20.0657 18.7444 20.0974ZM9.00859 7.23153C9.93636 5.58154 12.026 4.99608 13.676 5.92385C15.326 6.85162 15.9115 8.94127 14.9837 10.5913C14.6759 11.1387 14.2235 11.5911 13.676 11.8989C13.6717 11.8989 13.6666 11.8989 13.6614 11.9041C13.4342 12.0305 13.1941 12.1323 12.9451 12.2074C12.9006 12.2203 12.8594 12.2374 12.8123 12.2485C12.7266 12.2708 12.6366 12.2862 12.5484 12.3017C12.3822 12.3307 12.214 12.3476 12.0454 12.3522H11.9477C11.7791 12.3476 11.6109 12.3307 11.4447 12.3017C11.359 12.2862 11.2682 12.2708 11.1808 12.2485C11.1354 12.2374 11.0951 12.2203 11.048 12.2074C10.7991 12.1323 10.5589 12.0306 10.3317 11.9041L10.3163 11.8989C8.66629 10.9712 8.08083 8.88152 9.00859 7.23153ZM20.3715 18.3015C19.8217 15.7367 18.1328 13.5624 15.7839 12.3951C17.704 10.3035 17.565 7.05124 15.4733 5.13108C13.3816 3.21093 10.1294 3.35 8.20925 5.44166C6.40412 7.40806 6.40412 10.4288 8.20925 12.3951C5.86033 13.5625 4.17148 15.7367 3.62162 18.3015C0.335892 13.6733 1.42417 7.25774 6.05238 3.97201C10.6806 0.686286 17.0961 1.77457 20.3818 6.40277C21.617 8.14258 22.28 10.2237 22.2789 12.3574C22.2789 14.4892 21.612 16.5676 20.3715 18.3015Z" fill="#1A1B22"/>
</g>
<defs>
<clipPath id="clip0_1237_54609">
<rect width="24" height="24" fill="white" transform="translate(0 0.360352)"/>
</clipPath>
</defs>
</svg>
