<svg width="24" height="24" viewBox="0 0 24 24" fill="none" xmlns="http://www.w3.org/2000/svg">
<g id="icon24/ vacation">
<g id="Vector">
<mask id="path-1-inside-1_965_3762" fill="white">
<path fill-rule="evenodd" clip-rule="evenodd" d="M17.5226 5.47354C16.7394 4.68638 15.8065 4.06226 14.7784 3.63759C13.7502 3.21292 12.6474 2.99619 11.5342 3.00005C6.86985 3.00005 3.06834 6.78254 3.06834 11.4235C3.06834 12.911 3.46131 14.356 4.19598 15.631L3 20L7.48492 18.827C8.20119 19.2153 8.96887 19.4984 9.76318 19.6682C11.1638 21.0274 13.0531 21.8627 15.1274 21.8627C16.4356 21.8627 17.7201 21.5235 18.8628 20.8855L23 22L21.8967 17.8489C22.5745 16.6374 22.937 15.2645 22.937 13.8512C22.937 10.952 21.421 8.40536 19.1597 7.00097L19.2842 8.02675C18.8672 7.08615 18.2743 6.2215 17.5226 5.47354ZM15.1274 20.5059C14.1011 20.5059 13.1292 20.2607 12.2654 19.8243C16.5893 19.4537 20 15.828 20 11.432C20 10.6309 19.8887 9.84695 19.6734 9.09781C20.879 10.307 21.6288 11.9919 21.6288 13.8512C21.6279 15.1024 21.2838 16.3281 20.6359 17.3885L20.4783 17.6389L21.1323 20.094L18.6736 19.4318L18.4372 19.5772C17.4364 20.1829 16.2937 20.5059 15.1274 20.5059ZM11.5342 18.4275C10.2698 18.4275 9.03116 18.0875 7.94623 17.45L7.68995 17.297L5.02462 17.994L5.73367 15.41L5.56281 15.1465C4.86039 14.0304 4.48741 12.7404 4.48643 11.4235C4.48643 7.56454 7.64724 4.41955 11.5256 4.41955C13.405 4.41955 15.1734 5.15054 16.4975 6.47654C17.1531 7.12591 17.6727 7.8983 18.0261 8.74894C18.3795 9.59959 18.5597 10.5116 18.5563 11.432C18.5734 15.291 15.4126 18.4275 11.5342 18.4275ZM11 12C11.5523 12 12 11.5523 12 11C12 10.4477 11.5523 10 11 10C10.4477 10 10 10.4477 10 11C10 11.5523 10.4477 12 11 12ZM8 11C8 11.5523 7.55228 12 7 12C6.44772 12 6 11.5523 6 11C6 10.4477 6.44772 10 7 10C7.55228 10 8 10.4477 8 11ZM15 12C15.5523 12 16 11.5523 16 11C16 10.4477 15.5523 10 15 10C14.4477 10 14 10.4477 14 11C14 11.5523 14.4477 12 15 12Z"/>
</mask>
<path fill-rule="evenodd" clip-rule="evenodd" d="M17.5226 5.47354C16.7394 4.68638 15.8065 4.06226 14.7784 3.63759C13.7502 3.21292 12.6474 2.99619 11.5342 3.00005C6.86985 3.00005 3.06834 6.78254 3.06834 11.4235C3.06834 12.911 3.46131 14.356 4.19598 15.631L3 20L7.48492 18.827C8.20119 19.2153 8.96887 19.4984 9.76318 19.6682C11.1638 21.0274 13.0531 21.8627 15.1274 21.8627C16.4356 21.8627 17.7201 21.5235 18.8628 20.8855L23 22L21.8967 17.8489C22.5745 16.6374 22.937 15.2645 22.937 13.8512C22.937 10.952 21.421 8.40536 19.1597 7.00097L19.2842 8.02675C18.8672 7.08615 18.2743 6.2215 17.5226 5.47354ZM15.1274 20.5059C14.1011 20.5059 13.1292 20.2607 12.2654 19.8243C16.5893 19.4537 20 15.828 20 11.432C20 10.6309 19.8887 9.84695 19.6734 9.09781C20.879 10.307 21.6288 11.9919 21.6288 13.8512C21.6279 15.1024 21.2838 16.3281 20.6359 17.3885L20.4783 17.6389L21.1323 20.094L18.6736 19.4318L18.4372 19.5772C17.4364 20.1829 16.2937 20.5059 15.1274 20.5059ZM11.5342 18.4275C10.2698 18.4275 9.03116 18.0875 7.94623 17.45L7.68995 17.297L5.02462 17.994L5.73367 15.41L5.56281 15.1465C4.86039 14.0304 4.48741 12.7404 4.48643 11.4235C4.48643 7.56454 7.64724 4.41955 11.5256 4.41955C13.405 4.41955 15.1734 5.15054 16.4975 6.47654C17.1531 7.12591 17.6727 7.8983 18.0261 8.74894C18.3795 9.59959 18.5597 10.5116 18.5563 11.432C18.5734 15.291 15.4126 18.4275 11.5342 18.4275ZM11 12C11.5523 12 12 11.5523 12 11C12 10.4477 11.5523 10 11 10C10.4477 10 10 10.4477 10 11C10 11.5523 10.4477 12 11 12ZM8 11C8 11.5523 7.55228 12 7 12C6.44772 12 6 11.5523 6 11C6 10.4477 6.44772 10 7 10C7.55228 10 8 10.4477 8 11ZM15 12C15.5523 12 16 11.5523 16 11C16 10.4477 15.5523 10 15 10C14.4477 10 14 10.4477 14 11C14 11.5523 14.4477 12 15 12Z" fill="white"/>
<path d="M14.7784 3.63759L15.1601 2.71333L15.1601 2.71333L14.7784 3.63759ZM17.5226 5.47354L16.8137 6.17887L16.8173 6.18242L17.5226 5.47354ZM11.5342 3.00005V4.00006L11.5376 4.00004L11.5342 3.00005ZM4.19598 15.631L5.16049 15.895L5.27056 15.493L5.06243 15.1318L4.19598 15.631ZM3 20L2.03549 19.736L1.57848 21.4054L3.25303 20.9675L3 20ZM7.48492 18.827L7.9615 17.9479L7.61415 17.7596L7.23189 17.8595L7.48492 18.827ZM9.76318 19.6682L10.4596 18.9506L10.2533 18.7503L9.97218 18.6903L9.76318 19.6682ZM18.8628 20.8855L19.1229 19.9199L18.7303 19.8142L18.3753 20.0124L18.8628 20.8855ZM23 22L22.7399 22.9656L24.411 23.4157L23.9664 21.7431L23 22ZM21.8967 17.8489L21.024 17.3606L20.8262 17.7142L20.9303 18.1057L21.8967 17.8489ZM19.1597 7.00097L19.6873 6.15146L17.9157 5.05128L18.167 7.12145L19.1597 7.00097ZM19.2842 8.02675L18.37 8.43205L20.2769 7.90627L19.2842 8.02675ZM12.2654 19.8243L12.18 18.8279L8.67062 19.1287L11.8145 20.7169L12.2654 19.8243ZM19.6734 9.09781L20.3815 8.39175L18.7123 9.37404L19.6734 9.09781ZM21.6288 13.8512L22.6288 13.8519V13.8512H21.6288ZM20.6359 17.3885L21.4822 17.9213L21.4892 17.9099L20.6359 17.3885ZM20.4783 17.6389L19.632 17.1061L19.3997 17.4751L19.512 17.8963L20.4783 17.6389ZM21.1323 20.094L20.8723 21.0596L22.5444 21.51L22.0986 19.8366L21.1323 20.094ZM18.6736 19.4318L18.9337 18.4662L18.5172 18.354L18.1498 18.5799L18.6736 19.4318ZM18.4372 19.5772L18.955 20.4327L18.961 20.429L18.4372 19.5772ZM7.94623 17.45L7.43362 18.3087L7.43962 18.3122L7.94623 17.45ZM7.68995 17.297L8.20255 16.4384L7.84257 16.2235L7.43695 16.3295L7.68995 17.297ZM5.02462 17.994L4.06027 17.7294L3.60195 19.3997L5.27762 18.9615L5.02462 17.994ZM5.73367 15.41L6.69802 15.6746L6.81668 15.2422L6.57272 14.866L5.73367 15.41ZM5.56281 15.1465L4.71641 15.6792L4.72376 15.6906L5.56281 15.1465ZM4.48643 11.4235H3.48643L3.48643 11.4243L4.48643 11.4235ZM16.4975 6.47654L15.7899 7.18316L15.7938 7.18704L16.4975 6.47654ZM18.0261 8.74894L18.9496 8.36528L18.9496 8.36528L18.0261 8.74894ZM18.5563 11.432L17.5563 11.4283L17.5563 11.4365L18.5563 11.432ZM14.3966 4.56185C15.3025 4.93603 16.1242 5.48581 16.8137 6.17886L18.2315 4.76822C17.3547 3.88696 16.3105 3.1885 15.1601 2.71333L14.3966 4.56185ZM11.5376 4.00004C12.5188 3.99664 13.4907 4.18767 14.3966 4.56185L15.1601 2.71333C14.0098 2.23817 12.776 1.99574 11.5307 2.00006L11.5376 4.00004ZM4.06834 11.4235C4.06834 7.33955 7.4174 4.00005 11.5342 4.00005V2.00005C6.3223 2.00005 2.06834 6.22553 2.06834 11.4235H4.06834ZM5.06243 15.1318C4.41427 14.0069 4.06834 12.7338 4.06834 11.4235H2.06834C2.06834 13.0882 2.50834 14.7051 3.32953 16.1303L5.06243 15.1318ZM3.96451 20.264L5.16049 15.895L3.23147 15.367L2.03549 19.736L3.96451 20.264ZM7.23189 17.8595L2.74697 19.0325L3.25303 20.9675L7.73796 19.7945L7.23189 17.8595ZM9.97218 18.6903C9.27125 18.5405 8.59369 18.2906 7.9615 17.9479L7.00834 19.7061C7.80868 20.14 8.66648 20.4564 9.55419 20.6461L9.97218 18.6903ZM15.1274 20.8627C13.328 20.8627 11.6846 20.1393 10.4596 18.9506L9.06675 20.3858C10.643 21.9155 12.7782 22.8627 15.1274 22.8627V20.8627ZM18.3753 20.0124C17.3794 20.5684 16.2624 20.8627 15.1274 20.8627V22.8627C16.6088 22.8627 18.0608 22.4786 19.3503 21.7586L18.3753 20.0124ZM23.2601 21.0344L19.1229 19.9199L18.6027 21.8511L22.7399 22.9656L23.2601 21.0344ZM20.9303 18.1057L22.0336 22.2569L23.9664 21.7431L22.8632 17.592L20.9303 18.1057ZM21.937 13.8512C21.937 15.0929 21.6186 16.2979 21.024 17.3606L22.7695 18.3371C23.5303 16.977 23.937 15.4361 23.937 13.8512H21.937ZM18.6321 7.85048C20.6068 9.07685 21.937 11.3061 21.937 13.8512H23.937C23.937 10.5979 22.2353 7.73387 19.6873 6.15146L18.6321 7.85048ZM20.2769 7.90627L20.1524 6.8805L18.167 7.12145L18.2915 8.14723L20.2769 7.90627ZM16.8173 6.18242C17.4817 6.84356 18.0035 7.60544 18.37 8.43205L20.1984 7.62145C19.7308 6.56686 19.0669 5.59943 18.2279 4.76467L16.8173 6.18242ZM11.8145 20.7169C12.814 21.2218 13.9399 21.5059 15.1274 21.5059V19.5059C14.2622 19.5059 13.4444 19.2995 12.7162 18.9317L11.8145 20.7169ZM19 11.432C19 15.2996 15.9959 18.5009 12.18 18.8279L12.3508 20.8206C17.1828 20.4065 21 16.3563 21 11.432H19ZM18.7123 9.37404C18.9016 10.0329 19 10.7238 19 11.432H21C21 10.538 20.8757 9.66105 20.6345 8.82159L18.7123 9.37404ZM22.6288 13.8512C22.6288 11.7188 21.7681 9.78243 20.3815 8.39175L18.9652 9.80388C19.99 10.8316 20.6288 12.2649 20.6288 13.8512H22.6288ZM21.4892 17.9099C22.2336 16.6916 22.6278 15.2855 22.6288 13.8519L20.6288 13.8505C20.628 14.9192 20.334 15.9646 19.7826 16.8671L21.4892 17.9099ZM21.3245 18.1716L21.4821 17.9213L19.7896 16.8558L19.632 17.1061L21.3245 18.1716ZM22.0986 19.8366L21.4446 17.3815L19.512 17.8963L20.166 20.3515L22.0986 19.8366ZM18.4136 20.3974L20.8723 21.0596L21.3924 19.1284L18.9337 18.4662L18.4136 20.3974ZM18.961 20.429L19.1974 20.2836L18.1498 18.5799L17.9134 18.7253L18.961 20.429ZM15.1274 21.5059C16.479 21.5059 17.8003 21.1315 18.955 20.4327L17.9194 18.7216C17.0725 19.2342 16.1085 19.5059 15.1274 19.5059V21.5059ZM7.43962 18.3122C8.67711 19.0393 10.0905 19.4275 11.5342 19.4275V17.4275C10.4491 17.4275 9.3852 17.1357 8.45284 16.5878L7.43962 18.3122ZM7.17735 18.1556L7.43363 18.3086L8.45883 16.5914L8.20255 16.4384L7.17735 18.1556ZM5.27762 18.9615L7.94295 18.2645L7.43695 16.3295L4.77163 17.0265L5.27762 18.9615ZM4.76931 15.1454L4.06027 17.7294L5.98898 18.2586L6.69802 15.6746L4.76931 15.1454ZM4.72376 15.6906L4.89461 15.9541L6.57272 14.866L6.40187 14.6025L4.72376 15.6906ZM3.48643 11.4243C3.48755 12.9296 3.91394 14.404 4.71648 15.6792L6.40914 14.6139C5.80683 13.6569 5.48727 12.5511 5.48643 11.4228L3.48643 11.4243ZM11.5256 3.41955C7.09969 3.41955 3.48643 7.00753 3.48643 11.4235H5.48643C5.48643 8.12154 8.19479 5.41955 11.5256 5.41955V3.41955ZM17.2051 5.76993C15.6925 4.25523 13.6693 3.41955 11.5256 3.41955V5.41955C13.1408 5.41955 14.6542 6.04586 15.7899 7.18315L17.2051 5.76993ZM18.9496 8.36528C18.5452 7.39197 17.9509 6.50854 17.2012 5.76604L15.7938 7.18704C16.3554 7.74328 16.8002 8.40462 17.1026 9.13261L18.9496 8.36528ZM19.5563 11.4358C19.5602 10.3823 19.354 9.3386 18.9496 8.36528L17.1026 9.13261C17.4051 9.86058 17.5592 10.6409 17.5563 11.4283L19.5563 11.4358ZM11.5342 19.4275C15.9576 19.4275 19.5758 15.8495 19.5563 11.4276L17.5563 11.4365C17.5709 14.7325 14.8675 17.4275 11.5342 17.4275V19.4275ZM11 11V13C12.1046 13 13 12.1046 13 11H11ZM11 11H13C13 9.89543 12.1046 9 11 9V11ZM11 11V9C9.89543 9 9 9.89543 9 11H11ZM11 11H9C9 12.1046 9.89543 13 11 13V11ZM7 13C8.10457 13 9 12.1046 9 11H7V13ZM5 11C5 12.1046 5.89543 13 7 13V11H5ZM7 9C5.89543 9 5 9.89543 5 11H7V9ZM9 11C9 9.89543 8.10457 9 7 9V11H9ZM15 11V13C16.1046 13 17 12.1046 17 11H15ZM15 11H17C17 9.89543 16.1046 9 15 9V11ZM15 11V9C13.8954 9 13 9.89543 13 11H15ZM15 11H13C13 12.1046 13.8954 13 15 13V11Z" fill="white" mask="url(#path-1-inside-1_965_3762)"/>
</g>
</g>
</svg>
