<svg width="389" height="180" viewBox="0 0 389 180" fill="none" xmlns="http://www.w3.org/2000/svg">
<path d="M107.618 154.625C96.7251 154.625 89.2875 149.722 84.249 139.209L69.2817 145.436C66.9405 146.399 64.3118 146.405 61.967 145.449C59.6222 144.493 57.7529 142.656 56.7658 140.336L45.754 114.169C45.2641 113.018 45.0074 111.782 45.0002 110.531C44.9929 109.28 45.2352 108.042 45.7107 106.885C46.1879 105.727 46.8912 104.676 47.7789 103.792C48.6665 102.906 49.7223 102.205 50.8848 101.727L107.986 77.9731C108.03 77.9533 108.077 77.9443 108.126 77.9443C108.173 77.9443 108.22 77.9551 108.265 77.9731C108.344 78.0126 108.409 78.0917 108.436 78.1834C110.326 85.5357 114.82 91.9624 121.095 96.2829C127.37 100.603 135.003 102.528 142.591 101.701C142.748 101.689 142.867 101.768 142.934 101.897L143.858 104.099C144.831 106.426 144.838 109.041 143.876 111.372C142.914 113.703 141.065 115.561 138.727 116.541L96.2912 134.186C97.0162 142.852 101.21 150.062 107.804 154.007C107.936 154.086 107.988 154.23 107.948 154.374C107.928 154.442 107.887 154.501 107.829 154.544C107.773 154.587 107.703 154.611 107.632 154.611L107.619 154.623L107.618 154.625ZM84.4081 138.461C84.5274 138.461 84.6467 138.526 84.7118 138.645C89.4593 148.712 96.3834 153.603 106.459 153.942C100.194 149.748 96.2641 142.55 95.606 134.002C95.606 133.859 95.6711 133.727 95.8031 133.673L138.463 115.937C140.64 115.031 142.367 113.302 143.262 111.131C144.156 108.96 144.147 106.525 143.238 104.361L142.406 102.383C134.761 103.152 127.092 101.191 120.766 96.8544C114.44 92.5178 109.874 86.0838 107.881 78.7081L51.1361 102.33C50.0532 102.773 49.0679 103.423 48.2399 104.246C47.4119 105.069 46.7574 106.047 46.3127 107.125C45.8679 108.202 45.6438 109.356 45.6528 110.52C45.6618 111.685 45.9023 112.835 46.3615 113.906L57.3732 140.073C58.288 142.235 60.0272 143.948 62.2075 144.841C64.3896 145.733 66.8374 145.729 69.0177 144.832L84.2761 138.486L84.4081 138.459V138.461Z" fill="#0B0B0B"/>
<path d="M72.0654 122.914C72.0654 122.914 71.9461 122.901 71.8936 122.862C71.8213 122.817 71.7689 122.743 71.749 122.66C71.7291 122.578 71.7436 122.49 71.787 122.416L78.0784 112.309C78.1199 112.239 78.1868 112.186 78.2646 112.165C78.3441 112.143 78.4273 112.152 78.4996 112.19C78.6442 112.269 78.7238 112.44 78.6569 112.596C78.2338 113.683 77.3245 116.818 78.1416 118.142C78.3658 118.509 78.722 118.719 79.1974 118.771C80.2514 118.876 81.7953 117.932 83.417 116.149C83.7081 115.835 83.9973 115.493 84.2613 115.166C83.7695 114.246 83.6032 113.189 83.7858 112.165C83.9973 110.12 85.3948 108.639 86.5157 108.587C87.1358 108.56 87.5841 108.953 87.7288 109.661C87.9403 110.736 86.6603 113.123 85.1037 115.168L85.1562 115.208C85.7238 115.718 86.6332 115.849 87.8463 115.601C89.2835 115.299 90.7081 114.054 91.8417 112.585C90.9847 111.511 90.7081 109.584 91.1963 107.985C91.5524 106.818 92.2521 106.071 93.1614 105.86C93.9135 105.69 94.3221 105.939 94.5462 106.162C95.1266 106.791 94.9024 107.997 94.6131 108.889C94.1594 110.179 93.5194 111.397 92.7149 112.506C93.1108 112.808 93.5989 112.9 94.1521 112.756C98.8327 111.602 99.7963 103.199 99.809 103.121C99.8216 102.978 99.9283 102.859 100.073 102.834C100.218 102.807 100.362 102.873 100.429 103.005L103.199 108.405L107.154 99.9619C107.221 99.8307 107.366 99.7516 107.51 99.7786C107.655 99.8056 107.774 99.9224 107.774 100.081C107.787 100.264 108.183 104.577 111.506 104.604H111.546C114.988 104.604 117.521 100.828 117.546 100.789C117.569 100.753 117.6 100.72 117.636 100.697C117.673 100.672 117.714 100.656 117.756 100.647C117.799 100.638 117.842 100.638 117.886 100.647C117.929 100.656 117.969 100.672 118.005 100.697C118.162 100.801 118.202 100.999 118.097 101.155C117.993 101.326 115.34 105.258 111.544 105.258H111.504C108.709 105.231 107.666 102.676 107.31 101.18L103.499 109.295C103.474 109.35 103.432 109.397 103.381 109.43C103.331 109.462 103.271 109.48 103.21 109.478C103.065 109.491 102.973 109.413 102.906 109.295L100.295 104.209C99.8722 106.608 98.4223 112.377 94.2949 113.385C93.5429 113.568 92.8703 113.437 92.3027 113.019C91.0896 114.566 89.5475 115.876 87.9638 116.203C86.5265 116.505 85.431 116.322 84.6934 115.653H84.6807L83.8889 116.572C82.6107 117.961 80.763 119.573 79.1016 119.404C78.402 119.325 77.8885 119.01 77.545 118.473C76.9521 117.503 77.0696 115.955 77.348 114.645L72.3113 122.734C72.2823 122.781 72.2407 122.82 72.1919 122.847C72.1431 122.874 72.0889 122.891 72.0328 122.891L72.06 122.917L72.0654 122.914ZM86.597 109.241H86.5573C85.8178 109.28 84.6445 110.459 84.4601 112.23C84.3553 113.213 84.4475 114.012 84.7241 114.602C86.2535 112.557 87.2425 110.486 87.0978 109.791C86.993 109.293 86.7417 109.241 86.6097 109.241H86.597ZM93.6387 106.475L93.3079 106.514C92.3985 106.71 91.9899 107.641 91.8308 108.179C91.4349 109.489 91.6193 111.088 92.2539 112.034C92.9842 111.011 93.5664 109.89 93.9822 108.703C94.3112 107.693 94.3383 106.921 94.0617 106.619C93.9695 106.514 93.8249 106.475 93.6405 106.475H93.6387ZM142.63 102.043C134.965 102.861 127.261 100.911 120.923 96.5455C114.586 92.1819 110.041 85.6958 108.118 78.2752L118.71 73.8721C119.43 75.4518 120.279 76.9722 121.252 78.4208C123.595 81.9073 126.605 84.9014 130.111 87.2306C132.553 88.8535 135.205 90.1313 137.988 91.0335L142.628 102.043H142.63Z" fill="#0B0B0B"/>
<path d="M139.174 102.554C131.984 102.561 124.995 100.185 119.313 95.8021C113.631 91.4187 109.581 85.2813 107.802 78.3531C107.784 78.2776 107.793 78.1967 107.829 78.1267C107.865 78.0566 107.925 78.0027 107.999 77.9739L118.579 73.5762C118.665 73.7721 118.754 73.9662 118.844 74.1603L108.513 78.4591V78.4717C110.434 85.6857 114.873 91.9866 121.034 96.2513C127.195 100.516 134.68 102.466 142.153 101.754L137.578 90.8975C137.856 90.9928 138.136 91.0826 138.416 91.1707L142.945 101.913C142.985 102.004 142.972 102.123 142.918 102.2C142.891 102.245 142.855 102.281 142.811 102.308C142.768 102.335 142.717 102.353 142.667 102.356C141.441 102.488 140.306 102.54 139.172 102.54V102.552L139.174 102.554Z" fill="#0B0B0B"/>
<path d="M179.408 108.415H179.395C169.98 107.929 161.407 101.558 156.988 91.778L154.298 92.3153C145.861 93.9598 137.112 92.2183 129.964 87.4701C122.816 82.7219 117.848 75.3534 116.147 66.9749C114.458 58.5317 116.174 49.9322 120.986 42.7739C123.344 39.246 126.381 36.2178 129.924 33.8635C133.466 31.5091 137.443 29.8773 141.623 29.0614L217.781 13.9991C226.212 12.3367 234.963 14.0692 242.112 18.8138C249.26 23.5601 254.221 30.934 255.906 39.3125C257.574 47.6982 255.83 56.3985 251.053 63.5064C246.277 70.6142 238.859 75.5475 230.427 77.2261L199.851 83.2737L199.782 82.6393L230.308 76.5989C238.568 74.9527 245.834 70.1164 250.511 63.1523C255.188 56.1864 256.896 47.6623 255.259 39.4473C253.599 31.2431 248.738 24.0256 241.738 19.3781C234.737 14.7287 226.172 13.0268 217.912 14.6443L141.753 29.7065C137.657 30.5027 133.761 32.0986 130.291 34.4026C126.822 36.7066 123.846 39.6738 121.538 43.1298C119.209 46.5732 117.591 50.439 116.776 54.5078C115.96 58.5767 115.966 62.7641 116.79 66.8312C118.452 75.0407 123.317 82.2619 130.32 86.9148C137.324 91.5677 145.897 93.2732 154.162 91.6594L157.117 91.0699H157.183H157.171C157.303 91.0699 157.422 91.149 157.475 91.2658C161.615 100.6 169.58 106.813 178.417 107.678C173.259 103.142 170.055 96.7185 169.119 89.0103C169.108 88.9294 169.13 88.845 169.179 88.7803C169.227 88.7138 169.302 88.6706 169.383 88.6563L180.539 86.4547C180.698 83.5846 181.027 81.0811 181.528 78.7861C183.414 70.2261 189.89 66.6083 193.661 66.8689C195.098 66.9606 196.087 67.3811 196.694 68.1269C196.987 68.4918 197.184 68.9231 197.307 69.4245C196.326 67.7082 194.852 66.9641 192.446 67.2355C191.318 67.3631 190.24 67.834 189.28 68.6643C186.303 70.3231 183.287 73.7486 182.147 78.9029C181.608 81.4765 181.282 84.0896 181.17 86.7171C181.17 86.8609 181.051 86.9921 180.906 87.019L169.802 89.208C170.818 96.9952 174.194 103.418 179.601 107.809C179.706 107.901 179.746 108.044 179.706 108.176C179.682 108.237 179.641 108.289 179.587 108.327C179.532 108.364 179.467 108.384 179.404 108.386V108.413L179.408 108.415ZM199.853 83.2737C198.808 79.3989 198.833 71.7968 196.156 68.5223C195.668 67.9185 194.85 67.5914 193.598 67.5123C192.345 67.4224 190.821 67.8088 189.284 68.6661C190.244 67.8358 191.32 67.3649 192.45 67.2373C194.856 66.9659 196.329 67.71 197.311 69.4263C198.918 75.9897 199.155 76.7624 199.855 83.2737H199.853Z" fill="#0B0B0B"/>
<path d="M180.502 87.125L180.529 86.7063C180.688 83.7301 181.017 81.135 181.531 78.7878C183.416 70.2404 189.878 66.6083 193.663 66.8706C191.671 67.3828 183.769 68.0262 185.539 86.1851C183.805 86.4978 182.089 86.8123 180.596 87.1052L180.502 87.1232V87.125ZM185.539 86.1869C183.201 62.2105 183.201 62.2105 185.539 86.1869Z" fill="#0B0B0B"/>
<path d="M273.092 106.814C273.608 106.814 274.099 106.611 274.464 106.25C274.828 105.889 275.032 105.398 275.032 104.888C275.032 104.377 274.828 103.886 274.464 103.525C274.101 103.164 273.608 102.961 273.092 102.961C272.577 102.961 272.085 103.164 271.722 103.525C271.359 103.886 271.154 104.377 271.154 104.888C271.154 105.4 271.359 105.889 271.722 106.25C272.085 106.611 272.577 106.814 273.092 106.814Z" fill="#0B0B0B"/>
<path d="M273.093 107.143C272.493 107.143 271.916 106.906 271.49 106.482C271.063 106.059 270.824 105.486 270.824 104.887C270.824 104.289 271.063 103.716 271.49 103.293C271.916 102.871 272.491 102.634 273.093 102.634C273.695 102.634 274.272 102.871 274.697 103.293C275.122 103.716 275.362 104.289 275.362 104.887C275.362 105.486 275.123 106.059 274.697 106.482C274.272 106.904 273.695 107.143 273.093 107.143ZM273.093 103.288C272.209 103.288 271.484 104.009 271.484 104.887C271.484 105.766 272.209 106.487 273.093 106.487C273.977 106.487 274.702 105.766 274.702 104.887C274.702 104.009 273.977 103.288 273.093 103.288ZM285.699 109.201C286.215 109.201 286.706 108.998 287.072 108.636C287.435 108.275 287.639 107.785 287.639 107.274C287.639 106.762 287.435 106.273 287.072 105.912C286.708 105.551 286.215 105.348 285.699 105.348C285.186 105.348 284.692 105.551 284.329 105.912C283.966 106.273 283.761 106.764 283.761 107.274C283.761 107.785 283.966 108.275 284.329 108.636C284.692 108.998 285.186 109.201 285.699 109.201Z" fill="#0B0B0B"/>
<path d="M285.702 109.53C285.404 109.53 285.109 109.472 284.835 109.359C284.56 109.246 284.309 109.081 284.099 108.87C283.887 108.662 283.719 108.412 283.607 108.139C283.493 107.866 283.434 107.573 283.434 107.276C283.434 106.98 283.491 106.687 283.607 106.413C283.721 106.14 283.887 105.891 284.099 105.682C284.309 105.472 284.558 105.306 284.835 105.193C285.109 105.08 285.404 105.022 285.702 105.022C286.304 105.022 286.879 105.26 287.306 105.684C287.733 106.106 287.971 106.679 287.971 107.278C287.971 107.876 287.733 108.45 287.306 108.872C286.881 109.294 286.304 109.533 285.702 109.533V109.53ZM285.702 105.677C284.818 105.677 284.093 106.397 284.093 107.276C284.093 108.155 284.818 108.876 285.702 108.876C286.587 108.876 287.311 108.155 287.311 107.276C287.311 106.397 286.587 105.677 285.702 105.677ZM298.309 111.589C298.564 111.589 298.815 111.539 299.05 111.442C299.287 111.345 299.5 111.203 299.679 111.025C299.86 110.845 300.003 110.633 300.1 110.4C300.198 110.166 300.249 109.914 300.249 109.661C300.249 109.408 300.198 109.158 300.1 108.924C300.003 108.691 299.86 108.478 299.679 108.299C299.5 108.119 299.287 107.977 299.05 107.882C298.815 107.785 298.564 107.734 298.309 107.734C297.794 107.734 297.302 107.938 296.938 108.299C296.575 108.66 296.371 109.151 296.371 109.661C296.371 110.173 296.575 110.662 296.938 111.023C297.302 111.385 297.795 111.588 298.309 111.588V111.589Z" fill="#0B0B0B"/>
<path d="M298.308 111.916C297.707 111.916 297.131 111.679 296.704 111.255C296.277 110.832 296.039 110.259 296.039 109.66C296.039 109.062 296.277 108.489 296.704 108.066C297.129 107.644 297.706 107.405 298.308 107.405C298.91 107.405 299.486 107.642 299.911 108.066C300.336 108.489 300.577 109.062 300.577 109.66C300.577 110.259 300.338 110.832 299.911 111.255C299.486 111.677 298.91 111.916 298.308 111.916ZM298.308 108.061C297.424 108.061 296.699 108.782 296.699 109.66C296.699 110.539 297.424 111.26 298.308 111.26C299.192 111.26 299.917 110.539 299.917 109.66C299.917 108.782 299.192 108.061 298.308 108.061ZM84.8958 91.3848C85.7871 91.3848 86.6422 91.0325 87.2732 90.4053C87.9041 89.7781 88.2585 88.928 88.2585 88.042C88.2585 87.156 87.9041 86.3059 87.2732 85.6787C86.6422 85.0515 85.7871 84.6992 84.8958 84.6992C84.0046 84.6992 83.1476 85.0515 82.5185 85.6787C81.8875 86.3059 81.5332 87.156 81.5332 88.042C81.5332 88.928 81.8875 89.7781 82.5185 90.4053C83.1494 91.0325 84.0046 91.3848 84.8958 91.3848Z" fill="#0B0B0B"/>
<path d="M84.8948 91.7132C83.9149 91.7132 82.9766 91.3268 82.2842 90.6385C81.5918 89.9501 81.2031 89.0174 81.2031 88.0433C81.2031 87.071 81.5918 86.1365 82.2842 85.4482C82.9766 84.7598 83.9167 84.3734 84.8948 84.3734C85.8729 84.3734 86.8129 84.7598 87.5054 85.4482C88.1978 86.1365 88.5865 87.071 88.5865 88.0433C88.5865 89.0174 88.1978 89.9501 87.5054 90.6385C86.8129 91.3268 85.8729 91.7132 84.8948 91.7132ZM291.344 36.9671L289.222 29.9005L291.214 29.586L292.44 33.6495L299.653 28.2867L301.064 29.7424L291.344 36.9653V36.9671ZM84.8948 85.0276C84.4953 85.0276 84.1011 85.1049 83.7341 85.2577C83.3653 85.4086 83.0327 85.6315 82.7489 85.9118C82.4668 86.1922 82.2445 86.5247 82.0908 86.8913C81.9389 87.2561 81.8594 87.6497 81.8594 88.0451C81.8594 88.4405 81.9389 88.8341 82.0908 89.1989C82.2426 89.5637 82.4668 89.8962 82.7489 90.1766C83.0309 90.4569 83.3653 90.6798 83.7341 90.8308C84.1011 90.9817 84.4971 91.0608 84.8948 91.0608C85.6993 91.0608 86.4694 90.7427 87.0389 90.1766C87.6084 89.6105 87.9284 88.8449 87.9284 88.0451C87.9284 87.2454 87.6084 86.4798 87.0389 85.9136C86.4694 85.3475 85.6993 85.0312 84.8948 85.0312V85.0276ZM294.271 42.8152C297.108 42.8152 299.829 41.6955 301.834 39.7006C303.839 37.7075 304.965 35.0028 304.965 32.183C304.965 29.3632 303.839 26.6602 301.834 24.6653C299.829 22.6704 297.108 21.5508 294.271 21.5508C291.435 21.5508 288.714 22.6704 286.709 24.6653C284.702 26.6584 283.576 29.3632 283.576 32.183C283.576 35.0028 284.704 37.7075 286.709 39.7006C288.714 41.6937 291.435 42.8152 294.271 42.8152Z" fill="#0B0B0B"/>
<path d="M272.025 81.0435C269.765 85.0656 266.652 88.5522 262.902 91.2587C259.151 93.9671 254.854 95.8308 250.305 96.7222L243.725 98.0198L246.125 85.4879C246.583 83.0977 247.975 80.986 249.998 79.6165C252.021 78.2471 254.509 77.7331 256.913 78.186L272.025 81.0435Z" fill="#0B0B0B"/>
<path d="M243.725 98.3463C243.638 98.3445 243.553 98.3121 243.488 98.2546C243.452 98.2169 243.423 98.1719 243.409 98.1216C243.392 98.0713 243.389 98.0192 243.396 97.9671L245.795 85.4352C246.27 82.9623 247.713 80.7769 249.808 79.3589C251.902 77.9409 254.476 77.4054 256.966 77.8709L272.08 80.7284C272.185 80.7554 272.277 80.82 272.316 80.9117C272.336 80.9584 272.347 81.0106 272.347 81.0627C272.347 81.1148 272.336 81.1651 272.316 81.2136C270.03 85.2753 266.884 88.7942 263.095 91.5277C259.305 94.2613 254.965 96.1465 250.373 97.0505L243.792 98.3481H243.727L243.725 98.3463ZM255.185 78.3543C253.113 78.3579 251.108 79.0786 249.512 80.3905C247.916 81.7043 246.831 83.5284 246.442 85.5521L244.134 97.613L250.241 96.4071C254.663 95.5337 258.848 93.7347 262.516 91.1287C266.184 88.5228 269.25 85.1693 271.512 81.2927L256.847 78.5268C256.299 78.4226 255.744 78.3705 255.185 78.3705V78.3579V78.3543ZM138.344 45.6849C138.268 45.6867 138.196 45.6598 138.136 45.6112C138.079 45.5627 138.041 45.4962 138.028 45.4225C138.017 45.3812 138.017 45.3363 138.026 45.2949C138.035 45.2518 138.051 45.2123 138.077 45.1763C138.102 45.1404 138.133 45.1098 138.171 45.0883C138.207 45.0649 138.248 45.0505 138.292 45.0433L227.031 27.5027C227.216 27.4632 227.387 27.5818 227.413 27.7651C227.422 27.8064 227.423 27.8514 227.414 27.8945C227.407 27.9376 227.389 27.9772 227.364 28.0131C227.34 28.0491 227.308 28.0796 227.27 28.1012C227.234 28.1246 227.192 28.1389 227.149 28.1461L138.409 45.6867H138.344V45.6849ZM139.914 53.5908C139.838 53.5926 139.765 53.5656 139.707 53.5171C139.65 53.4686 139.61 53.4021 139.597 53.3284C139.588 53.2853 139.586 53.2421 139.595 53.199C139.604 53.1559 139.621 53.1163 139.646 53.0804C139.671 53.0444 139.702 53.0139 139.74 52.9923C139.776 52.9689 139.82 52.9546 139.861 52.9474L228.6 35.3942C228.785 35.3547 228.957 35.4733 228.984 35.6566C228.993 35.6979 228.994 35.7429 228.985 35.7842C228.978 35.8273 228.96 35.8669 228.935 35.9028C228.911 35.9387 228.879 35.9693 228.841 35.9909C228.805 36.0142 228.763 36.0286 228.72 36.0358L139.98 53.589H139.915L139.914 53.5908ZM141.495 61.4948C141.419 61.4966 141.347 61.4697 141.289 61.4211C141.231 61.3726 141.192 61.3061 141.179 61.2324C141.17 61.1911 141.168 61.1462 141.177 61.103C141.186 61.0599 141.203 61.0204 141.228 60.9844C141.253 60.9485 141.284 60.9179 141.322 60.8946C141.358 60.8712 141.401 60.8568 141.443 60.8514L230.182 43.2983C230.367 43.2587 230.538 43.3773 230.566 43.5606C230.575 43.6038 230.576 43.6469 230.567 43.69C230.56 43.7332 230.542 43.7727 230.517 43.8087C230.493 43.8446 230.461 43.8752 230.423 43.8985C230.387 43.9219 230.345 43.9363 230.302 43.9416L141.562 61.4948H141.497H141.495ZM143.077 69.3989C143.001 69.4007 142.929 69.3737 142.871 69.3252C142.813 69.2767 142.774 69.2102 142.761 69.1365C142.752 69.0952 142.75 69.0502 142.759 69.0089C142.768 68.9658 142.784 68.9262 142.81 68.8903C142.835 68.8543 142.866 68.8238 142.904 68.8022C142.94 68.7789 142.983 68.7645 143.025 68.7573L231.764 51.2041C231.949 51.1646 232.12 51.2832 232.147 51.4665C232.156 51.5096 232.158 51.5528 232.149 51.5959C232.142 51.639 232.124 51.6786 232.099 51.7145C232.075 51.7504 232.043 51.781 232.005 51.8026C231.968 51.8259 231.927 51.8403 231.883 51.8475L143.144 69.4007H143.079L143.077 69.3989ZM201.22 66.1082C201.144 66.1082 201.07 66.0813 201.01 66.0345C200.951 65.9878 200.907 65.9213 200.891 65.8476C200.882 65.8063 200.88 65.7614 200.889 65.72C200.897 65.6769 200.915 65.6374 200.94 65.6014C200.963 65.5655 200.996 65.5349 201.034 65.5134C201.07 65.49 201.112 65.4756 201.155 65.4684L233.346 59.0974C233.53 59.0578 233.702 59.1765 233.729 59.3598C233.738 59.4029 233.74 59.446 233.731 59.4892C233.724 59.5323 233.706 59.5718 233.68 59.6078C233.657 59.6437 233.624 59.6743 233.586 59.6958C233.55 59.7192 233.509 59.7336 233.465 59.7408L201.274 66.1118H201.209H201.222L201.22 66.1082ZM144.659 77.2904C144.583 77.2922 144.511 77.2652 144.453 77.2167C144.395 77.1682 144.355 77.1017 144.343 77.028C144.334 76.9866 144.332 76.9417 144.341 76.9004C144.35 76.8572 144.366 76.8177 144.392 76.7818C144.417 76.7458 144.448 76.7153 144.486 76.6937C144.522 76.6703 144.565 76.656 144.607 76.6488L181.874 69.2803C182.046 69.2407 182.23 69.3593 182.256 69.5427C182.265 69.5858 182.266 69.6289 182.257 69.6721C182.25 69.7152 182.232 69.7547 182.207 69.7907C182.183 69.8266 182.151 69.8572 182.113 69.8787C182.077 69.9021 182.035 69.9165 181.992 69.9237L144.724 77.2904H144.659Z" fill="#0B0B0B"/>
<path d="M200.642 177.975C200.58 177.976 200.521 177.958 200.468 177.926C200.418 177.894 200.376 177.845 200.351 177.791C200.324 177.727 197.133 171.368 191.78 164.76C188.889 161.158 185.752 157.76 182.39 154.586C181.321 153.603 180.016 152.384 178.354 150.81C174.599 147.226 171.016 143.47 167.619 139.549C165.602 137.281 163.703 135.144 161.751 133.205C160.722 132.182 159.495 131.147 158.321 130.151C154.181 126.65 149.895 123.033 151.82 118.47C152.128 117.666 152.637 116.955 153.299 116.401C153.961 115.847 154.754 115.472 155.604 115.31C159.243 114.575 164.452 117.093 169.53 122.035C176.731 129.035 182.362 130.149 187.255 125.536C191.975 121.104 189.918 111.234 187.728 100.785C186.264 93.7977 184.762 86.5748 184.998 80.1246C185.275 72.35 188.059 67.4203 192.423 66.9225C194.097 66.7391 195.404 67.0267 196.393 67.8139C198.754 69.7009 199.228 74.1328 200.007 81.4869L200.112 82.47C200.56 86.6251 200.891 89.5743 201.246 92.1443C206.613 91.8423 210.569 93.4418 213.022 96.9032C220.539 95.9992 223.493 99.3672 224.627 102.475C225.93 102.602 227.194 102.992 228.34 103.621C229.488 104.25 230.495 105.104 231.3 106.132C235.494 111.322 236.588 121.917 234.57 137.608C231.932 158.204 242.536 174.197 242.64 174.355C242.745 174.499 242.706 174.709 242.548 174.813C242.512 174.838 242.471 174.855 242.429 174.864C242.386 174.871 242.34 174.871 242.299 174.864C242.255 174.855 242.214 174.837 242.179 174.813C242.143 174.788 242.113 174.758 242.089 174.72C241.984 174.562 231.236 158.373 233.912 137.529C235.903 122.021 234.861 111.599 230.786 106.551C230.014 105.566 229.045 104.75 227.939 104.158C226.834 103.567 225.616 103.211 224.363 103.116L224.151 103.089L224.086 102.893C222.597 98.5926 218.838 96.8098 212.917 97.5844L212.72 97.6113L212.601 97.4406C210.252 94.0062 206.349 92.4588 200.984 92.8254L200.68 92.8524L200.64 92.5504C200.271 89.8888 199.928 86.8749 199.467 82.549L199.362 81.566C198.624 74.6306 198.136 70.0568 195.999 68.3386C195.142 67.6575 194.034 67.4203 192.517 67.591C188.495 68.0493 185.937 72.7436 185.673 80.1642C185.434 86.5478 186.938 93.7186 188.39 100.667C190.605 111.299 192.702 121.34 187.717 126.02C182.509 130.922 176.586 129.808 169.069 122.519C164.15 117.734 159.166 115.281 155.724 115.977C154.979 116.115 154.284 116.444 153.704 116.928C153.124 117.413 152.679 118.038 152.413 118.743C150.672 122.858 154.774 126.32 158.73 129.677C159.916 130.687 161.156 131.735 162.199 132.77C164.164 134.723 166.075 136.873 168.093 139.141C171.06 142.471 174.41 146.245 178.788 150.363L182.823 154.126C187.426 158.4 187.504 158.479 192.279 164.364C195.589 168.46 198.487 172.869 200.929 177.527C201.009 177.683 200.929 177.881 200.785 177.96C200.739 177.985 200.689 178 200.64 178V177.975H200.642Z" fill="#0B0B0B"/>
<path d="M205.337 108.848C205.271 108.846 205.21 108.826 205.156 108.792C205.103 108.758 205.06 108.707 205.033 108.65C205.02 108.61 203.437 105.188 202.091 100.05C201.498 97.7822 201.05 95.462 200.614 92.5254C200.607 92.4841 200.607 92.4392 200.618 92.3978C200.627 92.3565 200.645 92.3169 200.672 92.2828C200.699 92.2487 200.732 92.2199 200.768 92.1983C200.806 92.1768 200.848 92.1642 200.891 92.1588C201.075 92.1318 201.235 92.263 201.26 92.4338C201.681 95.3434 202.129 97.6384 202.724 99.8795C204.042 104.966 205.599 108.335 205.611 108.375C205.691 108.533 205.611 108.729 205.452 108.808C205.413 108.835 205.36 108.835 205.308 108.835L205.335 108.848H205.337Z" fill="#0B0B0B"/>
<path d="M215.345 109.162H215.305C215.22 109.15 215.141 109.103 215.088 109.037C215.034 108.968 215.009 108.882 215.016 108.796C215.016 108.731 215.808 102.123 212.576 97.4302C212.55 97.3943 212.532 97.3547 212.523 97.3134C212.512 97.2721 212.51 97.2271 212.519 97.184C212.527 97.1409 212.543 97.1013 212.566 97.0636C212.59 97.0277 212.621 96.9953 212.657 96.9701C212.693 96.945 212.733 96.9288 212.776 96.9198C212.82 96.9108 212.863 96.9108 212.906 96.9198C212.948 96.9288 212.99 96.945 213.026 96.9701C213.062 96.9953 213.093 97.0259 213.116 97.0618C216.479 101.965 215.701 108.598 215.662 108.873C215.653 108.952 215.613 109.026 215.553 109.08C215.492 109.132 215.414 109.162 215.333 109.161H215.345V109.162Z" fill="#0B0B0B"/>
<path d="M224.749 111.494H224.683C224.641 111.485 224.599 111.467 224.563 111.442C224.527 111.417 224.498 111.387 224.473 111.349C224.451 111.313 224.435 111.272 224.428 111.228C224.42 111.185 224.422 111.142 224.431 111.101C224.431 111.061 225.393 106.656 224.088 102.895C224.061 102.814 224.066 102.724 224.104 102.647C224.142 102.57 224.205 102.508 224.287 102.476C224.458 102.424 224.643 102.503 224.708 102.672C226.08 106.619 225.116 111.049 225.077 111.246C225.062 111.32 225.022 111.385 224.965 111.433C224.907 111.48 224.836 111.507 224.76 111.509L224.748 111.496L224.749 111.494ZM181.943 25.2471C182.834 25.2471 183.691 24.8948 184.32 24.2676C184.951 23.6404 185.305 22.7903 185.305 21.9043C185.305 21.0183 184.951 20.1682 184.32 19.541C183.691 18.9138 182.834 18.5615 181.943 18.5615C181.051 18.5615 180.195 18.9138 179.565 19.541C178.936 20.1682 178.58 21.0183 178.58 21.9043C178.58 22.7903 178.934 23.6422 179.565 24.2676C180.196 24.8948 181.051 25.2471 181.943 25.2471Z" fill="#0B0B0B"/>
<path d="M181.942 25.5769C181.455 25.5769 180.976 25.4816 180.53 25.2983C180.081 25.1132 179.675 24.8436 179.331 24.5022C178.988 24.1607 178.716 23.7563 178.53 23.3106C178.344 22.8649 178.25 22.3887 178.25 21.9052C178.25 20.9329 178.639 19.9984 179.331 19.3101C180.024 18.6217 180.962 18.2354 181.942 18.2354C182.922 18.2354 183.86 18.6217 184.552 19.3101C185.245 19.9984 185.633 20.9329 185.633 21.9052C185.633 22.3869 185.539 22.8649 185.353 23.3106C185.167 23.7563 184.896 24.1607 184.552 24.5022C184.209 24.8436 183.802 25.1132 183.355 25.2983C182.907 25.4834 182.428 25.5769 181.942 25.5769ZM181.942 18.8913C181.137 18.8913 180.365 19.2094 179.798 19.7737C179.228 20.3399 178.908 21.1055 178.908 21.9052C178.908 22.705 179.228 23.4724 179.798 24.0385C180.365 24.6046 181.137 24.9209 181.942 24.9209C182.746 24.9209 183.518 24.6028 184.086 24.0385C184.655 23.4724 184.975 22.705 184.975 21.9052C184.975 21.1055 184.657 20.3399 184.086 19.7737C183.518 19.2076 182.746 18.8913 181.942 18.8913ZM290.184 88.0186C291.076 88.0186 291.932 87.6663 292.562 87.0391C293.193 86.4119 293.547 85.5618 293.547 84.6758C293.547 83.7898 293.193 82.9379 292.562 82.3125C291.932 81.6853 291.076 81.333 290.184 81.333C289.293 81.333 288.436 81.6853 287.807 82.3125C287.178 82.9397 286.822 83.7898 286.822 84.6758C286.822 85.5618 287.176 86.4119 287.807 87.0391C288.438 87.6663 289.293 88.0186 290.184 88.0186Z" fill="#0B0B0B"/>
<path d="M290.182 88.3448C289.202 88.3448 288.264 87.9584 287.571 87.2701C286.879 86.5818 286.49 85.6472 286.49 84.675C286.49 83.7009 286.879 82.7681 287.571 82.0798C288.264 81.3915 289.202 81.0051 290.182 81.0051C290.666 81.0051 291.147 81.1003 291.594 81.2837C292.042 81.4688 292.449 81.7383 292.792 82.0798C293.136 82.4213 293.407 82.8256 293.593 83.2714C293.778 83.7171 293.873 84.1933 293.873 84.6767C293.873 85.1584 293.778 85.6365 293.593 86.0822C293.407 86.5279 293.136 86.9322 292.792 87.2719C292.449 87.6134 292.042 87.8829 291.594 88.0681C291.147 88.2532 290.664 88.3466 290.182 88.3466V88.3448ZM290.182 81.6593C289.377 81.6593 288.605 81.9774 288.036 82.5417C287.468 83.1078 287.148 83.8752 287.148 84.675C287.148 85.4747 287.466 86.2403 288.036 86.8064C288.605 87.3725 289.377 87.6888 290.182 87.6888C290.986 87.6888 291.758 87.3707 292.326 86.8064C292.895 86.2403 293.215 85.4747 293.215 84.675C293.215 83.8752 292.895 83.1078 292.326 82.5417C291.758 81.9756 290.986 81.6593 290.182 81.6593ZM79.9482 80.7948C79.8542 80.7948 79.7638 80.7553 79.6969 80.6906C79.6047 80.5863 69.9127 69.5084 77.3358 59.2573C80.8575 54.4066 86.5939 52.4405 93.5036 53.7255C95.6405 54.1191 97.7105 54.8002 99.5961 55.6521L99.4641 54.7337C98.4879 47.5629 99.2219 39.0838 102.158 31.1797L102.161 31.1815L102.167 31.1833L102.176 31.1869L102.185 31.1905L102.194 31.1941L102.203 31.1977L102.212 31.2013L102.221 31.2049L102.23 31.2085L102.239 31.2121L102.248 31.2157L102.257 31.2193L102.266 31.2229L102.275 31.2264H102.277L102.286 31.23L102.295 31.2336L102.304 31.2372L102.313 31.2408L102.322 31.2444L102.331 31.248L102.349 31.257L102.359 31.2606L102.368 31.2642L102.377 31.2678L102.386 31.2714L102.393 31.275L102.395 31.2768L102.404 31.2804L102.413 31.284L102.422 31.2876L102.431 31.2911L102.44 31.2947L102.449 31.2983L102.458 31.3019L102.467 31.3055L102.478 31.3091L102.487 31.3127L102.496 31.3163L102.505 31.3199L102.509 31.3217L102.514 31.3235L102.523 31.3271L102.532 31.3307L102.561 31.3415L102.572 31.3451L102.581 31.3487L102.599 31.3558L102.608 31.3594L102.617 31.363L102.628 31.3666H102.63L102.639 31.3702L102.648 31.3738L102.668 31.381L102.677 31.3846L102.686 31.3882L102.695 31.3918L102.706 31.3954L102.715 31.399L102.724 31.4026L102.733 31.4062L102.744 31.4098L102.751 31.4116L102.753 31.4134C99.8637 39.2006 99.1423 47.5557 100.111 54.6223L100.323 55.9594C104.609 58.0172 107.827 60.8891 108.381 63.026C108.632 63.9839 108.381 64.7836 107.681 65.3731C106.705 66.1729 105.663 66.3957 104.662 66.0021C102.5 65.1628 100.666 61.5451 99.7299 56.3925C97.7087 55.4544 95.5772 54.7661 93.3861 54.3473C89.5353 53.6267 82.4014 53.3643 77.8782 59.6167C70.757 69.4491 80.0928 80.1334 80.185 80.2377C80.3043 80.3689 80.2899 80.5792 80.1579 80.696C80.0946 80.7463 80.0151 80.7751 79.9337 80.7751L79.9482 80.7948ZM114.102 13.9213C114.596 13.5133 115.099 13.1143 115.619 12.7297C126.658 4.54892 157.001 -5.53154 180.41 15.5226C180.542 15.6412 180.554 15.8497 180.437 15.9809C180.379 16.0438 180.298 16.0833 180.211 16.0887C180.124 16.0941 180.039 16.0635 179.974 16.0078C156.869 -4.77132 126.908 5.17973 116.015 13.2545C115.518 13.6247 115.033 14.0057 114.562 14.3957L114.556 14.3885L114.551 14.3814L114.545 14.3742L114.54 14.367L114.535 14.3598L114.529 14.3544L114.524 14.3472L114.518 14.34L114.513 14.3328L114.507 14.3256L114.502 14.3185L114.497 14.3113L114.491 14.3059L114.486 14.2987L114.48 14.2915L114.475 14.2843L114.469 14.2771L114.464 14.2717L114.462 14.2699L114.459 14.2663L114.453 14.2591L114.448 14.252L114.442 14.2466L114.437 14.2394L114.431 14.2322L114.426 14.225L114.421 14.2196L114.415 14.2124L114.41 14.2052L114.404 14.1998L114.399 14.1927L114.394 14.1855L114.388 14.1783L114.383 14.1729L114.379 14.1693L114.375 14.1657L114.37 14.1603L114.365 14.1531L114.359 14.1459L114.354 14.1405L114.348 14.1333L114.343 14.128L114.337 14.1208L114.33 14.1136L114.325 14.1082L114.319 14.101L114.314 14.0956L114.309 14.0884L114.303 14.083L114.298 14.0758L114.292 14.0722L114.29 14.0704L114.285 14.0633L114.28 14.0579L114.274 14.0507L114.267 14.0453L114.262 14.0381L114.256 14.0327L114.243 14.0201L114.238 14.0129L114.233 14.0075L114.225 14.0022L114.22 13.995L114.215 13.9896L114.207 13.9824L114.202 13.977L114.128 13.9033L114.102 13.9213ZM100.48 56.7646C101.39 61.3923 103.065 64.6956 104.911 65.4162C105.689 65.7182 106.48 65.5474 107.26 64.8915C107.775 64.4709 107.932 63.921 107.748 63.2129C107.247 61.2719 104.372 58.7037 100.467 56.7628H100.48V56.7646Z" fill="#0B0B0B"/>
<path d="M106.617 32.1443C109.454 32.1443 112.173 31.0246 114.18 29.0297C116.184 27.0366 117.311 24.3319 117.311 21.5121C117.311 18.6923 116.184 15.9875 114.18 13.9944C112.173 12.0013 109.454 10.8799 106.617 10.8799C103.781 10.8799 101.06 11.9995 99.0549 13.9944C97.05 15.9875 95.9219 18.6923 95.9219 21.5121C95.9219 24.3319 97.0482 27.0366 99.0549 29.0297C101.06 31.0228 103.781 32.1443 106.617 32.1443ZM110.177 18.9169C110.197 19.7185 109.899 20.4949 109.347 21.079C109.108 21.3288 108.859 21.5372 108.582 21.7223L107.818 22.2202C107.581 22.3783 107.382 22.5347 107.225 22.7054C107.069 22.8672 106.984 23.0846 106.986 23.3093V23.6507H104.916V23.3236C104.905 22.975 104.968 22.6281 105.1 22.3064C105.232 21.9847 105.429 21.6918 105.681 21.4492C105.892 21.2389 106.129 21.0556 106.393 20.9118C106.657 20.7555 106.894 20.5973 107.105 20.4266C107.317 20.2558 107.501 20.0599 107.646 19.8227C107.791 19.5999 107.87 19.3105 107.87 18.9439C107.87 18.7606 107.843 18.5773 107.791 18.4065C107.738 18.2304 107.637 18.0705 107.501 17.9482C107.369 17.817 107.172 17.6984 106.921 17.6194C106.67 17.5403 106.353 17.4882 105.959 17.4882C105.222 17.472 104.495 17.6625 103.862 18.0381V16.2948C104.63 15.9012 105.491 15.7161 106.353 15.7575C106.986 15.7575 107.541 15.8365 108.015 15.9803C108.49 16.1367 108.884 16.3469 109.201 16.6219C109.517 16.8969 109.756 17.2384 109.913 17.6176C110.072 18.0111 110.15 18.4299 110.15 18.9026L110.177 18.9151V18.9169ZM105.984 27.2811C105.787 27.2811 105.601 27.2415 105.417 27.1768C105.245 27.1049 105.09 27.0025 104.956 26.8749C104.824 26.7491 104.721 26.5981 104.652 26.4292C104.513 26.0841 104.513 25.6995 104.652 25.3545C104.721 25.1855 104.824 25.0346 104.956 24.9088C105.088 24.7776 105.245 24.6859 105.417 24.6068C105.596 24.5314 105.789 24.4954 105.984 24.5026C106.267 24.4954 106.545 24.5727 106.782 24.7255C107.019 24.8782 107.205 25.0957 107.317 25.3545C107.456 25.6995 107.456 26.0841 107.317 26.4292C107.237 26.5999 107.145 26.7437 107.013 26.8749C106.879 27.0079 106.718 27.1139 106.541 27.184C106.364 27.2541 106.174 27.2865 105.984 27.2811Z" fill="#0B0B0B"/>
<path d="M134.981 161.207C137.817 161.207 140.538 160.087 142.543 158.094C144.548 156.101 145.676 153.396 145.676 150.577C145.676 147.757 144.55 145.052 142.543 143.059C140.538 141.064 137.817 139.946 134.981 139.946C132.144 139.946 129.425 141.066 127.418 143.059C125.413 145.052 124.285 147.757 124.285 150.577C124.285 153.396 125.411 156.101 127.418 158.094C129.423 160.089 132.144 161.207 134.981 161.207ZM129.812 147.324L133.122 154.351L131.593 155.124L127.821 148.332L129.826 147.322H129.814L129.812 147.324ZM134.019 157.983C133.675 158.157 133.278 158.19 132.911 158.075C132.735 158.022 132.574 157.933 132.437 157.812C132.29 157.695 132.173 157.548 132.095 157.379C132.008 157.216 131.96 157.038 131.951 156.854C131.931 156.673 131.958 156.488 132.03 156.317C132.092 156.137 132.189 155.972 132.316 155.832C132.442 155.69 132.596 155.575 132.768 155.492C132.934 155.404 133.118 155.35 133.305 155.336C133.493 155.319 133.682 155.343 133.861 155.4C134.033 155.452 134.192 155.532 134.337 155.65C134.478 155.769 134.594 155.916 134.677 156.08C134.76 156.243 134.811 156.423 134.825 156.606C134.825 156.79 134.825 156.973 134.758 157.144C134.706 157.327 134.614 157.485 134.494 157.629C134.375 157.773 134.218 157.891 134.046 157.983H134.019ZM133.979 145.214L137.289 152.241L135.76 153.014L131.988 146.222L133.993 145.212H133.981L133.979 145.214ZM138.186 155.873C137.842 156.047 137.445 156.08 137.078 155.965C136.814 155.88 136.58 155.718 136.409 155.501C136.237 155.285 136.136 155.021 136.114 154.746C136.101 154.464 136.172 154.185 136.317 153.943C136.463 153.7 136.676 153.506 136.931 153.384C137.098 153.296 137.282 153.242 137.468 153.226C137.656 153.21 137.846 153.233 138.025 153.292C138.197 153.344 138.356 153.423 138.5 153.54C138.645 153.659 138.764 153.803 138.844 153.973C138.936 154.144 138.976 154.315 138.989 154.498C138.989 154.681 138.989 154.865 138.922 155.036C138.869 155.219 138.777 155.377 138.658 155.521C138.538 155.665 138.381 155.783 138.209 155.875H138.182L138.186 155.873ZM138.133 143.104L141.444 150.131L139.9 150.904L136.129 144.114L138.133 143.104ZM142.34 153.763C142.169 153.855 141.972 153.907 141.787 153.921C141.599 153.941 141.411 153.918 141.232 153.855C141.057 153.803 140.896 153.713 140.758 153.592C140.626 153.474 140.507 153.33 140.415 153.159C140.335 152.989 140.283 152.818 140.27 152.634C140.27 152.451 140.27 152.28 140.335 152.097C140.402 151.914 140.495 151.768 140.612 151.624C140.872 151.332 141.236 151.148 141.628 151.112C141.993 151.091 142.357 151.202 142.644 151.427C142.789 151.545 142.894 151.689 142.986 151.847C143.078 152.018 143.118 152.189 143.13 152.372C143.13 152.555 143.13 152.739 143.065 152.909C143.013 153.093 142.921 153.251 142.801 153.395C142.682 153.538 142.525 153.657 142.353 153.749L142.34 153.761V153.763Z" fill="#0B0B0B"/>
<path d="M134.981 161.535C132.15 161.396 129.483 160.181 127.527 158.142C125.573 156.102 124.482 153.392 124.482 150.575C124.482 147.757 125.573 145.049 127.527 143.009C129.481 140.969 132.15 139.755 134.981 139.616C137.812 139.755 140.48 140.969 142.435 143.009C144.389 145.049 145.479 147.759 145.479 150.575C145.479 153.393 144.389 156.102 142.435 158.142C140.48 160.181 137.812 161.396 134.981 161.535ZM134.981 140.27C132.233 140.274 129.599 141.361 127.655 143.291C125.712 145.222 124.618 147.842 124.616 150.574C124.62 153.305 125.714 155.924 127.655 157.856C129.599 159.788 132.233 160.873 134.981 160.877C137.729 160.873 140.363 159.786 142.306 157.856C144.25 155.924 145.343 153.305 145.345 150.574C145.342 147.842 144.248 145.222 142.306 143.291C140.363 141.361 137.729 140.274 134.981 140.27Z" fill="#0B0B0B"/>
<path d="M290.486 78.9179H290.474C290.43 78.9179 290.387 78.9089 290.347 78.8909C290.305 78.873 290.271 78.8478 290.24 78.8155C290.211 78.7831 290.188 78.7454 290.175 78.704C290.161 78.6627 290.155 78.6196 290.157 78.5764C290.369 74.3692 288.219 69.1645 285.054 65.0741C283.219 66.7743 280.895 67.8652 278.408 68.1941C274.069 68.7063 270.482 66.3843 269.309 63.9473C268.544 62.3352 268.808 60.7357 270.021 59.5693C272.223 57.4594 275.072 57.1036 278.303 58.5467C280.961 59.8659 283.282 61.7655 285.095 64.1054C290.002 59.2944 292.336 50.7739 293.245 46.4606C293.256 46.4193 293.272 46.3779 293.297 46.3438C293.323 46.3078 293.353 46.2773 293.391 46.2557C293.428 46.2324 293.469 46.2162 293.511 46.209C293.554 46.2018 293.598 46.2036 293.639 46.2126C293.811 46.2521 293.928 46.4229 293.89 46.6062C291.86 56.2409 288.669 61.6433 285.516 64.6446C288.799 68.8662 291.016 74.2668 290.804 78.6196C290.804 78.7903 290.645 78.9341 290.474 78.9341L290.486 78.9215V78.9179ZM274.608 58.3221C273.236 58.3221 271.798 58.7552 270.493 60.0258C269.464 61.0089 269.267 62.2939 269.913 63.6579C270.981 65.8865 274.291 68.0233 278.339 67.5381C280.704 67.2272 282.911 66.1812 284.643 64.5493C282.884 62.2723 280.624 60.4248 278.035 59.1488C276.965 58.6384 275.795 58.3616 274.606 58.3365V58.3239L274.608 58.3221ZM276.005 45.9987C275.918 45.9987 275.835 45.9646 275.774 45.9035C275.712 45.8424 275.676 45.7579 275.676 45.6716C275.624 28.1185 264.849 17.4863 264.744 17.382C264.713 17.3515 264.688 17.3173 264.67 17.2778C264.654 17.2383 264.645 17.1951 264.645 17.1538C264.645 17.1107 264.652 17.0675 264.67 17.0298C264.686 16.9902 264.713 16.9543 264.744 16.9255C264.876 16.7943 265.075 16.7943 265.205 16.9255C265.31 17.0298 276.296 27.8453 276.349 45.6878C276.349 45.8711 276.204 46.0167 276.02 46.0167L276.007 46.0041L276.005 45.9987ZM303.461 63.4351C303.461 63.4351 303.369 63.4351 303.317 63.4081C303.158 63.3291 303.078 63.1332 303.158 62.975C303.262 62.7522 314.037 40.5047 335.994 32.5863C336.166 32.5216 336.35 32.6132 336.415 32.7822C336.446 32.863 336.442 32.9547 336.404 33.0338C336.368 33.1129 336.299 33.1722 336.216 33.2027C314.509 41.0151 303.855 63.0271 303.749 63.25C303.723 63.3075 303.68 63.356 303.626 63.3884C303.572 63.4207 303.508 63.4369 303.445 63.4333H303.458L303.461 63.4351ZM313.669 70.8413C313.669 70.8413 313.564 70.8413 313.509 70.8018C313.352 70.7101 313.285 70.5142 313.377 70.3561C313.602 69.9499 318.996 60.5506 343.656 59.1739C343.827 59.147 343.985 59.3051 343.999 59.4885C343.999 59.6718 343.867 59.8299 343.683 59.8299C319.457 61.1796 314.01 70.5807 313.958 70.6724C313.929 70.7227 313.887 70.7658 313.837 70.7946C313.786 70.8251 313.728 70.8413 313.669 70.8413Z" fill="#0B0B0B"/>
<path d="M283.973 146.93C283.897 146.929 283.823 146.903 283.763 146.855C283.702 146.808 283.66 146.742 283.644 146.668C283.629 146.592 283.644 146.513 283.682 146.447C283.72 146.38 283.781 146.328 283.854 146.301C292.056 143.377 293.904 135.879 294.325 132.484L248.195 123.754C246.957 123.525 245.776 123.055 244.724 122.368C243.67 121.682 242.766 120.794 242.063 119.755C241.356 118.727 240.861 117.57 240.608 116.349C240.354 115.129 240.347 113.873 240.586 112.649L243.395 97.9658C243.422 97.8346 243.527 97.7303 243.659 97.7034L250.24 96.4058C254.741 95.5216 258.994 93.6759 262.705 90.9963C266.417 88.3166 269.497 84.866 271.735 80.8853C271.77 80.8277 271.82 80.781 271.882 80.7523C271.943 80.7253 272.012 80.7163 272.079 80.7271L322.904 90.3367C324.14 90.5613 325.321 91.0286 326.375 91.7098C327.429 92.3909 328.336 93.2751 329.043 94.3067C329.752 95.3401 330.245 96.5029 330.497 97.7268C330.75 98.9506 330.755 100.214 330.513 101.44L325.304 128.655C325.077 129.884 324.605 131.056 323.92 132.102C323.234 133.148 322.345 134.05 321.307 134.753C320.268 135.457 319.1 135.948 317.869 136.199C316.637 136.449 315.368 136.456 314.135 136.217L303.031 134.12C301.542 138.027 296.847 146.468 283.989 146.929H283.977L283.973 146.93ZM244.001 98.2947L241.231 112.755C241.009 113.896 241.014 115.071 241.249 116.211C241.486 117.35 241.945 118.432 242.603 119.394C243.261 120.355 244.106 121.178 245.086 121.815C246.065 122.451 247.163 122.887 248.313 123.1L294.746 131.882C294.918 131.909 295.023 132.066 295.01 132.236C294.681 135.356 293.137 142.579 285.911 146.132C297.172 144.914 301.234 137.087 302.487 133.626C302.514 133.552 302.567 133.493 302.634 133.453C302.701 133.415 302.78 133.401 302.856 133.415L314.237 135.565C315.385 135.789 316.569 135.786 317.715 135.554C318.863 135.32 319.951 134.864 320.92 134.208C321.888 133.554 322.716 132.713 323.356 131.737C323.994 130.761 324.431 129.668 324.641 128.523L329.849 101.309C330.07 100.169 330.061 98.9974 329.822 97.8597C329.585 96.7239 329.123 95.6456 328.465 94.6877C327.81 93.7244 326.969 92.8995 325.991 92.2615C325.013 91.6235 323.918 91.1886 322.768 90.9765L272.182 81.4064C269.884 85.416 266.746 88.8882 262.982 91.5857C259.216 94.2833 254.911 96.147 250.357 97.0456L244.001 98.3037V98.2911V98.2947Z" fill="#0B0B0B"/>
</svg>
