<svg width="389" height="180" viewBox="0 0 389 180" fill="none" xmlns="http://www.w3.org/2000/svg">
<path d="M158.707 30.5508C169.801 31.1486 193.032 35.8279 197.221 49.6411C200.006 58.8456 198.265 65.724 195.732 70.0542" stroke="#0B0B0B" stroke-width="0.500375" stroke-miterlimit="22.9256" stroke-linecap="round"/>
<path d="M156.064 20.2053C162.731 18.8132 178.335 18.4514 187.508 28.3231C193.047 34.311 194.467 39.9076 194.231 44.0993" stroke="#0B0B0B" stroke-width="0.500375" stroke-miterlimit="22.9256" stroke-linecap="round"/>
<path d="M102.322 1.86719C113.179 8.22968 134.476 12.1713 150.622 11.5028C170.179 10.7227 182.775 4.90287 195.372 12.8397C201.051 16.4181 209.528 27.32 203 31.4425C196.235 35.7317 191.907 21.3758 182.121 22.4061L179.699 22.6845M90.5332 41.454C97.1731 41.4116 114.307 57.2995 118.274 67.9102C123.953 83.1013 132.833 95.0066 146.028 99.4909C158.429 103.691 163.22 100.808 163.197 95.5564M158.606 88.9508C152.824 86.0197 143.337 84.9937 140.948 74.5115C139.904 69.958 142.687 61.1435 153.391 58.2619C162.022 55.9498 181.731 63.0232 175.912 76.6145C174.287 80.4119 173.516 83.4292 173.338 85.8162M183.823 93.1199C190.511 89.1049 197.45 73.6721 195.121 65.5161C192.184 55.1838 184.751 47.5112 158.041 41.3565" stroke="#0B0B0B" stroke-width="0.500375" stroke-miterlimit="22.9256" stroke-linecap="round"/>
<path fill-rule="evenodd" clip-rule="evenodd" d="M165.75 107.385C174.324 113.178 183.149 115.098 185.459 111.674L189.649 105.464C187.327 108.884 178.511 106.964 169.95 101.171C161.472 95.4328 156.426 88.0486 158.575 84.5762L154.45 90.6772C152.124 94.103 157.192 101.581 165.751 107.386L165.75 107.385Z" fill="#0B0B0B"/>
<path d="M189.65 105.465L189.928 105.66L190.137 105.381L189.859 105.174L189.706 105.377C189.754 105.302 189.798 105.225 189.839 105.145L189.859 105.16L189.469 105.745L189.448 105.731C189.206 106.015 188.914 106.255 188.573 106.453L185.181 111.468L185.752 111.873L189.956 105.663L189.654 105.461L189.653 105.463L189.65 105.468V105.465ZM158.847 84.2023L158.568 83.9932L158.359 84.2716L158.639 84.4723C158.598 84.533 158.558 84.5966 158.523 84.6602L158.457 84.7606L158.465 84.7662C158.287 85.1054 158.173 85.4785 158.116 85.8813L154.74 90.8588L154.169 90.4687L158.359 84.273L158.646 84.4638C158.677 84.4171 158.709 84.3719 158.745 84.3281L158.847 84.1755L158.861 84.1854L158.847 84.2037V84.2023ZM185.181 111.467C184.666 112.233 183.79 112.72 182.564 112.914C181.339 113.123 179.78 113.026 178.04 112.636C173.708 111.543 169.614 109.664 165.958 107.094L165.568 107.665C169.883 110.589 174.268 112.538 177.886 113.318C179.696 113.722 181.325 113.82 182.674 113.597C184.024 113.388 185.109 112.831 185.749 111.87L185.178 111.466L185.181 111.467ZM165.96 107.08C162.219 104.645 158.954 101.544 156.328 97.9321C155.433 96.6984 154.772 95.312 154.378 93.8379C154.1 92.6126 154.24 91.6106 154.74 90.8588L154.169 90.4687C153.515 91.4439 153.403 92.655 153.696 93.9778C154.002 95.3148 154.711 96.7902 155.741 98.3222C158.427 101.999 161.757 105.161 165.568 107.651L165.958 107.08H165.96Z" fill="#0B0B0B"/>
<path d="M170.142 100.882C174.388 103.754 178.691 105.666 182.216 106.433C185.639 107.178 188.292 106.848 189.363 105.265C190.433 103.68 189.754 101.093 187.79 98.1928C186.718 96.6113 185.267 94.9451 183.508 93.3001C183.714 93.187 183.921 93.0626 184.127 92.9284C185.859 94.5649 187.294 96.2241 188.365 97.8027C190.493 100.944 191.186 103.81 189.94 105.653C188.694 107.496 185.777 107.919 182.07 107.112C178.465 106.327 174.074 104.379 169.755 101.457C165.439 98.5362 161.999 95.1825 159.928 92.1256C157.801 88.984 157.107 86.1179 158.352 84.275C159.599 82.4321 162.515 82.0095 166.223 82.8165C168.385 83.2871 170.829 84.1761 173.369 85.4409C173.344 85.6981 173.327 85.9483 173.315 86.1914C170.736 84.8827 168.258 83.9697 166.076 83.4949C162.653 82.7501 160 83.0808 158.929 84.6636C157.859 86.2465 158.538 88.8342 160.502 91.7356C162.523 94.7218 165.898 98.0062 170.145 100.881L170.142 100.882Z" fill="#0B0B0B"/>
<path d="M153.389 58.2619C162.019 55.9498 181.728 63.0245 175.909 76.6144C168.867 93.0733 177.83 94.9246 181.838 93.9636C189.035 92.2507 197.678 74.4832 195.117 65.5161C192.18 55.1979 184.747 47.5112 158.037 41.3564" stroke="#0B0B0B" stroke-width="0.500375" stroke-miterlimit="22.9256" stroke-linecap="round"/>
<path fill-rule="evenodd" clip-rule="evenodd" d="M298.86 43.7873V43.4735H298.842L298.844 43.4961C298.746 42.4546 298.18 41.5063 297.273 40.647L297.177 40.5636C296.763 40.1863 296.279 39.8245 295.731 39.4825C294.923 38.961 294.06 38.5299 293.154 38.1964L293.008 38.1441C291.521 37.5619 289.794 37.0757 287.896 36.7139C285.234 36.1712 282.519 35.9196 279.792 35.9677V35.9818H279.549L279.306 35.9832C279.063 35.9861 278.823 35.9889 278.583 35.996H278.582C273.857 36.1147 269.601 36.9245 266.431 38.1936C265.532 38.5243 264.675 38.9511 263.874 39.4669L263.81 39.5079C263.279 39.8414 262.808 40.1933 262.406 40.5622L262.31 40.6456C261.838 41.0342 261.452 41.5176 261.18 42.0645C261.141 42.1408 261.105 42.2185 261.072 42.2977V42.2991L261.062 42.3231C260.84 42.8065 260.725 43.3068 260.725 43.8198V43.8692V163.332V163.666V163.68V171.157C260.725 173.629 263.491 175.49 265.593 176.441C269.433 178.154 274.668 178.997 279.794 178.997C285.041 178.997 292.303 178.091 296.587 174.902C297.809 173.981 298.863 172.763 298.863 171.157V163.666V163.553V163.332V43.8692V43.8198V43.7859L298.86 43.7873ZM298.165 163.687C298.165 164.591 297.706 165.497 296.8 166.332C295.654 167.34 294.334 168.129 292.902 168.657C289.561 169.994 284.928 170.815 279.791 170.815V171.512C284.997 171.512 289.715 170.677 293.154 169.297C294.671 168.743 296.073 167.912 297.288 166.847C297.63 166.519 297.925 166.174 298.165 165.815V163.685V163.687ZM298.165 51.2987C298.165 52.2032 297.706 53.1091 296.8 53.9444C295.654 54.952 294.334 55.7406 292.902 56.2692C289.561 57.6061 284.928 58.4272 279.791 58.4272V59.124C284.997 59.124 289.715 58.2887 293.154 56.9094C294.671 56.3554 296.073 55.5244 297.288 54.4588C297.63 54.1309 297.925 53.7861 298.165 53.4271V51.2973V51.2987ZM279.792 58.4272C274.656 58.4272 270.02 57.592 266.681 56.2692C265.25 55.7448 263.929 54.9605 262.783 53.9571C261.879 53.0936 261.42 52.2032 261.42 51.2973V53.4313C261.661 53.7889 261.959 54.1323 262.31 54.4588C263.52 55.5216 264.918 56.3526 266.429 56.9094C269.868 58.2887 274.585 59.1381 279.792 59.1381V58.4414V58.4272ZM298.165 58.789C298.165 59.6935 297.706 60.5994 296.8 61.4346C295.654 62.4423 294.334 63.2309 292.902 63.7594C289.561 65.0964 284.928 65.9175 279.791 65.9175V66.6142C284.997 66.6142 289.715 65.779 293.154 64.3997C294.671 63.8457 296.073 63.0147 297.288 61.9491C297.63 61.6212 297.925 61.2763 298.165 60.9174V58.7876V58.789ZM279.792 65.9175C274.656 65.9175 270.02 65.0823 266.681 63.7594C265.25 63.2351 263.929 62.4508 262.783 61.4473C261.879 60.5838 261.42 59.6935 261.42 58.7876V60.9216C261.661 61.2792 261.959 61.6226 262.31 61.9491C263.52 63.0118 264.918 63.8428 266.429 64.3997C269.868 65.779 274.585 66.6284 279.792 66.6284V65.9316V65.9175ZM298.165 66.2991C298.165 67.2036 297.706 68.1095 296.8 68.9447C295.654 69.9523 294.334 70.7409 292.902 71.2695C289.561 72.6064 284.928 73.4275 279.791 73.4275V74.1243C284.997 74.1243 289.715 73.2891 293.154 71.9097C294.671 71.3557 296.073 70.5247 297.288 69.4591C297.63 69.1312 297.925 68.7864 298.165 68.4274V66.2977V66.2991ZM279.792 73.4275C274.656 73.4275 270.02 72.5923 266.681 71.2695C265.25 70.7452 263.929 69.9608 262.783 68.9574C261.879 68.0939 261.42 67.2036 261.42 66.2977V68.4317C261.661 68.7892 261.959 69.1327 262.31 69.4591C263.52 70.5219 264.918 71.3529 266.429 71.9097C269.868 73.2891 274.585 74.1384 279.792 74.1384V73.4417V73.4275ZM298.165 73.7696C298.165 74.674 297.706 75.5799 296.8 76.4152C295.654 77.4228 294.334 78.2114 292.902 78.74C289.561 80.0769 284.928 80.898 279.791 80.898V81.5948C284.997 81.5948 289.715 80.7595 293.154 79.3802C294.671 78.8262 296.073 77.9952 297.288 76.9296C297.63 76.6017 297.925 76.2569 298.165 75.8979V73.7681V73.7696ZM279.792 80.898C274.656 80.898 270.02 80.0628 266.681 78.74C265.25 78.2157 263.929 77.4313 262.783 76.4279C261.879 75.5644 261.42 74.674 261.42 73.7681V75.9022C261.661 76.2597 261.959 76.6031 262.31 76.9296C263.52 77.9924 264.918 78.8234 266.429 79.3802C269.868 80.7595 274.585 81.6089 279.792 81.6089V80.9122V80.898ZM298.165 81.2895C298.165 82.194 297.706 83.0999 296.8 83.9351C295.654 84.9428 294.334 85.7314 292.902 86.2599C289.561 87.5969 284.928 88.418 279.791 88.418V89.1147C284.997 89.1147 289.715 88.2795 293.154 86.9001C294.671 86.3461 296.073 85.5152 297.288 84.4496C297.63 84.1217 297.925 83.7768 298.165 83.4179V81.2881V81.2895ZM279.792 88.418C274.656 88.418 270.02 87.5828 266.681 86.2599C265.25 85.7356 263.929 84.9513 262.783 83.9478C261.879 83.0843 261.42 82.194 261.42 81.2881V83.4221C261.661 83.7797 261.959 84.1231 262.31 84.4496C263.52 85.5123 264.918 86.3433 266.429 86.9001C269.868 88.2795 274.585 89.1289 279.792 89.1289V88.4321V88.418ZM298.165 88.7699C298.165 89.6744 297.706 90.5803 296.8 91.4155C295.654 92.4232 294.334 93.2118 292.902 93.7403C289.561 95.0773 284.928 95.8984 279.791 95.8984V96.5951C284.997 96.5951 289.715 95.7599 293.154 94.3805C294.671 93.8265 296.073 92.9955 297.288 91.9299C297.63 91.6021 297.925 91.2572 298.165 90.8983V88.7685V88.7699ZM279.792 95.8984C274.656 95.8984 270.02 95.0631 266.681 93.7403C265.25 93.216 263.929 92.4316 262.783 91.4282C261.879 90.5647 261.42 89.6744 261.42 88.7685V90.9025C261.661 91.2601 261.959 91.6035 262.31 91.9299C263.52 92.9927 264.918 93.8237 266.429 94.3805C269.868 95.7599 274.585 96.6092 279.792 96.6092V95.9125V95.8984ZM298.165 96.2263C298.165 97.1307 297.706 98.0366 296.8 98.8719C295.654 99.8795 294.334 100.668 292.902 101.197C289.561 102.534 284.928 103.355 279.791 103.355V104.051C284.997 104.051 289.715 103.216 293.154 101.837C294.671 101.283 296.073 100.452 297.288 99.3863C297.63 99.0584 297.925 98.7136 298.165 98.3546V96.2248V96.2263ZM279.792 103.355C274.656 103.355 270.02 102.519 266.681 101.197C265.25 100.672 263.929 99.888 262.783 98.8846C261.879 98.0211 261.42 97.1307 261.42 96.2248V98.3589C261.661 98.7164 261.959 99.0598 262.31 99.3863C263.52 100.449 264.918 101.28 266.429 101.837C269.868 103.216 274.585 104.066 279.792 104.066V103.369V103.355ZM298.165 103.749C298.165 104.654 297.706 105.559 296.8 106.395C295.654 107.402 294.334 108.191 292.902 108.719C289.561 110.056 284.928 110.878 279.791 110.878V111.574C284.997 111.574 289.715 110.739 293.154 109.36C294.671 108.806 296.073 107.975 297.288 106.909C297.63 106.581 297.925 106.236 298.165 105.877V103.748V103.749ZM279.792 110.878C274.656 110.878 270.02 110.042 266.681 108.719C265.25 108.195 263.929 107.411 262.783 106.407C261.879 105.544 261.42 104.654 261.42 103.748V105.882C261.661 106.239 261.959 106.583 262.31 106.909C263.52 107.972 264.918 108.803 266.429 109.36C269.868 110.739 274.585 111.588 279.792 111.588V110.892V110.878ZM298.165 111.142C298.165 112.046 297.706 112.952 296.8 113.787C295.654 114.795 294.334 115.584 292.902 116.112C289.561 117.449 284.928 118.27 279.791 118.27V118.967C284.997 118.967 289.715 118.132 293.154 116.752C294.671 116.198 296.073 115.367 297.288 114.302C297.63 113.974 297.925 113.629 298.165 113.27V111.14V111.142ZM279.792 118.27C274.656 118.27 270.02 117.435 266.681 116.112C265.25 115.588 263.929 114.804 262.783 113.8C261.879 112.937 261.42 112.046 261.42 111.14V113.274C261.661 113.632 261.959 113.975 262.31 114.302C263.52 115.365 264.918 116.196 266.429 116.752C269.868 118.132 274.585 118.981 279.792 118.981V118.284V118.27ZM298.165 118.728C298.165 119.633 297.706 120.539 296.8 121.374C295.654 122.381 294.334 123.17 292.902 123.699C289.561 125.036 284.928 125.857 279.791 125.857V126.553C284.997 126.553 289.715 125.718 293.154 124.339C294.671 123.785 296.073 122.954 297.288 121.888C297.63 121.56 297.925 121.215 298.165 120.857V118.727V118.728ZM279.792 125.857C274.656 125.857 270.02 125.021 266.681 123.699C265.25 123.174 263.929 122.39 262.783 121.387C261.879 120.523 261.42 119.633 261.42 118.727V120.861C261.661 121.218 261.959 121.562 262.31 121.888C263.52 122.951 264.918 123.782 266.429 124.339C269.868 125.718 274.585 126.568 279.792 126.568V125.871V125.857ZM298.165 126.221C298.165 127.126 297.706 128.032 296.8 128.867C295.654 129.875 294.334 130.663 292.902 131.192C289.561 132.529 284.928 133.35 279.791 133.35V134.046C284.997 134.046 289.715 133.211 293.154 131.832C294.671 131.278 296.073 130.447 297.288 129.381C297.63 129.053 297.925 128.709 298.165 128.35V126.22V126.221ZM279.792 133.35C274.656 133.35 270.02 132.515 266.681 131.192C265.25 130.667 263.929 129.883 262.783 128.88C261.879 128.016 261.42 127.126 261.42 126.22V128.354C261.661 128.711 261.959 129.055 262.31 129.381C263.52 130.444 264.918 131.275 266.429 131.832C269.868 133.211 274.585 134.061 279.792 134.061V133.364V133.35ZM298.165 133.673C298.165 134.578 297.706 135.484 296.8 136.319C295.654 137.327 294.334 138.115 292.902 138.644C289.561 139.981 284.928 140.802 279.791 140.802V141.499C284.997 141.499 289.715 140.663 293.154 139.284C294.671 138.73 296.073 137.899 297.288 136.833C297.63 136.506 297.925 136.161 298.165 135.802V133.672V133.673ZM279.792 140.802C274.656 140.802 270.02 139.967 266.681 138.644C265.25 138.119 263.929 137.335 262.783 136.332C261.879 135.468 261.42 134.578 261.42 133.672V135.806C261.661 136.164 261.959 136.507 262.31 136.833C263.52 137.896 264.918 138.727 266.429 139.284C269.868 140.663 274.585 141.513 279.792 141.513V140.816V140.802ZM298.165 141.189C298.165 142.094 297.706 142.999 296.8 143.835C295.654 144.842 294.334 145.631 292.902 146.16C289.561 147.496 284.928 148.318 279.791 148.318V149.014C284.997 149.014 289.715 148.179 293.154 146.8C294.671 146.246 296.073 145.415 297.288 144.349C297.63 144.021 297.925 143.676 298.165 143.317V141.188V141.189ZM279.792 148.318C274.656 148.318 270.02 147.482 266.681 146.16C265.25 145.635 263.929 144.851 262.783 143.847C261.879 142.984 261.42 142.094 261.42 141.188V143.322C261.661 143.679 261.959 144.023 262.31 144.349C263.52 145.412 264.918 146.243 266.429 146.8C269.868 148.179 274.585 149.028 279.792 149.028V148.332V148.318ZM298.165 148.62C298.165 149.524 297.706 150.43 296.8 151.266C295.654 152.273 294.334 153.062 292.902 153.59C289.561 154.927 284.928 155.749 279.791 155.749V156.445C284.997 156.445 289.715 155.61 293.154 154.231C294.671 153.677 296.073 152.846 297.288 151.78C297.63 151.452 297.925 151.107 298.165 150.748V148.619V148.62ZM279.792 155.749C274.656 155.749 270.02 154.913 266.681 153.59C265.25 153.066 263.929 152.282 262.783 151.278C261.879 150.415 261.42 149.525 261.42 148.619V150.753C261.661 151.11 261.959 151.454 262.31 151.78C263.52 152.843 264.918 153.674 266.429 154.231C269.868 155.61 274.585 156.459 279.792 156.459V155.763V155.749ZM298.165 156.17C298.165 157.074 297.706 157.98 296.8 158.815C295.654 159.823 294.334 160.612 292.902 161.14C289.561 162.477 284.928 163.298 279.791 163.298V163.995C284.997 163.995 289.715 163.16 293.154 161.78C294.671 161.226 296.073 160.395 297.288 159.33C297.63 159.002 297.925 158.657 298.165 158.298V156.168V156.17ZM279.792 163.298C274.656 163.298 270.02 162.463 266.681 161.14C265.25 160.616 263.929 159.831 262.783 158.828C261.879 157.964 261.42 157.074 261.42 156.168V158.302C261.661 158.66 261.959 159.003 262.31 159.33C263.52 160.392 264.918 161.223 266.429 161.78C269.868 163.16 274.585 164.009 279.792 164.009V163.312V163.298ZM279.792 170.81C274.656 170.81 270.02 169.974 266.681 168.652C265.25 168.127 263.929 167.343 262.783 166.339C261.879 165.476 261.42 164.586 261.42 163.68V165.814C261.661 166.171 261.959 166.515 262.31 166.841C263.52 167.904 264.918 168.735 266.429 169.292C269.868 170.671 274.585 171.52 279.792 171.52V170.824V170.81ZM279.792 50.9581C284.921 50.9581 289.554 50.1286 292.901 48.7902C296.153 47.4886 298.165 45.7277 298.165 43.8141L298.164 43.7279V43.7251C298.149 43.3082 298.041 42.8969 297.844 42.4984L297.823 42.4574L297.802 42.415L297.8 42.4136L297.779 42.3726L297.757 42.3316L297.755 42.3288L297.713 42.2539L297.709 42.2482L297.706 42.244L297.683 42.2072L297.658 42.1663L297.654 42.1606L297.631 42.1253L297.6 42.0772L297.577 42.0419L297.549 42.0009L297.543 41.9938L297.519 41.9599L297.49 41.9189L297.484 41.9105L297.459 41.878L297.427 41.837L297.422 41.8285L297.396 41.796L297.364 41.755L297.357 41.7465L297.33 41.714L297.297 41.673L297.29 41.6645L297.264 41.6335L297.228 41.5925L297.221 41.584L297.193 41.5515C297.059 41.3989 296.912 41.249 296.752 41.1021L296.748 41.0978C296.335 40.7417 295.902 40.4152 295.45 40.117L295.441 40.1114C294.716 39.6535 293.863 39.2295 292.901 38.8437C289.554 37.5053 284.921 36.6757 279.792 36.6757C274.664 36.6757 270.029 37.5053 266.684 38.8437C265.719 39.2309 264.861 39.6577 264.135 40.1156L264.083 40.1495C263.649 40.4378 263.232 40.7544 262.837 41.0978L262.832 41.1021C262.719 41.2067 262.611 41.3141 262.51 41.4215L262.502 41.4299L262.465 41.4709L262.437 41.5034L262.428 41.5119L262.392 41.5529L262.363 41.5854L262.356 41.5939L262.321 41.6349L262.294 41.666L262.287 41.6744L262.255 41.7154L262.228 41.7479L262.221 41.7564L262.188 41.7974L262.163 41.8299L262.157 41.8384L262.126 41.8794L262.101 41.9119L262.095 41.9203L262.065 41.9613L262.041 41.9938L262.036 42.0023L262.007 42.0433L261.985 42.0772L261.981 42.0843L261.954 42.1253L261.931 42.1606L261.927 42.1663L261.901 42.2072L261.879 42.244L261.876 42.2482L261.852 42.2892L261.829 42.3274L261.828 42.3302L261.805 42.3712L261.784 42.4107V42.4122L261.762 42.4546L261.74 42.4955L261.721 42.5365L261.663 42.6623L261.661 42.6665C261.591 42.8319 261.534 43.0001 261.495 43.1683L261.49 43.1895C261.478 43.2474 261.465 43.3068 261.455 43.3661L261.452 43.3817L261.447 43.4255L261.442 43.4551L261.441 43.4679L261.432 43.5442L261.431 43.5541L261.427 43.5979L261.424 43.6346V43.6403L261.423 43.6841L261.421 43.7237V43.7265L261.42 43.7703V43.8141C261.42 45.7263 263.431 47.4886 266.684 48.7902C270.03 50.1286 274.665 50.9581 279.792 50.9581Z" fill="#0B0B0B"/>
<path d="M246.091 96.2466H245.742V96.5943H246.091V96.2466ZM246.091 96.2466H246.439V95.8975H246.091V96.2466ZM246.439 96.2466C246.439 95.0906 245.854 94.0179 244.866 93.0851C243.654 92.0224 242.257 91.1914 240.747 90.6345C236.465 89.0814 231.936 88.3253 227.384 88.4073V89.104C232.506 89.104 237.142 89.9392 240.481 91.2762C241.911 91.8019 243.232 92.5848 244.379 93.5883C245.283 94.4518 245.742 95.3435 245.742 96.248H246.439V96.2466ZM227.37 88.4073C222.178 88.4073 217.445 89.2425 214.007 90.6345C212.494 91.1914 211.098 92.0224 209.887 93.0851C208.898 94.0179 208.301 95.0906 208.301 96.2466H208.996C208.996 95.3421 209.455 94.4362 210.36 93.601C211.506 92.5933 212.827 91.8047 214.258 91.2748C217.599 89.9378 222.233 89.1026 227.37 89.1026V88.4058V88.4073ZM208.301 96.2466V96.2749H208.996V96.2466H208.301ZM208.996 171.159V96.2607H208.301V171.159H208.996ZM208.301 171.159C208.301 172.315 208.898 173.387 209.887 174.333C211.096 175.398 212.494 176.229 214.007 176.784C217.445 178.149 222.178 178.999 227.37 178.999V178.302C222.233 178.302 217.599 177.467 214.272 176.13C212.842 175.603 211.522 174.821 210.374 173.818C209.456 172.968 208.996 172.064 208.996 171.158H208.301V171.159ZM227.37 178.999C232.576 178.999 237.308 178.163 240.733 176.771C242.249 176.222 243.65 175.396 244.868 174.333C245.843 173.387 246.44 172.315 246.44 171.159H245.744C245.744 172.064 245.285 172.97 244.38 173.819C243.233 174.821 241.912 175.604 240.483 176.131C237.142 177.468 232.508 178.303 227.371 178.303V179L227.37 178.999ZM245.742 96.2466V171.159H246.439V96.2466H245.742ZM131.145 166.675L130.812 166.73L131.508 166.689L131.147 166.661V166.675H131.145ZM225.879 80.9014L225.546 81.0131L226.228 80.9156L225.879 80.8873V80.9014ZM278.925 15.6795C279.12 15.7346 279.314 15.6385 279.37 15.4562L280.357 12.4898C280.378 12.446 280.39 12.3965 280.391 12.3471C280.392 12.2976 280.383 12.2495 280.364 12.2043C280.344 12.1591 280.315 12.1181 280.281 12.0842C280.244 12.0503 280.202 12.0248 280.155 12.0093C280.107 11.9937 280.059 11.9881 280.011 11.9923C279.96 11.9966 279.913 12.0121 279.871 12.0361C279.827 12.0602 279.791 12.0941 279.761 12.1337C279.731 12.1732 279.711 12.2185 279.703 12.2665L278.826 14.9121L276.181 14.0204C276.136 14.0062 276.091 13.9992 276.043 14.002C275.997 14.0048 275.952 14.0175 275.911 14.0387C275.869 14.0599 275.832 14.0882 275.802 14.1235C275.771 14.1589 275.75 14.1998 275.736 14.2437C275.681 14.4245 275.778 14.6196 275.959 14.6888L278.923 15.6781L278.925 15.6795ZM84.3768 92.541C84.2836 92.534 84.1932 92.5636 84.1225 92.623C84.0519 92.6824 84.0081 92.7686 84.001 92.8604C83.994 92.9537 84.0236 93.0442 84.083 93.1148C84.1423 93.1855 84.2285 93.2293 84.3203 93.2364L84.3754 92.5396L84.3768 92.541ZM194.491 44.1539C194.446 44.1454 194.398 44.1454 194.351 44.1539C194.306 44.1623 194.262 44.1807 194.224 44.2062C194.184 44.233 194.152 44.2655 194.127 44.3037C194.1 44.3432 194.081 44.3856 194.073 44.4309C194.063 44.4761 194.063 44.5241 194.071 44.5694C194.081 44.6146 194.1 44.6584 194.125 44.6966C194.152 44.7361 194.184 44.7686 194.224 44.7941C194.264 44.8209 194.306 44.8379 194.351 44.8478L194.491 44.151V44.1539ZM161.754 58.3981C161.771 58.3755 161.785 58.3515 161.795 58.326L161.608 58.2893L161.754 58.3981ZM195.048 44.9891C195.243 45.0301 195.423 44.9184 195.466 44.7248C195.476 44.6796 195.477 44.6344 195.469 44.5892C195.462 44.5439 195.445 44.5001 195.421 44.462C195.395 44.4238 195.363 44.3899 195.326 44.363C195.288 44.3362 195.247 44.3178 195.202 44.3079L195.049 44.9905L195.048 44.9891ZM200.699 46.1861C200.615 46.148 200.521 46.1437 200.434 46.1762C200.348 46.2073 200.278 46.2709 200.239 46.3543C200.156 46.5352 200.239 46.7444 200.406 46.8278L200.699 46.1876V46.1861ZM201.688 47.4397C201.767 47.4708 201.854 47.4708 201.933 47.4397C202.012 47.41 202.08 47.3507 202.118 47.2758C202.158 47.2009 202.168 47.1132 202.148 47.0299C202.127 46.9479 202.077 46.8758 202.007 46.8263L201.688 47.4383V47.4397ZM206.893 49.9595C206.82 49.903 206.725 49.8776 206.634 49.8889C206.54 49.9016 206.457 49.9482 206.4 50.0231C206.342 50.098 206.317 50.1913 206.33 50.2832C206.341 50.3764 206.389 50.4598 206.464 50.5178L206.882 49.961H206.896L206.893 49.9595ZM207.562 51.4081C207.596 51.4435 207.635 51.4717 207.682 51.4901C207.726 51.5085 207.775 51.5184 207.824 51.5169C207.874 51.5155 207.922 51.5042 207.967 51.4816C208.011 51.4604 208.05 51.4307 208.08 51.3926C208.113 51.3544 208.135 51.3106 208.151 51.264C208.164 51.2159 208.168 51.1665 208.161 51.1184C208.154 51.0704 208.135 51.0237 208.111 50.9813C208.084 50.9403 208.05 50.905 208.01 50.8782L207.565 51.4067L207.562 51.4081ZM212.154 54.9314C212.123 54.8961 212.088 54.8678 212.046 54.848C212.005 54.8268 211.96 54.8155 211.914 54.8113C211.868 54.8084 211.822 54.8141 211.779 54.8282C211.733 54.8423 211.694 54.8664 211.66 54.8961C211.625 54.9257 211.596 54.9625 211.575 55.0035C211.555 55.0444 211.543 55.0897 211.54 55.1349C211.536 55.1801 211.541 55.2268 211.557 55.2706C211.571 55.3144 211.595 55.3539 211.625 55.3893L212.153 54.93L212.154 54.9314ZM212.559 56.4634C212.583 56.5086 212.615 56.5482 212.657 56.5792C212.697 56.6103 212.746 56.6315 212.796 56.6414C212.845 56.6513 212.899 56.6513 212.948 56.6386C212.998 56.6259 213.046 56.6033 213.084 56.5708C213.125 56.5383 213.156 56.4973 213.179 56.4506C213.201 56.404 213.211 56.3531 213.211 56.3022C213.211 56.2514 213.2 56.2005 213.179 56.1539C213.156 56.1072 213.125 56.0662 213.085 56.0337L212.557 56.4789V56.4648L212.559 56.4634ZM216.54 60.6692C216.482 60.6056 216.405 60.5632 216.321 60.5533C216.236 60.542 216.151 60.5632 216.08 60.6113C216.01 60.6593 215.96 60.7314 215.941 60.8134C215.919 60.8953 215.929 60.983 215.969 61.0593L216.54 60.6692ZM216.735 62.2563C216.757 62.2973 216.788 62.3326 216.826 62.3609C216.863 62.3891 216.907 62.4103 216.954 62.4217C216.999 62.433 217.047 62.4344 217.093 62.4273C217.139 62.4188 217.184 62.4019 217.225 62.3764C217.264 62.351 217.298 62.3171 217.325 62.2775C217.352 62.2379 217.37 62.1941 217.379 62.1475C217.389 62.1008 217.387 62.0528 217.377 62.0076C217.366 61.9609 217.346 61.9185 217.321 61.8804L216.736 62.2563H216.735ZM220.214 66.8932C220.192 66.8522 220.165 66.8155 220.128 66.7858C220.093 66.7561 220.053 66.7335 220.008 66.7194C219.964 66.7052 219.917 66.6996 219.872 66.7024C219.827 66.7067 219.782 66.7194 219.741 66.7406C219.7 66.7618 219.663 66.79 219.632 66.8254C219.602 66.8607 219.578 66.9017 219.566 66.9455C219.552 66.9893 219.546 67.0359 219.55 67.0812C219.553 67.1278 219.566 67.1716 219.587 67.2126L220.214 66.8932ZM220.255 68.4803C220.305 68.5453 220.374 68.5919 220.453 68.6103C220.532 68.6287 220.615 68.6188 220.687 68.5835C220.761 68.5467 220.819 68.486 220.851 68.411C220.884 68.3361 220.889 68.2528 220.867 68.1736L220.255 68.4803ZM223.318 73.3956C223.281 73.3094 223.211 73.2402 223.123 73.2048C223.035 73.1695 222.938 73.1709 222.852 73.2076C222.764 73.2444 222.695 73.3136 222.661 73.4013C222.624 73.4889 222.626 73.5864 222.664 73.674L223.304 73.3956H223.318ZM223.235 74.9968C223.271 75.0816 223.341 75.1495 223.427 75.182C223.513 75.2159 223.609 75.2145 223.694 75.1777C223.778 75.141 223.846 75.0717 223.879 74.9855C223.913 74.8993 223.911 74.8032 223.875 74.7184L223.235 74.9968ZM225.963 80.0931C225.947 80.0492 225.923 80.0083 225.893 79.9729C225.862 79.9376 225.827 79.9093 225.783 79.8895C225.741 79.8683 225.697 79.857 225.649 79.8542C225.604 79.8514 225.557 79.8584 225.513 79.8754C225.47 79.8909 225.43 79.915 225.395 79.9475C225.361 79.9786 225.332 80.0181 225.314 80.0591C225.296 80.1015 225.286 80.1482 225.283 80.1934C225.282 80.24 225.29 80.2867 225.308 80.3291L225.963 80.0916V80.0931ZM226.269 80.2188C226.272 80.1736 226.266 80.127 226.252 80.0832C226.238 80.0393 226.215 79.9998 226.186 79.9644C226.126 79.8938 226.04 79.85 225.948 79.8429C225.855 79.8358 225.765 79.8655 225.694 79.9249C225.623 79.9842 225.58 80.0704 225.573 80.1623L226.269 80.2174V80.2188ZM226.046 74.4273C226.04 74.4725 226.044 74.5192 226.059 74.563C226.073 74.6068 226.094 74.6478 226.122 74.6831C226.152 74.7184 226.189 74.7481 226.228 74.7693C226.268 74.7905 226.313 74.8046 226.358 74.8089C226.403 74.8131 226.45 74.8089 226.494 74.7962C226.539 74.7834 226.579 74.7608 226.615 74.7326C226.651 74.7043 226.679 74.6675 226.701 74.628C226.724 74.587 226.737 74.5432 226.742 74.498L226.046 74.4287V74.4273ZM226.881 73.0621C226.889 72.9688 226.861 72.8769 226.803 72.8063C226.745 72.7342 226.66 72.689 226.569 72.6791C226.475 72.6706 226.384 72.6975 226.311 72.7568C226.241 72.8162 226.194 72.901 226.186 72.9928L226.881 73.0635V73.0621ZM226.909 67.2833C226.895 67.3765 226.92 67.4698 226.975 67.5433C227.031 67.6182 227.115 67.6677 227.209 67.6804C227.3 67.6931 227.394 67.6691 227.469 67.6126C227.542 67.5574 227.591 67.4726 227.604 67.3808L226.908 67.2833H226.909ZM227.801 65.9605C227.813 65.8686 227.788 65.7739 227.733 65.7004C227.678 65.6255 227.593 65.5761 227.502 65.5647C227.409 65.552 227.316 65.576 227.242 65.6326C227.168 65.6891 227.118 65.7725 227.107 65.8644L227.803 65.9619L227.801 65.9605ZM228.01 60.1816C227.995 60.2297 227.991 60.2792 227.998 60.3272C228.005 60.3767 228.024 60.4233 228.049 60.4643C228.075 60.5053 228.108 60.5406 228.151 60.5689C228.192 60.5957 228.238 60.6141 228.286 60.6226C228.336 60.6311 228.385 60.6282 228.433 60.6155C228.481 60.6028 228.525 60.5802 228.565 60.5491C228.602 60.518 228.633 60.4784 228.655 60.436C228.678 60.3922 228.691 60.3442 228.692 60.2947L227.995 60.1831H228.01V60.1816ZM228.942 58.8871C228.95 58.8419 228.95 58.7938 228.942 58.7486C228.932 58.7034 228.914 58.6596 228.89 58.6214C228.863 58.5818 228.83 58.5493 228.791 58.5225C228.753 58.497 228.709 58.4787 228.664 58.4688C228.618 58.4603 228.57 58.4603 228.525 58.4688C228.479 58.4773 228.436 58.4956 228.397 58.5225C228.357 58.5479 228.325 58.5818 228.299 58.62C228.272 58.6581 228.254 58.702 228.246 58.7472L228.942 58.8857V58.8871ZM229.332 53.1083C229.291 53.3033 229.415 53.4842 229.61 53.5266C229.791 53.5676 229.972 53.4432 230.014 53.2482L229.318 53.1097H229.332V53.1083ZM230.307 51.8547C230.325 51.7614 230.305 51.6668 230.254 51.5876C230.201 51.5099 230.12 51.4548 230.028 51.4364C229.935 51.418 229.839 51.4364 229.761 51.4887C229.684 51.541 229.63 51.6229 229.61 51.7148L230.307 51.8547ZM230.892 46.09C230.872 46.1367 230.863 46.1861 230.865 46.2356C230.866 46.2851 230.88 46.3345 230.903 46.3798C230.925 46.4236 230.957 46.4631 230.996 46.4942C231.036 46.5253 231.079 46.5479 231.128 46.5607C231.177 46.5734 231.226 46.5748 231.276 46.5649C231.325 46.555 231.37 46.5366 231.413 46.5069C231.452 46.4787 231.488 46.4405 231.513 46.3981C231.539 46.3543 231.554 46.3077 231.558 46.2568L230.89 46.09H230.892ZM231.907 44.8647C231.929 44.7743 231.914 44.6782 231.865 44.599C231.818 44.5185 231.739 44.462 231.649 44.4408C231.558 44.4181 231.462 44.4337 231.383 44.4817C231.304 44.5298 231.245 44.6075 231.225 44.698L231.907 44.8647ZM232.701 39.1283C232.683 39.1735 232.674 39.223 232.677 39.2711C232.68 39.3205 232.693 39.3672 232.714 39.411C232.737 39.4548 232.768 39.4929 232.804 39.524C232.843 39.5551 232.886 39.5777 232.933 39.5905C232.981 39.6032 233.03 39.606 233.077 39.5989C233.127 39.5905 233.172 39.5735 233.213 39.5481C233.254 39.5212 233.289 39.4873 233.316 39.4463C233.343 39.4053 233.361 39.3601 233.37 39.312L232.701 39.1311V39.1283ZM237.225 25.4678C237.156 25.6487 237.239 25.8578 237.42 25.9271C237.601 25.9977 237.796 25.8988 237.865 25.732L237.225 25.4678ZM238.407 24.3951C238.443 24.3089 238.44 24.2114 238.405 24.1252C238.368 24.039 238.299 23.9711 238.212 23.9358C238.125 23.9005 238.027 23.9019 237.943 23.9372C237.856 23.9739 237.789 24.0432 237.753 24.1294L238.407 24.3937V24.3951ZM240.105 18.8664C240.084 18.9074 240.073 18.9526 240.07 18.9979C240.067 19.0431 240.073 19.0897 240.088 19.1321C240.103 19.1759 240.127 19.2155 240.156 19.2494C240.187 19.2833 240.223 19.3116 240.265 19.3314C240.306 19.3526 240.35 19.3639 240.396 19.3667C240.442 19.3695 240.488 19.3639 240.531 19.3483C240.574 19.3328 240.614 19.3102 240.648 19.2805C240.683 19.2494 240.71 19.2127 240.731 19.1717L240.105 18.865V18.8664ZM241.359 17.8913C241.387 17.8503 241.404 17.8051 241.412 17.7556C241.422 17.7076 241.419 17.6581 241.408 17.61C241.395 17.562 241.375 17.5182 241.344 17.4786C241.313 17.4404 241.274 17.4079 241.231 17.3853C241.188 17.3627 241.14 17.3486 241.092 17.3458C241.042 17.3429 240.994 17.35 240.947 17.3684C240.902 17.3853 240.86 17.4122 240.825 17.4475C240.792 17.4828 240.764 17.5238 240.747 17.5705L241.374 17.8913H241.36H241.359ZM243.599 12.5449C243.571 12.5831 243.551 12.6269 243.541 12.6721C243.531 12.7187 243.53 12.7668 243.54 12.812C243.548 12.8587 243.567 12.9025 243.593 12.942C243.62 12.9816 243.654 13.0141 243.694 13.041C243.735 13.0664 243.779 13.0834 243.825 13.0918C243.873 13.1003 243.92 13.0975 243.965 13.0862C244.01 13.0749 244.054 13.0551 244.092 13.0254C244.129 12.9972 244.161 12.9618 244.185 12.9208L243.601 12.5449H243.599ZM244.977 11.7365C245.002 11.6984 245.02 11.6546 245.027 11.6093C245.037 11.5641 245.037 11.5175 245.027 11.4723C245.019 11.427 245.001 11.3832 244.975 11.3451C244.95 11.3069 244.916 11.2744 244.879 11.2475C244.84 11.2221 244.797 11.2037 244.752 11.1953C244.707 11.1868 244.66 11.1868 244.613 11.1953C244.57 11.2037 244.526 11.2221 244.488 11.2475C244.45 11.273 244.417 11.3055 244.392 11.3451L244.977 11.7351V11.7365ZM248.039 6.82121C247.989 6.88905 247.964 6.97102 247.97 7.0544C247.976 7.13778 248.011 7.21693 248.072 7.27628C248.13 7.33564 248.21 7.37097 248.294 7.37663C248.377 7.38228 248.459 7.35825 248.527 7.30738L248.025 6.8198H248.039V6.82121ZM249.543 6.31951C249.61 6.25732 249.651 6.1697 249.656 6.07643C249.658 5.98315 249.626 5.8927 249.564 5.82487C249.5 5.75703 249.414 5.71605 249.321 5.71181C249.229 5.70757 249.138 5.74148 249.071 5.80367L249.544 6.31951H249.543ZM253.899 2.56024C253.815 2.59698 253.748 2.66623 253.713 2.75244C253.68 2.83865 253.682 2.93475 253.719 3.01955C253.755 3.10434 253.825 3.17218 253.911 3.20468C253.997 3.2386 254.093 3.23719 254.178 3.20044L253.899 2.56024ZM255.542 2.70015C255.723 2.62949 255.821 2.42174 255.766 2.24084C255.735 2.15463 255.67 2.08256 255.586 2.0444C255.503 2.00483 255.407 2.00059 255.321 2.03168L255.544 2.68602V2.70015H255.542ZM261.443 1.00141C261.35 1.00141 261.263 1.03816 261.198 1.10317C261.133 1.16818 261.096 1.25721 261.096 1.34908C261.096 1.44235 261.133 1.52997 261.198 1.59498C261.263 1.65999 261.35 1.69674 261.443 1.69674V1V1.00141ZM262.92 1.78153C263.012 1.79284 263.105 1.76599 263.177 1.70946C263.25 1.65151 263.298 1.56813 263.308 1.47486C263.318 1.38299 263.293 1.28972 263.236 1.21623C263.178 1.14415 263.093 1.0961 263.003 1.0848L262.92 1.78153ZM268.905 3.00683C268.825 2.96584 268.733 2.95878 268.648 2.98422C268.562 3.00965 268.49 3.0676 268.446 3.14533C268.424 3.18631 268.41 3.23012 268.405 3.27535C268.401 3.32057 268.405 3.36721 268.418 3.41102C268.431 3.45483 268.453 3.49582 268.48 3.53115C268.51 3.56648 268.547 3.59616 268.586 3.61877L268.92 3.00683H268.905ZM269.852 4.39889C269.924 4.42857 270.006 4.43422 270.082 4.41161C270.159 4.389 270.225 4.34236 270.27 4.27735C270.315 4.21234 270.338 4.1332 270.332 4.05405C270.327 3.97491 270.296 3.90001 270.242 3.84206L269.852 4.39889ZM274.794 8.04651C274.734 7.97443 274.65 7.92921 274.556 7.91932C274.465 7.91084 274.371 7.93769 274.301 7.99705C274.229 8.0564 274.182 8.1412 274.174 8.23447C274.164 8.32775 274.192 8.41961 274.251 8.49169L274.794 8.04651ZM275.184 9.676C275.21 9.71274 275.244 9.74383 275.284 9.76645C275.324 9.78906 275.367 9.8046 275.413 9.81167C275.458 9.81874 275.504 9.81591 275.548 9.8046C275.592 9.7933 275.633 9.77351 275.671 9.74666C275.708 9.71981 275.737 9.68448 275.761 9.64632C275.784 9.60675 275.798 9.56294 275.807 9.51771C275.814 9.47249 275.811 9.42726 275.8 9.38204C275.788 9.33823 275.767 9.29583 275.742 9.2605L275.185 9.67741L275.184 9.676ZM279.011 14.5079C278.967 14.4245 278.893 14.3624 278.804 14.3341C278.717 14.3058 278.619 14.3129 278.537 14.3553C278.454 14.3977 278.391 14.4712 278.362 14.5602C278.333 14.6493 278.341 14.7454 278.385 14.8287L278.997 14.5079H279.011ZM85.0196 93.2915C85.0648 93.2971 85.1114 93.2929 85.1552 93.2816C85.199 93.2689 85.2414 93.2477 85.2767 93.2194C85.3135 93.1911 85.3431 93.1558 85.3657 93.1162C85.3883 93.0752 85.4025 93.0314 85.4081 92.9862C85.4138 92.941 85.4095 92.8943 85.3982 92.8505C85.3855 92.8053 85.3643 92.7643 85.3361 92.729C85.3078 92.6923 85.2725 92.6626 85.2329 92.64C85.192 92.6174 85.1482 92.6032 85.103 92.5976L85.0196 93.2943V93.2915ZM90.7822 93.7791C90.7002 93.7663 90.6169 93.7847 90.5476 93.8285C90.477 93.8723 90.4261 93.9402 90.4007 94.0179C90.3753 94.0956 90.3795 94.1818 90.4106 94.2581C90.4417 94.3345 90.4996 94.3966 90.5731 94.4334L90.7822 93.7791ZM91.9378 94.8927C91.9816 94.9068 92.0282 94.9139 92.0734 94.9097C92.1186 94.9068 92.1638 94.8941 92.2062 94.8729C92.2472 94.8517 92.2839 94.8234 92.315 94.7881C92.3461 94.7528 92.3687 94.7118 92.3828 94.668C92.3969 94.6242 92.404 94.5775 92.3997 94.5323C92.3969 94.4857 92.3842 94.4419 92.363 94.3995C92.3418 94.3585 92.3136 94.3217 92.2782 94.2906C92.2429 94.2596 92.202 94.2369 92.1582 94.2228L91.9349 94.8771V94.8913L91.9378 94.8927ZM97.4489 96.6338C97.4093 96.6056 97.3641 96.5844 97.3175 96.5745C97.2694 96.5646 97.22 96.5646 97.1734 96.5745C97.1253 96.5844 97.0801 96.6042 97.0406 96.6338C97.001 96.6621 96.9685 96.6988 96.9431 96.7412C96.9191 96.7836 96.9035 96.8303 96.8979 96.8783C96.8922 96.9264 96.8979 96.9758 96.912 97.0225C96.9261 97.0691 96.9516 97.1115 96.9841 97.1483C97.0166 97.185 97.0561 97.2133 97.1013 97.2331L97.4489 96.6352V96.6338ZM98.3262 97.9566C98.4039 98.0005 98.4957 98.0132 98.5819 97.992C98.668 97.9708 98.7443 97.9171 98.7924 97.8422C98.8404 97.7673 98.8588 97.6768 98.8418 97.5892C98.8249 97.5016 98.7754 97.4238 98.7034 97.3716L98.3276 97.9566H98.3262ZM112.843 111.686C112.791 111.614 112.713 111.565 112.626 111.548C112.538 111.531 112.448 111.549 112.373 111.597C112.298 111.645 112.244 111.72 112.223 111.807C112.202 111.893 112.215 111.985 112.259 112.062L112.843 111.686ZM113.053 113.259C113.105 113.331 113.182 113.381 113.27 113.398C113.358 113.415 113.448 113.396 113.523 113.348C113.598 113.3 113.652 113.224 113.673 113.138C113.694 113.052 113.681 112.96 113.637 112.882L113.053 113.258V113.259ZM116.546 117.882C116.529 117.837 116.501 117.795 116.467 117.759C116.432 117.724 116.391 117.697 116.346 117.68C116.299 117.663 116.251 117.655 116.201 117.657C116.152 117.66 116.104 117.674 116.062 117.697C116.018 117.72 115.98 117.751 115.95 117.79C115.919 117.83 115.898 117.874 115.886 117.922C115.874 117.97 115.872 118.019 115.882 118.067C115.891 118.115 115.909 118.162 115.937 118.203L116.549 117.882H116.546ZM116.601 119.469C116.622 119.51 116.651 119.547 116.686 119.577C116.721 119.606 116.762 119.629 116.806 119.643C116.85 119.657 116.897 119.663 116.942 119.66C116.988 119.656 117.032 119.643 117.075 119.622C117.116 119.601 117.152 119.572 117.182 119.537C117.212 119.502 117.234 119.461 117.248 119.417C117.262 119.373 117.268 119.327 117.265 119.281C117.261 119.235 117.248 119.191 117.227 119.15L116.601 119.469ZM119.719 124.356C119.682 124.272 119.613 124.205 119.527 124.171C119.441 124.137 119.345 124.139 119.26 124.175C119.175 124.212 119.107 124.281 119.075 124.368C119.041 124.454 119.043 124.55 119.079 124.635L119.719 124.356ZM119.65 125.958C119.687 126.042 119.756 126.109 119.842 126.143C119.886 126.16 119.931 126.168 119.976 126.167C120.022 126.165 120.067 126.157 120.109 126.138C120.152 126.12 120.19 126.093 120.221 126.061C120.253 126.028 120.277 125.989 120.294 125.946C120.311 125.904 120.32 125.859 120.318 125.812C120.318 125.767 120.308 125.722 120.29 125.679L119.65 125.958ZM122.434 131.04C122.402 130.953 122.336 130.883 122.249 130.845C122.165 130.806 122.069 130.805 121.981 130.838C121.895 130.87 121.824 130.936 121.786 131.021C121.748 131.106 121.745 131.202 121.779 131.29L122.433 131.04H122.434ZM122.268 132.627C122.278 132.675 122.299 132.72 122.327 132.761C122.355 132.801 122.394 132.833 122.436 132.857C122.478 132.883 122.526 132.897 122.574 132.902C122.624 132.907 122.673 132.901 122.718 132.885C122.765 132.868 122.807 132.844 122.844 132.81C122.879 132.778 122.908 132.736 122.928 132.69C122.946 132.645 122.956 132.596 122.954 132.548C122.953 132.498 122.942 132.45 122.92 132.405L122.266 132.628L122.268 132.627ZM124.774 137.863C124.76 137.818 124.737 137.778 124.709 137.743C124.679 137.707 124.643 137.679 124.603 137.657C124.562 137.635 124.518 137.621 124.472 137.617C124.426 137.614 124.38 137.618 124.336 137.632C124.292 137.647 124.251 137.669 124.216 137.699C124.181 137.727 124.151 137.764 124.13 137.805C124.109 137.846 124.094 137.89 124.09 137.936C124.086 137.982 124.092 138.028 124.104 138.072L124.758 137.863H124.773H124.774ZM124.524 139.45C124.538 139.494 124.559 139.535 124.589 139.57C124.619 139.605 124.654 139.634 124.695 139.656C124.736 139.677 124.78 139.689 124.826 139.693C124.871 139.697 124.918 139.693 124.962 139.679C125.006 139.665 125.047 139.642 125.082 139.614C125.117 139.584 125.147 139.547 125.168 139.508C125.189 139.467 125.202 139.422 125.206 139.376C125.211 139.331 125.206 139.285 125.192 139.241L124.524 139.45ZM126.779 144.784C126.748 144.703 126.688 144.637 126.612 144.598C126.536 144.559 126.447 144.55 126.363 144.573C126.28 144.596 126.209 144.648 126.161 144.72C126.115 144.792 126.096 144.88 126.11 144.966L126.779 144.785V144.784ZM126.472 146.357C126.483 146.4 126.505 146.443 126.533 146.481C126.561 146.518 126.596 146.547 126.636 146.571C126.677 146.595 126.721 146.611 126.766 146.617C126.811 146.624 126.859 146.619 126.903 146.608C126.948 146.595 126.989 146.576 127.027 146.546C127.064 146.519 127.095 146.484 127.118 146.443C127.14 146.402 127.156 146.359 127.163 146.313C127.169 146.266 127.166 146.219 127.154 146.174L126.472 146.355V146.357ZM128.518 151.786C128.499 151.696 128.446 151.617 128.369 151.566C128.292 151.515 128.198 151.498 128.108 151.515C128.018 151.533 127.939 151.587 127.888 151.665C127.837 151.741 127.818 151.836 127.837 151.926L128.519 151.786H128.518ZM128.156 153.332C128.174 153.423 128.228 153.502 128.306 153.554C128.382 153.604 128.477 153.622 128.567 153.604C128.658 153.585 128.737 153.532 128.788 153.455C128.838 153.378 128.857 153.284 128.838 153.194L128.156 153.332ZM130.021 158.833C130.003 158.742 129.949 158.663 129.871 158.612C129.795 158.561 129.7 158.544 129.61 158.561C129.519 158.58 129.44 158.634 129.389 158.71C129.339 158.786 129.32 158.881 129.339 158.971L130.035 158.831H130.021V158.833ZM129.603 160.365C129.658 160.56 129.84 160.684 130.021 160.643C130.111 160.626 130.19 160.574 130.243 160.499C130.295 160.424 130.315 160.331 130.299 160.24L129.603 160.379V160.365ZM131.357 165.906C131.347 165.861 131.33 165.817 131.304 165.779C131.278 165.739 131.244 165.707 131.205 165.681C131.167 165.655 131.123 165.636 131.078 165.628C131.032 165.618 130.984 165.618 130.939 165.628C130.894 165.636 130.85 165.655 130.812 165.681C130.772 165.708 130.74 165.741 130.715 165.779C130.689 165.819 130.671 165.862 130.661 165.906C130.652 165.951 130.652 165.999 130.661 166.046L131.357 165.906ZM131.538 165.99C131.542 165.944 131.537 165.898 131.523 165.854C131.508 165.81 131.486 165.769 131.456 165.734C131.427 165.698 131.39 165.672 131.349 165.65C131.308 165.629 131.264 165.616 131.217 165.614C131.172 165.609 131.126 165.615 131.082 165.629C131.038 165.643 130.997 165.666 130.963 165.696C130.928 165.724 130.9 165.761 130.878 165.803C130.857 165.844 130.846 165.888 130.842 165.934L131.538 165.99ZM131.329 160.253C131.319 160.345 131.347 160.437 131.407 160.509C131.465 160.581 131.551 160.626 131.643 160.636C131.736 160.646 131.828 160.618 131.898 160.558C131.97 160.5 132.016 160.416 132.026 160.324L131.329 160.255V160.253ZM132.164 158.875C132.174 158.783 132.146 158.69 132.086 158.619C132.028 158.547 131.944 158.502 131.85 158.492C131.757 158.482 131.665 158.511 131.595 158.569C131.523 158.628 131.477 158.713 131.468 158.805L132.164 158.875ZM132.081 153.151C132.052 153.332 132.192 153.513 132.387 153.527C132.568 153.556 132.749 153.416 132.763 153.221L132.067 153.15H132.081V153.151ZM132.916 151.829C132.93 151.779 132.933 151.73 132.925 151.68C132.918 151.629 132.9 151.583 132.872 151.54C132.844 151.499 132.807 151.463 132.764 151.436C132.721 151.409 132.674 151.392 132.623 151.385C132.574 151.379 132.523 151.383 132.475 151.4C132.427 151.416 132.383 151.441 132.346 151.475C132.31 151.511 132.28 151.552 132.26 151.598C132.24 151.646 132.232 151.696 132.233 151.745L132.93 151.829H132.916ZM132.944 146.078C132.938 146.125 132.942 146.17 132.954 146.215C132.966 146.259 132.986 146.3 133.016 146.337C133.044 146.373 133.079 146.403 133.119 146.426C133.159 146.45 133.204 146.464 133.249 146.47C133.294 146.475 133.341 146.471 133.385 146.458C133.428 146.446 133.471 146.426 133.506 146.398C133.543 146.368 133.572 146.334 133.595 146.293C133.618 146.253 133.632 146.21 133.637 146.163L132.941 146.08L132.944 146.078ZM133.821 144.755C133.832 144.663 133.806 144.57 133.749 144.497C133.691 144.425 133.608 144.377 133.516 144.365C133.423 144.354 133.331 144.381 133.257 144.437C133.184 144.494 133.137 144.58 133.126 144.671L133.823 144.754L133.821 144.755ZM133.933 139.019C133.904 139.214 134.044 139.381 134.225 139.409C134.42 139.437 134.601 139.311 134.629 139.131L133.933 139.019ZM134.837 137.724C134.844 137.679 134.843 137.632 134.831 137.587C134.821 137.542 134.802 137.5 134.773 137.461C134.746 137.426 134.713 137.394 134.673 137.368C134.633 137.344 134.59 137.327 134.544 137.32C134.499 137.313 134.451 137.315 134.406 137.326C134.361 137.336 134.318 137.354 134.282 137.382C134.245 137.409 134.212 137.445 134.188 137.483C134.164 137.522 134.147 137.566 134.14 137.613L134.837 137.724ZM135.06 131.974C135.052 132.019 135.053 132.067 135.062 132.112C135.071 132.158 135.09 132.201 135.117 132.239C135.143 132.278 135.177 132.31 135.216 132.336C135.255 132.361 135.297 132.378 135.344 132.385C135.389 132.394 135.437 132.392 135.483 132.384C135.528 132.374 135.572 132.355 135.61 132.329C135.648 132.302 135.68 132.268 135.706 132.23C135.731 132.19 135.748 132.148 135.757 132.101L135.06 131.975V131.974ZM135.978 130.693C135.983 130.609 135.954 130.524 135.901 130.459C135.847 130.392 135.771 130.349 135.687 130.334C135.603 130.32 135.516 130.339 135.444 130.384C135.372 130.429 135.32 130.5 135.296 130.582L135.993 130.693H135.978ZM136.312 124.957C136.293 125.049 136.312 125.145 136.364 125.223C136.416 125.3 136.497 125.356 136.59 125.374C136.683 125.392 136.778 125.374 136.857 125.322C136.935 125.269 136.99 125.187 137.008 125.095L136.312 124.957ZM137.272 123.703C137.282 123.658 137.282 123.61 137.272 123.565C137.264 123.52 137.246 123.476 137.219 123.438C137.193 123.398 137.159 123.366 137.121 123.34C137.083 123.315 137.039 123.296 136.994 123.286C136.949 123.278 136.901 123.277 136.856 123.286C136.81 123.295 136.767 123.313 136.729 123.339C136.689 123.364 136.656 123.398 136.63 123.436C136.604 123.476 136.586 123.518 136.576 123.563L137.272 123.703ZM137.717 117.98C137.709 118.025 137.708 118.07 137.717 118.115C137.726 118.161 137.743 118.203 137.768 118.241C137.819 118.319 137.898 118.373 137.989 118.391C138.079 118.409 138.174 118.391 138.25 118.34C138.328 118.289 138.381 118.21 138.4 118.12L137.703 117.98H137.717ZM138.692 116.726C138.702 116.681 138.702 116.636 138.692 116.59C138.684 116.545 138.667 116.503 138.641 116.465C138.616 116.427 138.583 116.394 138.545 116.369C138.507 116.343 138.465 116.325 138.42 116.316C138.374 116.306 138.329 116.306 138.284 116.315C138.239 116.323 138.196 116.342 138.158 116.366C138.12 116.391 138.088 116.424 138.062 116.462C138.037 116.5 138.018 116.542 138.01 116.586L138.706 116.726H138.692ZM139.277 111.017C139.257 111.063 139.247 111.114 139.25 111.165C139.252 111.216 139.264 111.265 139.288 111.311C139.311 111.356 139.344 111.395 139.384 111.426C139.424 111.458 139.471 111.48 139.52 111.491C139.57 111.503 139.62 111.503 139.671 111.493C139.721 111.483 139.769 111.46 139.808 111.431C139.849 111.4 139.882 111.361 139.906 111.316C139.93 111.271 139.944 111.221 139.947 111.171L139.279 111.018L139.277 111.017ZM140.279 109.791C140.301 109.701 140.286 109.605 140.238 109.526C140.19 109.446 140.112 109.388 140.022 109.367C139.931 109.345 139.835 109.36 139.756 109.408C139.677 109.456 139.619 109.534 139.598 109.625L140.28 109.791H140.279ZM141.002 104.096C140.985 104.141 140.977 104.191 140.979 104.239C140.981 104.287 140.994 104.335 141.016 104.378C141.039 104.422 141.07 104.46 141.107 104.492C141.145 104.523 141.189 104.545 141.235 104.558C141.283 104.571 141.333 104.574 141.379 104.566C141.427 104.559 141.474 104.541 141.515 104.516C141.556 104.489 141.591 104.453 141.618 104.414C141.645 104.373 141.663 104.328 141.67 104.278L141.002 104.097V104.096ZM142.032 102.899C142.046 102.814 142.028 102.726 141.981 102.654C141.934 102.582 141.862 102.53 141.779 102.507C141.696 102.485 141.608 102.493 141.53 102.533C141.454 102.572 141.395 102.637 141.364 102.718L142.032 102.899ZM147.461 83.711C147.444 83.7548 147.436 83.8014 147.437 83.8467C147.438 83.8933 147.448 83.9385 147.468 83.9809C147.487 84.0233 147.515 84.0615 147.549 84.0926C147.583 84.1237 147.624 84.1491 147.666 84.1646C147.71 84.1802 147.756 84.1873 147.803 84.1844C147.85 84.183 147.895 84.1703 147.937 84.1505C147.98 84.1293 148.016 84.101 148.047 84.0657C148.078 84.0304 148.101 83.9894 148.115 83.9456L147.461 83.7082V83.711ZM148.617 82.6256C148.642 82.5818 148.658 82.5337 148.662 82.4829C148.666 82.4334 148.661 82.3825 148.645 82.3345C148.628 82.2864 148.601 82.244 148.567 82.2073C148.532 82.1719 148.491 82.1437 148.443 82.1253C148.396 82.1069 148.345 82.0985 148.296 82.1027C148.247 82.1055 148.197 82.1197 148.152 82.1437C148.108 82.1677 148.07 82.2002 148.039 82.2398C148.008 82.2794 147.987 82.326 147.977 82.3755L148.617 82.627V82.6256ZM150.148 77.0969C150.111 77.1831 150.111 77.2821 150.147 77.3697C150.182 77.4573 150.25 77.5266 150.336 77.5633C150.424 77.6001 150.521 77.6015 150.609 77.5661C150.696 77.5308 150.765 77.463 150.802 77.3753L150.162 77.0969H150.148ZM151.373 76.0808C151.391 76.0384 151.401 75.9932 151.401 75.948C151.401 75.9027 151.394 75.8561 151.377 75.8137C151.36 75.7713 151.335 75.7317 151.304 75.6992C151.271 75.6667 151.233 75.6399 151.192 75.6215C151.15 75.6031 151.105 75.5932 151.059 75.5932C151.014 75.5932 150.968 75.6003 150.925 75.6173C150.883 75.6342 150.843 75.6597 150.811 75.6907C150.778 75.7233 150.751 75.7614 150.733 75.8024L151.373 76.0808ZM153.224 70.6496C153.193 70.6906 153.171 70.7373 153.161 70.7881C153.152 70.8376 153.152 70.8899 153.163 70.9394C153.174 70.9888 153.197 71.0355 153.229 71.075C153.26 71.1146 153.301 71.1471 153.347 71.1697C153.392 71.1923 153.443 71.2051 153.493 71.2065C153.544 71.2079 153.595 71.198 153.642 71.1782C153.688 71.1584 153.731 71.1273 153.763 71.0892C153.796 71.051 153.821 71.0058 153.835 70.9563L153.224 70.6496ZM154.491 69.7169C154.535 69.6349 154.545 69.5402 154.519 69.4512C154.492 69.3622 154.433 69.2873 154.351 69.2435C154.269 69.1996 154.174 69.1898 154.085 69.2152C153.996 69.242 153.923 69.3014 153.878 69.3834L154.491 69.7169ZM156.717 64.4115C156.669 64.4907 156.655 64.5868 156.676 64.6758C156.699 64.7662 156.755 64.844 156.835 64.892C156.914 64.9401 157.01 64.9542 157.099 64.933C157.189 64.9104 157.265 64.8539 157.314 64.7747L156.716 64.4129L156.717 64.4115ZM158.054 63.5763C158.086 63.5381 158.11 63.4929 158.124 63.4449C158.139 63.3968 158.141 63.3459 158.134 63.2965C158.126 63.247 158.107 63.1989 158.081 63.158C158.052 63.117 158.016 63.0802 157.973 63.0548C157.931 63.0279 157.883 63.011 157.833 63.0053C157.784 62.9997 157.733 63.0039 157.685 63.0195C157.637 63.035 157.593 63.0604 157.557 63.0944C157.52 63.1283 157.49 63.1707 157.47 63.2159L158.055 63.5918V63.5777L158.054 63.5763ZM160.755 58.5083C160.7 58.5818 160.676 58.6751 160.689 58.7656C160.701 58.8574 160.751 58.9394 160.824 58.9945C160.898 59.0496 160.989 59.0736 161.081 59.0609C161.173 59.0482 161.255 58.9987 161.31 58.9253L160.754 58.5083H160.755ZM194.341 44.8209L195.038 44.9736L195.19 44.291L194.494 44.151L194.354 44.8195H194.34L194.341 44.8209ZM200.396 46.8122L201.676 47.4242L201.997 46.8122L200.689 46.172L200.41 46.8122H200.396ZM206.451 50.5022C206.827 50.7806 207.189 51.0873 207.565 51.394L207.995 50.864C207.634 50.5446 207.258 50.2365 206.882 49.9454L206.451 50.5022ZM211.615 55.3766C211.934 55.7242 212.241 56.086 212.547 56.4619L213.077 56.0168L212.145 54.9031L211.616 55.3766H211.615ZM215.958 61.0437L216.723 62.2422L217.308 61.8662C217.052 61.4592 216.792 61.0564 216.528 60.6551L215.958 61.0451V61.0437ZM219.577 67.1985L220.245 68.4647L220.857 68.1581L220.203 66.8777L219.577 67.1985ZM222.667 73.6585L223.223 74.9813L223.863 74.7029L223.307 73.3801L222.653 73.6585H222.667ZM225.297 80.3149L225.534 80.9975L226.189 80.7601L225.951 80.0775L225.297 80.3135V80.3149ZM226.215 80.9C226.215 80.6626 226.244 80.4266 226.258 80.2033L225.561 80.1482L225.519 80.8576L226.215 80.9ZM226.731 74.4951L226.871 73.0465L226.189 72.9773L226.049 74.4117L226.731 74.481V74.4951ZM227.58 67.3652L227.789 65.9449L227.093 65.8474L226.898 67.2677L227.594 67.3652H227.58ZM228.681 60.2777L228.931 58.8716L228.234 58.7316L227.997 60.1661L228.679 60.2777H228.681ZM230.003 53.2326L230.281 51.8406L229.613 51.7021L229.321 53.0941L230.003 53.2341V53.2326ZM231.548 46.2427L231.896 44.8506L231.214 44.6838L230.88 46.0759L231.548 46.2427ZM233.358 39.2937L233.699 38.1009C233.468 38.0528 233.244 37.9906 233.025 37.9143C232.905 38.3143 232.786 38.7128 232.69 39.1128L233.358 39.2937ZM237.854 25.7038L238.396 24.381L237.742 24.1167L237.212 25.4536L237.854 25.7179V25.7038ZM240.72 19.159L241.36 17.8786L240.733 17.5592L240.093 18.8537L240.72 19.1604V19.159ZM244.173 12.9067L244.967 11.7238L244.382 11.3338L243.588 12.5308L244.173 12.9067ZM248.515 7.29466C248.849 6.94699 249.184 6.62618 249.531 6.30537L249.058 5.79095L248.014 6.80708L248.515 7.29466ZM254.181 3.20044L254.835 2.93617L254.585 2.28183L253.902 2.56024L254.181 3.20044ZM254.835 2.93617L255.544 2.68461L255.321 2.03027L254.583 2.28041L254.833 2.93475L254.835 2.93617ZM261.432 1.6826C261.948 1.69674 262.434 1.725 262.921 1.78012L263.004 1.08338C262.489 1.02827 261.975 1 261.445 1V1.69674L261.431 1.6826H261.432ZM268.572 3.61877C269.017 3.8562 269.435 4.12048 269.852 4.41302L270.242 3.82793C269.824 3.54952 269.365 3.27111 268.92 3.00683L268.571 3.61877H268.572ZM274.251 8.49169C274.572 8.88175 274.891 9.27181 275.184 9.67458L275.74 9.25767C275.434 8.83935 275.114 8.43657 274.794 8.04651L274.251 8.49169ZM278.385 14.8273L278.734 15.4958L279.36 15.1891L279.012 14.4924L278.385 14.8259V14.8273ZM84.3245 93.2208L85.0337 93.3042L85.1171 92.6075L84.3796 92.5241L84.3245 93.2208ZM90.5886 94.4461L91.9533 94.8913L92.1765 94.2369L90.785 93.7918L90.59 94.4461H90.5886ZM97.131 97.2444L98.3417 97.968L98.7175 97.3829C98.2993 97.1186 97.8826 96.8812 97.4644 96.6451L97.1154 97.2444H97.1296H97.131ZM112.288 112.088L113.067 113.271L113.652 112.895L112.858 111.698L112.273 112.074L112.287 112.088H112.288ZM115.949 118.214C116.186 118.633 116.408 119.05 116.617 119.482L117.244 119.161L116.562 117.895L115.95 118.214H115.949ZM119.095 124.662L119.666 125.97L120.305 125.692L119.735 124.369L119.095 124.647V124.662ZM121.795 131.304L122.282 132.641L122.936 132.418L122.449 131.052L121.795 131.302V131.304ZM124.118 138.085L124.537 139.464L125.205 139.255L124.787 137.863L124.118 138.086V138.085ZM126.123 144.977L126.485 146.369L127.167 146.188L126.791 144.796L126.123 144.977ZM127.85 151.939L128.17 153.345L128.853 153.205L128.533 151.785L127.851 151.937L127.85 151.939ZM129.353 158.971L129.631 160.392L130.313 160.252L130.035 158.845L129.353 158.984V158.97V158.971ZM130.689 166.045L130.815 166.727L131.497 166.589L131.359 165.92L130.691 166.059V166.045H130.689ZM131.496 166.685L131.551 165.988L130.854 165.946L130.799 166.642L131.496 166.685ZM132.052 160.335C132.081 159.862 132.136 159.374 132.192 158.886L131.496 158.817L131.357 160.266L132.052 160.335ZM132.777 153.233L132.944 151.841L132.247 151.758L132.095 153.15L132.791 153.233H132.777ZM133.64 146.174L133.835 144.782L133.139 144.685L132.958 146.077L133.654 146.174H133.64ZM134.642 139.129L134.851 137.737L134.155 137.625L133.945 139.017L134.642 139.129ZM135.755 132.111L135.991 130.719L135.309 130.579L135.071 131.985L135.768 132.111H135.754H135.755ZM137.008 125.107L137.287 123.715L136.59 123.576L136.326 124.968L137.022 125.108H137.008V125.107ZM138.4 118.131L138.706 116.739L138.024 116.6L137.732 117.992L138.414 118.131H138.4ZM139.958 111.183L140.291 109.804L139.609 109.637L139.29 111.029L139.958 111.182V111.183ZM141.684 104.291L142.046 102.912L141.378 102.731L141.016 104.123L141.684 104.289V104.291ZM148.129 83.9753L148.631 82.6383L147.991 82.3882L147.475 83.7251L148.129 83.9626V83.9767V83.9753ZM150.816 77.3895L151.373 76.0949L150.746 75.8165L150.175 77.1111L150.816 77.3895ZM153.851 70.9846L154.505 69.731L153.893 69.3975L153.239 70.6511L153.851 70.9719V70.986V70.9846ZM157.33 64.7889L158.068 63.606L157.483 63.23L156.731 64.4285L157.33 64.7903V64.7889ZM161.326 58.9408L161.742 58.3981L161.601 58.2865C161.416 58.2511 161.232 58.2172 161.049 58.1847L160.768 58.5366L161.324 58.9535V58.9394L161.326 58.9408Z" fill="#0B0B0B"/>
<path d="M196.678 102.248V104.922M196.678 107.066V109.74M298.135 14.5947V20.2195M298.135 24.7165V30.3285M295.894 22.4609H290.272M306 22.4609H300.39M100.831 138.2V141.945M100.831 144.952V148.685M99.3277 143.45H95.584M106.065 143.45H102.32M195.606 105.993H192.933M200.408 105.993H197.749" stroke="#0B0B0B" stroke-width="0.500375" stroke-miterlimit="22.9256" stroke-linecap="round"/>
<path d="M106.822 109.03C108.282 109.03 109.605 108.438 110.561 107.481C111.519 106.525 112.111 105.201 112.111 103.74C112.111 102.279 111.518 100.956 110.561 99.999C109.606 99.0408 108.282 98.4487 106.822 98.4487C105.361 98.4487 104.037 99.0408 103.082 99.9976C102.126 100.956 101.534 102.28 101.534 103.74C101.534 105.201 102.126 106.524 103.082 107.481C104.039 108.438 105.362 109.03 106.822 109.03ZM111.053 107.973C109.971 109.057 108.475 109.728 106.822 109.728C105.169 109.728 103.673 109.058 102.589 107.974C101.507 106.891 100.836 105.393 100.836 103.74C100.836 102.086 101.506 100.59 102.589 99.5058C103.673 98.4218 105.17 97.752 106.822 97.752C108.473 97.752 109.969 98.4218 111.053 99.5072C112.136 100.59 112.807 102.086 112.807 103.74C112.807 105.392 112.138 106.889 111.053 107.973Z" fill="#0B0B0B"/>
<path d="M234.859 37.8755C236.32 37.8755 237.643 37.2833 238.598 36.3265C239.555 35.3683 240.147 34.0441 240.147 32.5842C240.147 31.1229 239.555 29.8001 238.598 28.8433C237.643 27.8851 236.32 27.293 234.859 27.293C233.398 27.293 232.074 27.8851 231.119 28.8419C230.161 29.7987 229.57 31.1229 229.57 32.5842C229.57 34.0455 230.161 35.3698 231.118 36.3251C232.074 37.2833 233.398 37.8755 234.859 37.8755ZM239.09 36.8183C238.006 37.9023 236.509 38.5736 234.859 38.5736C233.209 38.5736 231.711 37.9037 230.628 36.8198C229.543 35.7344 228.873 34.2363 228.873 32.5856C228.873 30.9349 229.543 29.4369 230.626 28.3529C231.711 27.2675 233.209 26.5977 234.859 26.5977C236.51 26.5977 238.006 27.2675 239.09 28.3529C240.174 29.4355 240.845 30.9321 240.845 32.5856C240.845 34.2391 240.175 35.7358 239.091 36.8183H239.09Z" fill="#0B0B0B"/>
<path fill-rule="evenodd" clip-rule="evenodd" d="M246.441 96.2232V95.9095H246.423L246.426 95.9321C246.327 94.8905 245.762 93.9422 244.855 93.083L244.759 92.9996C244.345 92.6222 243.86 92.2605 243.312 91.9184C242.504 91.397 241.641 90.9659 240.735 90.6324L240.59 90.5801C239.102 89.9978 237.376 89.5117 235.477 89.1499C228.959 87.82 219.999 88.2313 214.011 90.6324C213.112 90.9631 212.255 91.3899 211.454 91.9057L211.39 91.9467C210.859 92.2802 210.388 92.6321 209.986 93.001L209.89 93.0844C209.418 93.473 209.032 93.9564 208.76 94.5033C208.721 94.5796 208.685 94.6573 208.652 94.7365V94.7379L208.642 94.7619C208.421 95.2453 208.305 95.7456 208.305 96.2586V96.308C208.305 138.738 208.305 128.73 208.305 171.16C208.305 173.632 211.071 175.493 213.173 176.444C217.013 178.157 222.248 178.999 227.374 178.999C232.621 178.999 239.884 178.093 244.167 174.905C245.389 173.984 246.443 172.765 246.443 171.16C246.443 128.73 246.443 138.738 246.443 96.308V96.2586V96.2246L246.441 96.2232ZM245.746 103.736C245.746 104.641 245.287 105.547 244.382 106.382C243.236 107.389 241.915 108.178 240.484 108.707C237.143 110.043 232.509 110.865 227.372 110.865V111.561C232.578 111.561 237.297 110.726 240.735 109.347C242.253 108.793 243.654 107.962 244.869 106.896C245.211 106.568 245.506 106.223 245.746 105.864V103.735V103.736ZM227.374 110.865C222.237 110.865 217.602 110.029 214.262 108.707C212.831 108.182 211.51 107.398 210.364 106.394C209.46 105.531 209.001 104.641 209.001 103.735V105.869C209.243 106.226 209.541 106.57 209.891 106.896C211.102 107.959 212.499 108.79 214.011 109.347C217.449 110.726 222.166 111.575 227.374 111.575V110.879V110.865ZM245.746 111.226C245.746 112.131 245.287 113.037 244.382 113.872C243.236 114.88 241.915 115.668 240.484 116.197C237.143 117.534 232.509 118.355 227.372 118.355V119.052C232.578 119.052 237.297 118.216 240.735 116.837C242.253 116.283 243.654 115.452 244.869 114.386C245.211 114.059 245.506 113.714 245.746 113.355V111.225V111.226ZM227.374 118.355C222.237 118.355 217.602 117.52 214.262 116.197C212.831 115.673 211.51 114.888 210.364 113.885C209.46 113.021 209.001 112.131 209.001 111.225V113.359C209.243 113.717 209.541 114.06 209.891 114.386C211.102 115.449 212.499 116.28 214.011 116.837C217.449 118.216 222.166 119.066 227.374 119.066V118.369V118.355ZM245.746 118.736C245.746 119.641 245.287 120.547 244.382 121.382C243.236 122.39 241.915 123.178 240.484 123.707C237.143 125.044 232.509 125.865 227.372 125.865V126.562C232.578 126.562 237.297 125.726 240.735 124.347C242.253 123.793 243.654 122.962 244.869 121.897C245.211 121.569 245.506 121.224 245.746 120.865V118.735V118.736ZM227.374 125.865C222.237 125.865 217.602 125.03 214.262 123.707C212.831 123.183 211.51 122.398 210.364 121.395C209.46 120.531 209.001 119.641 209.001 118.735V120.869C209.243 121.227 209.541 121.57 209.891 121.897C211.102 122.959 212.499 123.79 214.011 124.347C217.449 125.726 222.166 126.576 227.374 126.576V125.879V125.865ZM245.746 126.207C245.746 127.111 245.287 128.017 244.382 128.853C243.236 129.86 241.915 130.649 240.484 131.177C237.143 132.514 232.509 133.335 227.372 133.335V134.032C232.578 134.032 237.297 133.197 240.735 131.818C242.253 131.264 243.654 130.433 244.869 129.367C245.211 129.039 245.506 128.694 245.746 128.335V126.206V126.207ZM227.374 133.335C222.237 133.335 217.602 132.5 214.262 131.177C212.831 130.653 211.51 129.869 210.364 128.865C209.46 128.002 209.001 127.111 209.001 126.206V128.34C209.243 128.697 209.541 129.041 209.891 129.367C211.102 130.43 212.499 131.261 214.011 131.818C217.449 133.197 222.166 134.046 227.374 134.046V133.35V133.335ZM245.746 133.727C245.746 134.631 245.287 135.537 244.382 136.373C243.236 137.38 241.915 138.169 240.484 138.697C237.143 140.034 232.509 140.855 227.372 140.855V141.552C232.578 141.552 237.297 140.717 240.735 139.338C242.253 138.784 243.654 137.953 244.869 136.887C245.211 136.559 245.506 136.214 245.746 135.855V133.725V133.727ZM227.374 140.855C222.237 140.855 217.602 140.02 214.262 138.697C212.831 138.173 211.51 137.389 210.364 136.385C209.46 135.522 209.001 134.631 209.001 133.725V135.86C209.243 136.217 209.541 136.56 209.891 136.887C211.102 137.95 212.499 138.781 214.011 139.338C217.449 140.717 222.166 141.566 227.374 141.566V140.87V140.855ZM245.746 141.207C245.746 142.112 245.287 143.018 244.382 143.853C243.236 144.861 241.915 145.649 240.484 146.178C237.143 147.515 232.509 148.336 227.372 148.336V149.032C232.578 149.032 237.297 148.197 240.735 146.818C242.253 146.264 243.654 145.433 244.869 144.367C245.211 144.039 245.506 143.695 245.746 143.336V141.206V141.207ZM227.374 148.336C222.237 148.336 217.602 147.501 214.262 146.178C212.831 145.653 211.51 144.869 210.364 143.866C209.46 143.002 209.001 142.112 209.001 141.206V143.34C209.243 143.697 209.541 144.041 209.891 144.367C211.102 145.43 212.499 146.261 214.011 146.818C217.449 148.197 222.166 149.047 227.374 149.047V148.35V148.336ZM245.746 148.664C245.746 149.568 245.287 150.474 244.382 151.309C243.236 152.317 241.915 153.106 240.484 153.634C237.143 154.971 232.509 155.792 227.372 155.792V156.489C232.578 156.489 237.297 155.654 240.735 154.274C242.253 153.72 243.654 152.889 244.869 151.824C245.211 151.496 245.506 151.151 245.746 150.792V148.662V148.664ZM227.374 155.792C222.237 155.792 217.602 154.957 214.262 153.634C212.831 153.11 211.51 152.325 210.364 151.322C209.46 150.458 209.001 149.568 209.001 148.662V150.796C209.243 151.154 209.541 151.497 209.891 151.824C211.102 152.886 212.499 153.717 214.011 154.274C217.449 155.654 222.166 156.503 227.374 156.503V155.806V155.792ZM245.746 156.186C245.746 157.091 245.287 157.997 244.382 158.832C243.236 159.84 241.915 160.628 240.484 161.157C237.143 162.494 232.509 163.315 227.372 163.315V164.012C232.578 164.012 237.297 163.176 240.735 161.797C242.253 161.243 243.654 160.412 244.869 159.346C245.211 159.019 245.506 158.674 245.746 158.315V156.185V156.186ZM227.374 163.315C222.237 163.315 217.602 162.48 214.262 161.157C212.831 160.633 211.51 159.848 210.364 158.845C209.46 157.981 209.001 157.091 209.001 156.185V158.319C209.243 158.677 209.541 159.02 209.891 159.346C211.102 160.409 212.499 161.24 214.011 161.797C217.449 163.176 222.166 164.026 227.374 164.026V163.329V163.315ZM245.746 163.579C245.746 164.484 245.287 165.39 244.382 166.225C243.236 167.232 241.915 168.021 240.484 168.55C237.143 169.887 232.509 170.708 227.372 170.708V171.404C232.578 171.404 237.297 170.569 240.735 169.19C242.253 168.636 243.654 167.805 244.869 166.739C245.211 166.411 245.506 166.067 245.746 165.708V163.578V163.579ZM227.374 170.708C222.237 170.708 217.602 169.872 214.262 168.55C212.831 168.025 211.51 167.241 210.364 166.238C209.46 165.374 209.001 164.484 209.001 163.578V165.712C209.243 166.069 209.541 166.413 209.891 166.739C211.102 167.802 212.499 168.633 214.011 169.19C217.449 170.569 222.166 171.419 227.374 171.419V170.722V170.708ZM227.374 103.397C232.502 103.397 237.136 102.567 240.483 101.229C243.735 99.9274 245.746 98.1665 245.746 96.2529L245.745 96.1667V96.1639C245.731 95.747 245.622 95.3357 245.426 94.9372L245.405 94.8962L245.383 94.8538L245.382 94.8524L245.361 94.8114L245.338 94.7704L245.337 94.7676L245.294 94.6927L245.29 94.687L245.287 94.6828L245.265 94.646L245.239 94.6051L245.235 94.5994L245.212 94.5641L245.181 94.516L245.159 94.4807L245.13 94.4397L245.125 94.4326L245.101 94.3987L245.071 94.3577L245.065 94.3492L245.04 94.3167L245.009 94.2758L245.003 94.2673L244.978 94.2348L244.945 94.1938L244.938 94.1853L244.911 94.1528L244.879 94.1118L244.872 94.1033L244.845 94.0722L244.81 94.0313L244.803 94.0228L244.774 93.9903C244.64 93.8377 244.493 93.6878 244.334 93.5409L244.329 93.5366C243.917 93.1805 243.483 92.854 243.031 92.5558L243.023 92.5502C242.298 92.0923 241.445 91.6683 240.483 91.2825C233.247 88.3881 221.5 88.3881 214.265 91.2825C213.3 91.6697 212.443 92.0965 211.716 92.5544L211.664 92.5883C211.23 92.8766 210.814 93.1932 210.418 93.5366L210.414 93.5409C210.301 93.6454 210.192 93.7529 210.092 93.8603L210.083 93.8687L210.047 93.9097L210.018 93.9422L210.01 93.9507L209.973 93.9917L209.945 94.0242L209.938 94.0327L209.902 94.0737L209.876 94.1048L209.869 94.1132L209.836 94.1542L209.809 94.1867L209.802 94.1952L209.77 94.2362L209.744 94.2687L209.739 94.2772L209.708 94.3182L209.682 94.3507L209.676 94.3591L209.647 94.4001L209.623 94.4326L209.617 94.4411L209.589 94.4821L209.566 94.516L209.562 94.5231L209.535 94.5641L209.513 94.5994L209.508 94.6051L209.483 94.646L209.46 94.6828L209.457 94.687L209.433 94.728L209.411 94.7662L209.409 94.769L209.387 94.81L209.366 94.8495V94.851L209.343 94.8934L209.322 94.9343L209.302 94.9753L209.244 95.1011L209.243 95.1053C209.172 95.2707 209.116 95.4389 209.076 95.607L209.072 95.6282C209.059 95.6862 209.046 95.7455 209.036 95.8049L209.034 95.8205L209.028 95.8643L209.024 95.8939L209.022 95.9067L209.014 95.983L209.012 95.9929L209.008 96.0367L209.005 96.0734V96.0791L209.004 96.1229L209.003 96.1625V96.1653L209.001 96.2091V96.2529C209.001 98.1651 211.013 99.9274 214.265 101.229C217.612 102.567 222.247 103.397 227.374 103.397Z" fill="#0B0B0B"/>
<path fill-rule="evenodd" clip-rule="evenodd" d="M194.02 126.183V125.869H194.001L194.004 125.892C193.905 124.85 193.34 123.902 192.433 123.043L192.337 122.96C191.923 122.582 191.439 122.22 190.89 121.878C190.082 121.357 189.219 120.926 188.314 120.592L188.168 120.54C186.68 119.958 184.954 119.472 183.055 119.11C176.537 117.78 167.577 118.191 161.589 120.592C160.69 120.923 159.833 121.35 159.032 121.866L158.968 121.907C158.437 122.24 157.967 122.592 157.564 122.961L157.468 123.044C156.996 123.433 156.61 123.916 156.338 124.463C156.3 124.54 156.263 124.617 156.23 124.696V124.698L156.22 124.722C155.999 125.205 155.883 125.706 155.883 126.219V126.268C155.883 168.698 155.883 128.73 155.883 171.16C155.883 173.632 158.649 175.493 160.751 176.444C164.591 178.157 169.827 179 174.952 179C180.199 179 187.462 178.094 191.745 174.905C192.967 173.984 194.021 172.766 194.021 171.16C194.021 128.73 194.021 168.698 194.021 126.268V126.219V126.185L194.02 126.183ZM193.325 133.696C193.325 134.601 192.865 135.506 191.96 136.342C190.814 137.349 189.493 138.138 188.062 138.667C184.721 140.003 180.087 140.825 174.95 140.825V141.521C180.156 141.521 184.875 140.686 188.314 139.307C189.831 138.753 191.232 137.922 192.447 136.856C192.789 136.528 193.084 136.183 193.325 135.824V133.695V133.696ZM174.952 140.825C169.815 140.825 165.18 139.989 161.84 138.667C160.409 138.142 159.088 137.358 157.943 136.354C157.038 135.491 156.579 134.601 156.579 133.695V135.829C156.821 136.186 157.119 136.53 157.469 136.856C158.68 137.919 160.077 138.75 161.589 139.307C165.027 140.686 169.745 141.535 174.952 141.535V140.839V140.825ZM193.325 141.186C193.325 142.091 192.865 142.997 191.96 143.832C190.814 144.84 189.493 145.628 188.062 146.157C184.721 147.494 180.087 148.315 174.95 148.315V149.012C180.156 149.012 184.875 148.176 188.314 146.797C189.831 146.243 191.232 145.412 192.447 144.346C192.789 144.019 193.084 143.674 193.325 143.315V141.185V141.186ZM174.952 148.315C169.815 148.315 165.18 147.48 161.84 146.157C160.409 145.632 159.088 144.848 157.943 143.845C157.038 142.981 156.579 142.091 156.579 141.185V143.319C156.821 143.677 157.119 144.02 157.469 144.346C158.68 145.409 160.077 146.24 161.589 146.797C165.027 148.176 169.745 149.026 174.952 149.026V148.329V148.315ZM193.325 148.696C193.325 149.601 192.865 150.507 191.96 151.342C190.814 152.35 189.493 153.138 188.062 153.667C184.721 155.004 180.087 155.825 174.95 155.825V156.522C180.156 156.522 184.875 155.686 188.314 154.307C189.831 153.753 191.232 152.922 192.447 151.856C192.789 151.529 193.084 151.184 193.325 150.825V148.695V148.696ZM174.952 155.825C169.815 155.825 165.18 154.99 161.84 153.667C160.409 153.143 159.088 152.358 157.943 151.355C157.038 150.491 156.579 149.601 156.579 148.695V150.829C156.821 151.187 157.119 151.53 157.469 151.856C158.68 152.919 160.077 153.75 161.589 154.307C165.027 155.686 169.745 156.536 174.952 156.536V155.839V155.825ZM193.325 156.167C193.325 157.071 192.865 157.977 191.96 158.813C190.814 159.82 189.493 160.609 188.062 161.137C184.721 162.474 180.087 163.295 174.95 163.295V163.992C180.156 163.992 184.875 163.157 188.314 161.778C189.831 161.224 191.232 160.393 192.447 159.327C192.789 158.999 193.084 158.654 193.325 158.295V156.165V156.167ZM174.952 163.295C169.815 163.295 165.18 162.46 161.84 161.137C160.409 160.613 159.088 159.829 157.943 158.825C157.038 157.962 156.579 157.071 156.579 156.165V158.3C156.821 158.657 157.119 159 157.469 159.327C158.68 160.39 160.077 161.221 161.589 161.778C165.027 163.157 169.745 164.006 174.952 164.006V163.31V163.295ZM193.325 163.687C193.325 164.591 192.865 165.497 191.96 166.332C190.814 167.34 189.493 168.129 188.062 168.657C184.721 169.994 180.087 170.815 174.95 170.815V171.512C180.156 171.512 184.875 170.677 188.314 169.297C189.831 168.743 191.232 167.912 192.447 166.847C192.789 166.519 193.084 166.174 193.325 165.815V163.685V163.687ZM174.952 170.815C169.815 170.815 165.18 169.98 161.84 168.657C160.409 168.133 159.088 167.349 157.943 166.345C157.038 165.482 156.579 164.591 156.579 163.685V165.819C156.821 166.177 157.119 166.52 157.469 166.847C158.68 167.91 160.077 168.741 161.589 169.297C165.027 170.677 169.745 171.526 174.952 171.526V170.829V170.815ZM174.952 133.358C180.08 133.358 184.714 132.529 188.061 131.19C191.313 129.889 193.325 128.128 193.325 126.214L193.323 126.128V126.125C193.309 125.708 193.2 125.297 193.004 124.899L192.983 124.858L192.961 124.815L192.96 124.814L192.939 124.773L192.916 124.732L192.915 124.729L192.872 124.654L192.868 124.648L192.865 124.644L192.843 124.607L192.817 124.566L192.813 124.561L192.791 124.525L192.759 124.477L192.737 124.442L192.709 124.401L192.703 124.394L192.679 124.36L192.649 124.319L192.644 124.311L192.618 124.278L192.587 124.237L192.581 124.229L192.556 124.196L192.524 124.155L192.516 124.147L192.49 124.114L192.457 124.073L192.45 124.065L192.423 124.034L192.388 123.993L192.381 123.984L192.353 123.952C192.218 123.799 192.071 123.649 191.912 123.502L191.908 123.498C191.495 123.142 191.061 122.815 190.609 122.517L190.601 122.512C189.876 122.054 189.023 121.63 188.061 121.244C180.825 118.349 169.078 118.349 161.843 121.244C160.878 121.631 160.021 122.058 159.295 122.516L159.242 122.55C158.809 122.838 158.392 123.155 157.996 123.498L157.992 123.502C157.879 123.607 157.77 123.714 157.67 123.822L157.661 123.83L157.625 123.871L157.596 123.904L157.588 123.912L157.551 123.953L157.523 123.986L157.516 123.994L157.481 124.035L157.454 124.066L157.447 124.075L157.414 124.116L157.387 124.148L157.38 124.157L157.348 124.198L157.322 124.23L157.317 124.239L157.286 124.28L157.26 124.312L157.255 124.321L157.225 124.361L157.201 124.394L157.195 124.402L157.167 124.443L157.144 124.477L157.14 124.484L157.113 124.525L157.091 124.561L157.086 124.566L157.061 124.607L157.038 124.644L157.036 124.648L157.012 124.689L156.989 124.728L156.988 124.73L156.965 124.771L156.944 124.811V124.812L156.921 124.855L156.9 124.896L156.88 124.937L156.822 125.062L156.821 125.067C156.75 125.232 156.694 125.4 156.654 125.568L156.65 125.59C156.637 125.648 156.624 125.707 156.615 125.766L156.612 125.782L156.606 125.826L156.602 125.855L156.6 125.868L156.592 125.944L156.591 125.954L156.586 125.998L156.584 126.035V126.04L156.582 126.084L156.581 126.124V126.127L156.579 126.17V126.214C156.579 128.126 158.591 129.889 161.843 131.19C165.19 132.529 169.825 133.358 174.952 133.358Z" fill="#0B0B0B"/>
</svg>
