<svg width="200" height="160" viewBox="0 0 200 160" fill="none" xmlns="http://www.w3.org/2000/svg">
<g id="&#208;&#152;&#208;&#187;&#208;&#187;&#209;&#142;&#209;&#129;&#209;&#130;&#209;&#128;&#208;&#176;&#209;&#134;&#208;&#184;&#209;&#143;" clip-path="url(#clip0_1043_34461)">
<g id="&#208;&#161;&#208;&#187;&#208;&#190;&#208;&#185;_x0020_1">
<path id="Vector" d="M83.7806 68.8471C82.794 69.5105 81.4482 69.2604 80.775 68.2882C80.1018 67.3159 80.3556 65.9897 81.3422 65.3262L127.151 34.5192C127.979 33.9624 129.06 34.0492 129.785 34.6662L137.201 40.5496L165.394 20.6486L161.325 19.561C160.17 19.2523 159.488 18.0793 159.801 16.9412C160.114 15.803 161.305 15.1306 162.46 15.4392L170.933 17.7041C171.399 17.8287 171.825 18.1056 172.127 18.5218C172.824 19.4803 172.6 20.8141 171.628 21.5005L138.39 44.9625L138.387 44.9593C137.618 45.5028 136.547 45.5003 135.774 44.8874L128.265 38.9309L83.7806 68.8471Z" fill="#1A1B22"/>
<path id="Vector_2" d="M117.375 54.5154C117.375 35.5894 101.807 20.2471 82.6018 20.2471C63.3973 20.2471 47.8281 35.5893 47.8281 54.5154C47.8281 69.1168 57.0992 81.5773 70.1532 86.5131V101.713H95.0505V86.5131C108.105 81.5775 117.375 69.1168 117.375 54.5154H117.375Z" fill="white"/>
<path id="Vector_3" d="M117.204 54.5153C117.204 45.0995 113.331 36.5752 107.07 30.4047C100.808 24.2344 92.1581 20.4179 82.6035 20.4179C73.049 20.4179 64.3989 24.2345 58.1374 30.4048C51.8762 36.5752 48.0033 45.0997 48.0033 54.5153C48.0033 61.6744 50.2426 68.3158 54.0677 73.7983C58.0066 79.4438 63.6274 83.8622 70.2165 86.3534C70.2856 86.3794 70.3279 86.4442 70.328 86.5129L70.3282 101.541H94.8787V86.5129C94.8787 86.4373 94.9285 86.3732 94.9976 86.3506C101.584 83.8588 107.202 79.4419 111.139 73.7984C114.964 68.3158 117.204 61.6744 117.204 54.5152L117.204 54.5153ZM107.315 30.1631C113.639 36.3954 117.55 45.0051 117.55 54.5153C117.55 61.7449 115.288 68.453 111.424 73.9921C107.468 79.6619 101.832 84.106 95.2255 86.6295V101.712C95.2255 101.807 95.1479 101.883 95.0521 101.883H70.1547C70.0591 101.883 69.9813 101.807 69.9813 101.712V86.6295C63.375 84.106 57.739 79.6618 53.7832 73.9918C49.9186 68.4527 47.6562 61.7445 47.6562 54.5153C47.6562 45.0052 51.5679 36.3954 57.892 30.1632C64.2162 23.9309 72.9531 20.0762 82.6033 20.0762C92.2537 20.0762 100.99 23.9308 107.315 30.1631H107.315Z" fill="#1A1B22"/>
<path id="Vector_4" d="M82.6078 130.737C82.5137 130.737 82.4372 130.662 82.4372 130.569V123.319C82.4068 123.32 82.3773 123.32 82.3472 123.32C75.774 123.32 73.8586 116.978 73.8397 116.913C73.8249 116.862 73.8353 116.808 73.8675 116.766C73.8997 116.724 73.9501 116.699 74.0037 116.699H94.7028V109.097H70.3424C70.2482 109.097 70.1719 109.022 70.1719 108.929C70.1719 108.836 70.2482 108.761 70.3424 108.761H94.8734C94.9675 108.761 95.044 108.836 95.044 108.929V116.867C95.044 116.96 94.9675 117.035 94.8734 117.035H74.2402C74.6408 118.14 76.7799 123.135 82.6033 122.98C82.6479 122.982 82.6937 122.996 82.7267 123.028C82.7597 123.06 82.7782 123.103 82.7782 123.148V130.569C82.7782 130.662 82.7019 130.737 82.6077 130.737L82.6078 130.737Z" fill="#1A1B22"/>
<path id="Vector_5" d="M80.6327 92.1441C80.5534 92.1441 80.4824 92.0892 80.4658 92.0096L70.6988 44.8238C70.68 44.7329 70.7395 44.6441 70.8318 44.6255C70.9249 44.6068 71.0142 44.6657 71.0331 44.7564L80.8002 91.9422C80.8189 92.0332 80.7594 92.1219 80.6671 92.1405C80.6556 92.1428 80.6441 92.1441 80.6328 92.1441H80.6327Z" fill="#1A1B22"/>
<path id="Vector_6" d="M84.5771 92.144C84.5656 92.144 84.5542 92.1428 84.5428 92.1405C84.4504 92.122 84.3909 92.0332 84.4097 91.9422L94.177 44.7564C94.1956 44.6653 94.286 44.6069 94.3782 44.6255C94.4705 44.644 94.5301 44.7328 94.5113 44.8238L84.744 92.0096C84.7275 92.0892 84.6564 92.144 84.5772 92.144H84.5771Z" fill="#1A1B22"/>
<path id="Vector_7" d="M81.4743 49.043C81.4676 49.043 81.4608 49.0427 81.454 49.0419C81.3785 49.0329 81.3182 48.9761 81.3058 48.9022L79.8565 40.2001L77.2019 45.4736C77.1731 45.5309 77.1139 45.5669 77.0491 45.5669H74.2331C74.1389 45.5669 74.0625 45.4918 74.0625 45.399C74.0625 45.306 74.1389 45.2309 74.2331 45.2309H76.9433L79.7862 39.5833C79.8192 39.518 79.8915 39.4824 79.9643 39.4917C80.0374 39.5026 80.0953 39.5586 80.1072 39.6308L81.5469 48.2737L84.8445 40.5836C84.872 40.5198 84.9349 40.4837 85.0067 40.481C85.077 40.4831 85.1389 40.5277 85.1622 40.5932L86.8241 45.2309H90.6257C90.7199 45.2309 90.7962 45.306 90.7962 45.399C90.7962 45.4918 90.7199 45.5669 90.6257 45.5669H86.7035C86.6312 45.5669 86.5667 45.522 86.5427 45.4549L84.9872 41.1141L81.631 48.9404C81.6041 49.0032 81.5418 49.043 81.4741 49.043H81.4743Z" fill="#1A1B22"/>
<path id="Vector_8" d="M98.3682 159.412H62.6406L65.4797 134.846H96.0929L98.3682 159.412Z" fill="#1D6BF3"/>
<path id="Vector_9" d="M76.3724 135.445V133.116C76.3724 132.487 76.8909 131.976 77.5284 131.976H86.7822C87.4197 131.976 87.9383 132.487 87.9383 133.116V135.445H89.3652V133.116C89.3652 131.712 88.2064 130.569 86.7821 130.569H77.5283C76.1041 130.569 74.9453 131.712 74.9453 133.116V135.445H76.3721H76.3724Z" fill="#1A1B22"/>
<path id="Vector_10" d="M76.5977 136.488H74.8219C74.1077 136.488 73.5234 135.913 73.5234 135.209V135C73.5234 134.296 74.1077 133.721 74.8219 133.721H76.5977C77.3118 133.721 77.8962 134.296 77.8962 135V135.209C77.8962 135.913 77.3118 136.488 76.5977 136.488Z" fill="white"/>
<path id="Vector_11" d="M76.6043 136.657H74.8285C74.0185 136.657 73.3594 136.007 73.3594 135.209V135C73.3594 134.202 74.0185 133.553 74.8285 133.553H76.6043C77.4143 133.553 78.0733 134.202 78.0733 135V135.209C78.0733 136.007 77.4143 136.657 76.6043 136.657ZM74.8285 133.889C74.2066 133.889 73.7005 134.387 73.7005 135V135.209C73.7005 135.822 74.2066 136.32 74.8285 136.32H76.6043C77.2262 136.32 77.7323 135.822 77.7323 135.209V135C77.7323 134.387 77.2262 133.889 76.6043 133.889H74.8285Z" fill="#797981"/>
<path id="Vector_12" d="M89.4805 136.488H87.7048C86.9905 136.488 86.4062 135.913 86.4062 135.209V135C86.4062 134.296 86.9905 133.721 87.7048 133.721H89.4805C90.1947 133.721 90.779 134.296 90.779 135V135.209C90.779 135.913 90.1947 136.488 89.4805 136.488Z" fill="white"/>
<path id="Vector_13" d="M89.4791 136.657H87.7035C86.8934 136.657 86.2344 136.007 86.2344 135.209V135C86.2344 134.202 86.8934 133.553 87.7035 133.553H89.4791C90.2891 133.553 90.9483 134.202 90.9483 135V135.209C90.9483 136.007 90.2891 136.657 89.4791 136.657ZM87.7035 133.889C87.0815 133.889 86.5755 134.387 86.5755 135V135.209C86.5755 135.822 87.0815 136.32 87.7035 136.32H89.4791C90.1012 136.32 90.6072 135.822 90.6072 135.209V135C90.6072 134.387 90.1012 133.889 89.4791 133.889H87.7035Z" fill="#1A1B22"/>
<path id="Vector_14" d="M69.3065 134.846H99.324L102.759 159.412H67.0312L69.3065 134.846Z" fill="#1D6BF3"/>
<path id="Vector_15" d="M102.758 159.58H67.0299C66.9358 159.58 66.8594 159.505 66.8594 159.412C66.8594 159.319 66.9358 159.244 67.0299 159.244H102.562L99.1741 135.014H69.3052C69.2111 135.014 69.1347 134.939 69.1347 134.846C69.1347 134.753 69.2111 134.678 69.3052 134.678H99.3227C99.408 134.678 99.4802 134.74 99.4917 134.823L102.926 159.389C102.933 159.437 102.919 159.486 102.886 159.523C102.854 159.559 102.807 159.58 102.758 159.58V159.58Z" fill="#1A1B22"/>
<path id="Vector_16" d="M100.666 159.58C100.581 159.58 100.508 159.518 100.497 159.433L98.7514 145.887C98.7395 145.795 98.8056 145.711 98.8991 145.699C98.993 145.69 99.078 145.753 99.0899 145.845L100.835 159.391C100.847 159.483 100.781 159.567 100.687 159.579C100.68 159.58 100.673 159.58 100.666 159.58Z" fill="#1A1B22"/>
<path id="Vector_17" d="M98.3747 159.581H62.6471C62.5529 159.581 62.4766 159.506 62.4766 159.413C62.4766 159.32 62.5529 159.245 62.6471 159.245H98.1879L95.9436 135.015H65.6385L63.5047 153.478C63.494 153.57 63.4088 153.637 63.316 153.626C63.2224 153.615 63.1552 153.532 63.1659 153.44L65.3169 134.828C65.3267 134.743 65.3997 134.679 65.4864 134.679H96.0995C96.1876 134.679 96.2613 134.745 96.2694 134.831L98.5448 159.398C98.5491 159.445 98.5332 159.492 98.5009 159.526C98.4686 159.561 98.4229 159.581 98.3748 159.581L98.3747 159.581Z" fill="#1A1B22"/>
<path id="Vector_18" d="M95.4332 146.53H65.1549C65.0608 146.53 64.9844 146.455 64.9844 146.362C64.9844 146.269 65.0608 146.194 65.1549 146.194H95.2501L94.8699 140.977C94.8632 140.884 94.934 140.804 95.0278 140.797C95.1237 140.789 95.2034 140.861 95.2102 140.953L95.6033 146.35C95.6067 146.397 95.5905 146.443 95.5581 146.477C95.5258 146.511 95.4806 146.53 95.4332 146.53V146.53Z" fill="#1A1B22"/>
<path id="Vector_19" d="M83.449 148.484H77.7109V145.866H83.449V148.484Z" fill="#1A1B22"/>
<g id="Group">
<g id="Group_2">
<path id="Vector_20" d="M114.347 126.287C112.896 126.287 111.719 125.127 111.719 123.697C111.719 122.266 112.896 121.106 114.347 121.106C115.799 121.106 116.976 122.266 116.976 123.697C116.976 125.127 115.799 126.287 114.347 126.287Z" fill="white"/>
<path id="Vector_21" d="M114.346 126.455C112.803 126.455 111.547 125.218 111.547 123.697C111.547 122.176 112.803 120.938 114.346 120.938C115.889 120.938 117.145 122.176 117.145 123.697C117.145 125.218 115.889 126.455 114.346 126.455ZM114.346 121.275C112.991 121.275 111.888 122.361 111.888 123.697C111.888 125.033 112.991 126.119 114.346 126.119C115.701 126.119 116.804 125.033 116.804 123.697C116.804 122.361 115.701 121.275 114.346 121.275Z" fill="#1A1B22"/>
</g>
<g id="Group_3">
<path id="Vector_22" d="M114.347 133.847C112.896 133.847 111.719 132.687 111.719 131.256C111.719 129.826 112.896 128.666 114.347 128.666C115.799 128.666 116.976 129.826 116.976 131.256C116.976 132.687 115.799 133.847 114.347 133.847Z" fill="white"/>
<path id="Vector_23" d="M114.346 134.015C112.803 134.015 111.547 132.778 111.547 131.257C111.547 129.736 112.803 128.498 114.346 128.498C115.889 128.498 117.145 129.736 117.145 131.257C117.145 132.778 115.889 134.015 114.346 134.015ZM114.346 128.834C112.991 128.834 111.888 129.921 111.888 131.257C111.888 132.592 112.991 133.679 114.346 133.679C115.701 133.679 116.804 132.592 116.804 131.257C116.804 129.921 115.701 128.834 114.346 128.834Z" fill="#1A1B22"/>
</g>
<path id="Vector_24" d="M114.347 141.406C112.896 141.406 111.719 140.247 111.719 138.816C111.719 137.385 112.896 136.226 114.347 136.226C115.799 136.226 116.976 137.385 116.976 138.816C116.976 140.247 115.799 141.406 114.347 141.406Z" fill="#1D6BF3"/>
</g>
<path id="Vector_25" d="M156.129 101.882C154.677 101.882 153.5 100.722 153.5 99.2915C153.5 97.8609 154.677 96.7012 156.129 96.7012C157.58 96.7012 158.757 97.8609 158.757 99.2915C158.757 100.722 157.58 101.882 156.129 101.882Z" fill="#1D6BF3"/>
<g id="Group_4">
<path id="Vector_26" d="M177.015 91.8164V159.412H108.641V145.866H122.442V132.311H136.091V118.789H149.693V105.303H163.536V91.8164H177.015Z" fill="#DDE0E4"/>
</g>
<g id="Group_5">
<path id="Vector_27" d="M170.538 91.9848C170.443 91.9848 170.367 91.9096 170.367 91.8167V49.7237C170.367 49.6309 170.443 49.5557 170.538 49.5557C170.632 49.5557 170.708 49.6309 170.708 49.7237V91.8167C170.708 91.9096 170.632 91.9848 170.538 91.9848Z" fill="#1A1B22" stroke="#1A1B22" stroke-width="0.287992" stroke-miterlimit="22.9256"/>
<path id="Vector_28" d="M171.445 49.2849V61.0659C171.445 61.0659 175.117 57.6937 182.099 60.7789C188.789 63.7352 196.01 61.5328 200.009 56.9358C200.009 56.9358 195.047 56.2692 192.301 54.8204C192.301 54.8204 198.505 51.6005 199.324 49.6275C199.324 49.6275 191.316 50.9023 186.594 49.1667C182.875 47.7996 178.184 45.9446 171.445 49.2849H171.445Z" fill="#1D6BF3"/>
</g>
<g id="Group_6">
<g id="Group_7">
<g id="Group_8">
<g id="Group_9">
<path id="Vector_29" d="M38.8047 44.8631L40.8321 39.235C40.8321 39.235 39.9184 36.6686 41.5176 35.4079C43.1167 34.1471 45.7209 34.9576 45.7209 34.9576C45.7209 34.9576 47.7997 38.222 48.2795 40.4507C48.6305 42.0812 47.8682 43.1444 44.533 43.2834L43.8934 44.8631H38.8048H38.8047Z" fill="white"/>
<path id="Vector_30" d="M43.8919 45.0305H38.8033C38.7479 45.0305 38.6959 45.0039 38.664 44.9595C38.6321 44.9148 38.6241 44.8577 38.6426 44.8062L40.6504 39.2328C40.5187 38.8275 39.8517 36.5043 41.4095 35.2761C43.0607 33.9745 45.6609 34.7625 45.7708 34.7971C45.8094 34.8091 45.8423 34.8342 45.8639 34.8679C45.9495 35.0023 47.9643 38.1831 48.4447 40.4153C48.6155 41.2083 48.5184 41.8227 48.1481 42.2932C47.6075 42.9801 46.4622 43.3573 44.6491 43.4459L44.0502 44.9249C44.0243 44.9887 43.9616 45.0307 43.8919 45.0307V45.0305ZM39.0448 44.6944H43.7763L44.373 43.2205C44.398 43.1592 44.457 43.1177 44.5241 43.115C46.2949 43.0411 47.3921 42.7051 47.8785 42.0872C48.1834 41.6995 48.2596 41.1755 48.111 40.4847C47.6762 38.4651 45.8788 35.5336 45.6087 35.1005C45.2188 34.9937 43.0011 34.4516 41.6224 35.5387C40.1376 36.7091 40.9827 39.1545 40.9915 39.1791C41.0042 39.2152 41.0041 39.2548 40.9912 39.2909L39.0446 44.6945L39.0448 44.6944Z" fill="#1A1B22"/>
</g>
<path id="Vector_31" d="M44.6784 43.086C44.6613 43.086 44.6439 43.0835 44.6269 43.0781C44.537 43.0501 44.4874 42.9556 44.5158 42.8672L45.3615 40.2366C45.3899 40.1481 45.4861 40.0988 45.5756 40.1272C45.6654 40.1551 45.7152 40.2497 45.6867 40.338L44.8409 42.9686C44.8179 43.0402 44.7508 43.0861 44.6784 43.0861V43.086Z" fill="#1A1B22"/>
<path id="Vector_32" d="M46.3312 31.1748C44.9873 30.1675 41.7094 30.92 40.0448 31.3485C38.3802 31.7771 36.9778 32.984 36.3439 34.4836C35.71 35.9834 35.8441 37.7401 36.6611 39.1607C36.8932 39.5643 37.2129 39.9674 37.6828 40.0997C37.708 39.7646 37.7332 39.4296 37.7585 39.0946C37.7691 38.9546 37.8036 38.7826 37.9719 38.7635C38.108 38.7481 38.2335 38.8437 38.2625 38.9688C38.6956 40.8392 40.6399 41.0698 42.3546 41.0085C42.7622 40.9939 43.0386 40.6139 42.9034 40.2545C42.8867 40.21 42.8742 40.164 42.8593 40.1189C42.6618 39.9539 42.4937 39.7574 42.3526 39.5435C42.0572 39.0951 41.8666 38.5682 41.8193 38.0353C41.7784 37.5738 41.8661 37.0618 42.2232 36.7313C42.5337 36.4441 42.9893 36.3584 43.3928 36.4813C43.5265 36.522 43.6492 36.5821 43.7609 36.6557C45.1013 38.96 44.7113 35.9469 45.2881 35.7787C45.813 35.6257 46.4692 35.5127 46.4927 34.8747C46.4966 34.7679 48.6684 32.9265 46.3315 31.1747L46.3312 31.1748Z" fill="#1A1B22"/>
<path id="Vector_33" d="M43.5508 40.6303C43.356 40.6303 43.1611 40.5782 42.9948 40.4767C42.9146 40.4278 42.8901 40.3243 42.9397 40.2453C42.9892 40.1663 43.0944 40.1422 43.1746 40.1911C43.3671 40.3089 43.6163 40.3275 43.825 40.2405C44.0336 40.1534 44.1931 39.9636 44.2412 39.7457C44.2613 39.6549 44.3517 39.5977 44.4441 39.617C44.5361 39.6367 44.5944 39.7264 44.5745 39.817C44.5033 40.1402 44.267 40.4208 43.9581 40.55C43.8294 40.6037 43.6901 40.6303 43.5509 40.6303H43.5508Z" fill="#1A1B22"/>
<path id="Vector_34" d="M44.1573 39.1279C44.0986 39.1279 44.0417 39.0982 44.0099 39.0447C43.8359 38.7521 43.5698 38.5092 43.2603 38.3613C43.1755 38.3208 43.1401 38.2203 43.1812 38.1368C43.2223 38.0532 43.3243 38.0183 43.4091 38.059C43.7787 38.2357 44.0966 38.5255 44.3043 38.8751C44.3519 38.9553 44.3246 39.0581 44.2433 39.105C44.2162 39.1207 44.1865 39.128 44.1573 39.128V39.1279Z" fill="#1A1B22"/>
</g>
<g id="Group_10">
<g id="Group_11">
<path id="Vector_35" d="M66.1328 53.177C66.1328 53.177 72.3892 54.276 75.8702 53.8048C75.8702 53.8048 78.0771 51.3008 79.1287 48.1518C80.1803 45.0029 77.4704 44.8436 77.4704 44.8436C77.4704 44.8436 76.9042 43.0498 74.9627 44.0065C74.9627 44.0065 74.6593 43.0897 73.2638 43.4485C71.8684 43.8072 68.8753 45.4016 68.7742 47.0757C68.7742 47.0757 67.6619 47.5141 67.2777 48.6436C67.0864 49.2058 66.1328 53.177 66.1328 53.177Z" fill="white"/>
<path id="Vector_36" d="M66.3451 53.0396C67.3836 53.2124 72.6646 54.0448 75.7833 53.6442C76.0913 53.2831 78.0088 50.9641 78.9657 48.0985C79.9471 45.1594 77.4653 45.0142 77.4583 45.0138C77.3822 45.0079 77.3214 44.9542 77.3039 44.8849C77.2531 44.7397 76.7141 43.3344 75.0413 44.1587C74.956 44.2006 74.8523 44.1665 74.8097 44.0825L74.7989 44.0555C74.7827 44.0103 74.5089 43.3048 73.3087 43.6132C72.5169 43.8167 71.197 44.4286 70.2083 45.2274C69.5131 45.7891 68.9874 46.438 68.9483 47.0858C68.9441 47.1559 68.8973 47.2137 68.8341 47.2361C68.7342 47.2779 67.7833 47.6974 67.443 48.6977C67.2784 49.1816 66.5318 52.2653 66.3451 53.0397V53.0396ZM75.8946 53.9735C72.3857 54.4485 66.1222 53.3482 66.1043 53.3452L66.0948 53.3431C66.0017 53.3218 65.9439 53.2299 65.9654 53.1382C65.968 53.127 66.921 49.1603 67.115 48.5896C67.4543 47.5921 68.3223 47.1018 68.6124 46.962C68.7015 46.2425 69.2609 45.5523 69.9886 44.9645C71.0166 44.1339 72.3937 43.4964 73.2217 43.2837C74.372 42.9879 74.8639 43.4973 75.0419 43.7824C76.7526 43.0319 77.434 44.3016 77.5956 44.6855C78.1187 44.7574 80.2856 45.2374 79.2945 48.2053C78.2325 51.3859 76.0086 53.909 76.0022 53.9163C75.9755 53.9468 75.9378 53.9681 75.8943 53.9738L75.8946 53.9735Z" fill="#1A1B22"/>
<path id="Vector_37" d="M74.3267 46.6908C74.3027 46.6908 74.2782 46.6857 74.2548 46.6749C74.1694 46.6357 74.1325 46.5358 74.1723 46.4517C74.5314 45.6925 74.7512 44.8846 74.8258 44.05C74.8339 43.9575 74.9173 43.888 75.0106 43.8973C75.1045 43.9054 75.1738 43.987 75.1656 44.0796C75.0877 44.9532 74.8575 45.7991 74.4815 46.5939C74.4527 46.6549 74.3911 46.6909 74.3268 46.6909L74.3267 46.6908Z" fill="#1A1B22"/>
<path id="Vector_38" d="M76.7955 47.6567C76.7716 47.6567 76.7471 47.6518 76.724 47.6411C76.6391 47.6024 76.6016 47.5036 76.6401 47.4195L76.6586 47.3792C76.6609 47.3741 76.6635 47.3692 76.6663 47.3644C77.0361 46.5806 77.2622 45.7132 77.3208 44.852C77.327 44.7594 77.4068 44.6922 77.5024 44.6954C77.5963 44.7016 77.6674 44.7818 77.661 44.8743C77.5985 45.7966 77.3524 46.7257 76.9496 47.5609C76.9204 47.6213 76.8593 47.6569 76.7955 47.6569V47.6567Z" fill="#1A1B22"/>
<path id="Vector_39" d="M68.7175 48.1182C68.6473 48.1182 68.5817 48.0754 68.5568 48.0066C68.5252 47.9191 68.5715 47.8229 68.6602 47.7916C69.8052 47.3894 70.7769 47.124 72.0816 47.0442C72.1753 47.0391 72.2566 47.1089 72.2624 47.2016C72.2682 47.2941 72.1968 47.374 72.1028 47.3798C70.8381 47.4571 69.8917 47.7158 68.7748 48.1083C68.756 48.115 68.7365 48.1181 68.7176 48.1181L68.7175 48.1182Z" fill="#1A1B22"/>
<path id="Vector_40" d="M71.0299 46.9433C71.0046 46.9433 70.9789 46.9377 70.9546 46.9261C70.8703 46.885 70.8353 46.7843 70.877 46.7011C71.2777 45.8991 71.7317 45.1129 72.2266 44.3642C72.2781 44.2866 72.384 44.2648 72.4626 44.3152C72.5416 44.3659 72.5638 44.47 72.5123 44.5477C72.0248 45.2851 71.5776 46.0597 71.1829 46.8495C71.1533 46.9089 71.0927 46.9433 71.0297 46.9433H71.0299Z" fill="#1A1B22"/>
<path id="Vector_41" d="M64.7965 52.5604C64.6268 52.5604 64.4577 52.4925 64.3346 52.3591C64.1024 52.1078 64.1209 51.7184 64.3761 51.4898L70.1416 46.3194C70.3966 46.0907 70.7917 46.109 71.0238 46.3604C71.2559 46.6118 71.2374 47.001 70.9822 47.2297L65.2167 52.4001C65.097 52.5075 64.9465 52.5605 64.7965 52.5605V52.5604Z" fill="#1A1B22"/>
</g>
<g id="Group_12">
<path id="Vector_42" d="M28.4743 76.0761L22.2656 74.3416C22.2656 74.3416 24.148 67.8198 25.6328 67.3232L30.9908 67.8718L28.4743 76.076V76.0761Z" fill="white"/>
<path id="Vector_43" d="M28.4731 76.2441C28.4576 76.2441 28.4419 76.2422 28.4264 76.2379L22.2178 74.5034C22.1744 74.4913 22.1375 74.4626 22.1154 74.4237C22.0934 74.3846 22.0878 74.3385 22.1002 74.2958C22.2954 73.6196 24.0511 67.6741 25.5767 67.164C25.5999 67.1562 25.6247 67.154 25.6491 67.156L31.007 67.7046C31.0576 67.71 31.1032 67.7372 31.1314 67.7789C31.1596 67.8206 31.1675 67.8726 31.1527 67.9206L28.6362 76.1246C28.6139 76.1971 28.5464 76.244 28.4731 76.244V76.2441ZM22.4757 74.2261L28.3582 75.8694L30.7665 68.0182L25.6537 67.4945C24.5411 67.9425 23.0309 72.3473 22.4757 74.2261Z" fill="#1A1B22"/>
</g>
<g id="Group_13">
<path id="Vector_44" d="M21.7852 75.3457L25.6339 67.3238L22.2667 63.7597L28.5462 57.7511C28.5462 57.7511 28.7282 61.6074 27.5451 64.9257C26.362 68.2439 27.4996 71.1139 31.1853 71.9209C34.1166 72.5628 47.1793 72.1836 52.4036 72.0016C53.6149 71.9594 54.5733 70.9795 54.5733 69.785V67.9749C54.5733 67.9749 61.3077 75.6427 68.2241 74.7907C75.1404 73.9388 76.096 65.374 75.8685 53.8051C75.8685 53.8051 69.4527 51.7872 66.1311 53.1773L65.221 54.7915L59.4952 47.7659C57.26 45.0234 53.8014 43.5375 50.2414 43.7893C44.5598 44.1909 35.76 44.856 29.22 45.5474C24.0503 46.0939 19.2263 48.3734 15.5621 52.0084C11.9038 55.6374 7.06455 60.6959 7.0625 63.8688C7.05649 72.991 21.7855 75.3457 21.7855 75.3457H21.7852Z" fill="#1D6BF3"/>
<path id="Vector_45" d="M54.6812 67.4849C54.5895 67.4849 54.5139 67.4133 54.5109 67.322C54.4132 64.2918 54.9729 61.2053 56.1295 58.3959C56.1647 58.3099 56.2644 58.2685 56.3516 58.3034C56.4388 58.3382 56.481 58.4364 56.4456 58.5223C55.3067 61.2883 54.7556 64.3277 54.8517 67.3115C54.8548 67.4041 54.7808 67.4817 54.6866 67.4847C54.6848 67.4848 54.6829 67.4848 54.6811 67.4848L54.6812 67.4849Z" fill="#1A1B22"/>
<path id="Vector_46" d="M28.4756 57.7239C28.4754 57.7239 28.475 57.7239 28.4746 57.7239C28.3805 57.7234 28.3046 57.6477 28.305 57.5549C28.3106 56.6129 27.8527 55.6594 27.1099 55.0662C27.0369 55.0075 27.0257 54.9019 27.0848 54.8296C27.1442 54.7577 27.2514 54.7468 27.3249 54.8047C28.1584 55.4707 28.6523 56.4995 28.6462 57.5568C28.6457 57.6492 28.5693 57.7239 28.4756 57.7239Z" fill="#1A1B22"/>
<path id="Vector_47" d="M19.5066 66.3952C19.4613 66.3952 19.4161 66.3776 19.3824 66.3425C19.3177 66.2749 19.321 66.1685 19.3895 66.1048L21.9284 63.746C21.9969 63.6822 22.1048 63.6855 22.1695 63.753C22.2341 63.8204 22.2309 63.9268 22.1624 63.9905L19.6235 66.3494C19.5906 66.3801 19.5484 66.3951 19.5066 66.3951V66.3952Z" fill="#1A1B22"/>
<path id="Vector_48" d="M71.6952 62.3691C71.6467 62.3691 71.5997 62.3484 71.5669 62.3115C70.7294 61.3678 65.1444 54.9653 65.0881 54.9007C65.0267 54.8304 65.0348 54.7242 65.1062 54.6636C65.1777 54.6032 65.2854 54.6111 65.3468 54.6817C65.3996 54.7421 70.3156 60.3779 71.6155 61.8545L71.9252 60.7531C71.9504 60.6635 72.0442 60.6114 72.135 60.6358C72.2259 60.6607 72.279 60.7532 72.254 60.8426L71.8597 62.2456C71.843 62.3052 71.7943 62.3509 71.7331 62.3647C71.7206 62.3676 71.7077 62.3689 71.6952 62.3689V62.3691Z" fill="#1A1B22"/>
</g>
</g>
<g id="Group_14">
<path id="Vector_49" d="M23.6066 159.659H10.6295C7.59086 159.659 4.61713 158.792 2.06744 157.163C0.546259 156.191 -0.160364 154.361 0.321856 152.638C4.00738 139.474 19.5216 85.2415 29.2253 69.7392C29.2253 69.7392 41.8762 70.4347 50.4368 68.8306C51.9947 68.5387 53.4356 69.7212 53.4395 71.2841C53.4757 85.8507 53.6125 145.962 53.4315 153.636L57.7404 157.487C58.5983 158.254 58.048 159.659 56.8899 159.659H35.6547C33.0315 159.659 30.9628 157.459 31.1618 154.882L34.9696 103.352L22.9277 152.897C22.482 154.705 23.0155 156.612 24.3385 157.94C24.9758 158.579 24.516 159.659 23.6065 159.659H23.6066Z" fill="#1A1B22"/>
<path id="Vector_50" d="M56.8903 159.827H35.6551C34.3574 159.827 33.1073 159.29 32.2252 158.352C31.3431 157.414 30.8936 156.144 30.992 154.869L34.6477 105.4L23.094 152.937C22.6592 154.701 23.1701 156.527 24.4605 157.822C24.8045 158.167 24.9002 158.658 24.7103 159.104C24.5204 159.55 24.0978 159.827 23.6069 159.827H10.6297C7.55095 159.827 4.55823 158.955 1.97501 157.304C0.383879 156.288 -0.346423 154.395 0.157793 152.594C4.52278 137.003 19.5085 84.9433 29.0805 69.6511C29.1301 69.5723 29.2351 69.5474 29.3153 69.5965C29.3955 69.645 29.4203 69.7487 29.3708 69.8278C19.5764 85.4747 3.59163 141.593 0.486525 152.683C0.0223339 154.342 0.694942 156.086 2.16047 157.022C4.68852 158.638 7.61718 159.491 10.6299 159.491H23.607C24.0264 159.491 24.2895 159.224 24.3957 158.974C24.5021 158.724 24.5111 158.353 24.2174 158.058C22.8435 156.679 22.2995 154.735 22.7623 152.858L34.8041 103.314C34.8249 103.228 34.9084 103.174 34.9962 103.187C35.0839 103.2 35.1465 103.277 35.14 103.365L31.3323 154.894C31.2396 156.094 31.6456 157.241 32.4754 158.123C33.3051 159.006 34.4344 159.491 35.6551 159.491H56.8903C57.4444 159.491 57.7815 159.134 57.9124 158.8C58.0432 158.467 58.0367 157.979 57.6263 157.612L53.3172 153.761C53.2805 153.728 53.2602 153.682 53.2614 153.633C53.4442 145.884 53.3001 83.6766 53.2693 71.2851C53.2691 71.1922 53.3453 71.1166 53.4394 71.1165C53.4396 71.1165 53.4398 71.1165 53.4399 71.1165C53.5339 71.1165 53.6102 71.1915 53.6103 71.2841C53.6411 83.6365 53.7844 145.486 53.6041 153.564L57.8555 157.363C58.3057 157.766 58.4495 158.363 58.2306 158.922C58.0117 159.48 57.4982 159.827 56.8903 159.827V159.827Z" fill="#1A1B22"/>
<path id="Vector_51" d="M34.8072 102.849C34.8028 102.849 34.7985 102.849 34.7942 102.848C34.7003 102.841 34.6299 102.76 34.637 102.668L35.7693 87.9724C35.8434 87.0108 35.9275 85.9208 35.5124 84.9873C35.1345 84.1375 34.1456 83.4014 33.2068 83.6977C33.117 83.7254 33.0211 83.6767 32.9925 83.5885C32.9639 83.5001 33.0134 83.4055 33.1032 83.3773C34.2223 83.0255 35.3875 83.8692 35.8249 84.8524C36.274 85.8626 36.1866 86.9972 36.1094 87.9979L34.9771 102.693C34.9703 102.782 34.8955 102.849 34.8072 102.849Z" fill="white"/>
<path id="Vector_52" d="M42.3666 154.519C38.8687 154.519 35.3715 154.293 31.8982 153.841C31.805 153.829 31.7392 153.745 31.7515 153.653C31.7639 153.561 31.8502 153.497 31.9428 153.508C38.8514 154.407 45.8575 154.408 52.7669 153.511C52.8592 153.499 52.946 153.564 52.9581 153.656C52.9705 153.748 52.9047 153.832 52.8113 153.844C49.3461 154.294 45.8562 154.519 42.3666 154.519Z" fill="white"/>
<path id="Vector_53" d="M21.9782 155.005C21.9748 155.005 21.9717 155.004 21.9684 155.004C14.9523 154.617 8.00892 153.217 1.3314 150.843C1.24282 150.811 1.19702 150.715 1.22887 150.628C1.26084 150.54 1.35844 150.495 1.44715 150.527C8.09354 152.89 15.0044 154.283 21.9874 154.669C22.0814 154.674 22.1534 154.753 22.1481 154.846C22.1431 154.935 22.0677 155.004 21.978 155.004L21.9782 155.005Z" fill="white"/>
</g>
</g>
</g>
<path id="Vector_54" d="M156.129 94.2384C154.677 94.2384 153.5 93.0786 153.5 91.648C153.5 90.2173 154.677 89.0576 156.129 89.0576C157.58 89.0576 158.757 90.2173 158.757 91.648C158.757 93.0786 157.58 94.2384 156.129 94.2384Z" fill="#1D6BF3"/>
<path id="Vector_55" d="M156.129 85.9669C154.677 85.9669 153.5 84.8071 153.5 83.3765C153.5 81.9459 154.677 80.7861 156.129 80.7861C157.58 80.7861 158.757 81.9459 158.757 83.3765C158.757 84.8071 157.58 85.9669 156.129 85.9669Z" fill="#1D6BF3"/>
<path id="Vector_56" d="M81.2546 143.449H80.1484V149.611H81.2546V143.449Z" fill="#1A1B22"/>
<path id="Vector_57" d="M80.6393 151.835C82.9857 151.835 84.8879 149.96 84.8879 147.648C84.8879 145.335 82.9857 143.461 80.6393 143.461C78.2928 143.461 76.3906 145.335 76.3906 147.648C76.3906 149.96 78.2928 151.835 80.6393 151.835Z" fill="white"/>
<path id="Vector_58" d="M81.9896 145.103H81.0703V150.223H81.9896V145.103Z" fill="#1A1B22"/>
<path id="Vector_59" d="M79.611 150.214H78.6719L79.8107 148.5C79.5708 148.343 79.0314 147.87 78.8516 147.358C78.6719 146.846 78.6917 146.256 79.2113 145.625C79.6271 145.121 80.6899 145.074 81.1695 145.113V145.822C80.4102 145.704 79.4709 146.118 79.611 146.886C79.7229 147.5 80.5367 148.087 80.9298 148.304L79.611 150.214Z" fill="#1A1B22"/>
<path id="Vector_60" d="M168.195 19.7649C168.195 18.5853 169.166 17.6289 170.363 17.6289C171.56 17.6289 172.53 18.5853 172.53 19.7649V27.7746C172.53 28.9542 171.56 29.9106 170.363 29.9106C169.166 29.9106 168.195 28.9542 168.195 27.7746V19.7649Z" fill="#1A1B22"/>
</g>
</g>
<defs>
<clipPath id="clip0_1043_34461">
<rect width="200" height="160" fill="white"/>
</clipPath>
</defs>
</svg>
