<svg width="200" height="160" viewBox="0 0 200 160" fill="none" xmlns="http://www.w3.org/2000/svg">
<g id="&#208;&#152;&#208;&#187;&#208;&#187;&#209;&#142;&#209;&#129;&#209;&#130;&#209;&#128;&#208;&#176;&#209;&#134;&#208;&#184;&#209;&#143; &#208;&#152;&#209;&#130;&#208;&#190;&#208;&#179;">
<g id="&#208;&#161;&#208;&#187;&#208;&#190;&#208;&#185;_x0020_1">
<g id="_1851406131904">
<path id="Vector" d="M69.7083 113.979H0V144.663H69.7083V113.979Z" fill="#DDE0E4"/>
<path id="Vector_2" d="M199.826 106.459H85.4327C85.3404 106.459 85.2656 106.385 85.2656 106.293V70.3402C85.2656 70.2483 85.3404 70.1736 85.4327 70.1736C85.5252 70.1736 85.5999 70.2483 85.5999 70.3402V106.126H199.659V43.2574C199.659 43.1652 199.734 43.0908 199.826 43.0908C199.918 43.0908 199.993 43.1652 199.993 43.2574V106.293C199.993 106.385 199.918 106.459 199.826 106.459Z" fill="#1A1B22"/>
<g id="Group">
<g id="Group_2">
<g id="Group_3">
<path id="Vector_3" d="M175.366 38.3564C171.717 35.9097 169.352 35.4859 168.968 32.1552C168.515 28.22 167.936 27.6283 165.167 25.388C161.872 22.723 158.229 23.5733 157.12 23.7713C153.552 24.408 150.064 26.3643 149.067 26.964C147.418 27.9557 144.863 29.2389 144.599 32.4539C144.421 34.6127 147.208 37.0738 147.179 39.7794C147.143 43.1159 148.537 43.6188 148.67 46.0603C148.886 50.028 150.086 52.0168 148.011 54.6415C144.364 59.2559 143.932 63.4321 144.017 64.0225C144.263 65.7298 160.495 70.3533 170.551 70.3072C172.307 70.299 177.561 69.3075 182.611 68.2647C190.506 66.6343 191.524 55.6741 183.996 52.7953C183.889 52.7545 183.781 52.715 183.672 52.677C177.955 50.6887 182.52 43.1523 175.366 38.3564H175.366Z" fill="#1A1B22"/>
<path id="Vector_4" d="M164.512 28.2547C168.213 28.36 172.546 26.7756 172.863 20.9784C173.181 15.1812 166.448 13.4595 163.699 17.254C160.949 21.0486 161.76 24.4566 162.923 26.5999C164.086 28.7431 164.512 28.2547 164.512 28.2547Z" fill="#1A1B22"/>
</g>
<g id="Group_4">
<g id="Group_5">
<path id="Vector_5" d="M160.23 41.7853L167.337 56.118C167.337 56.118 173.13 55.2797 171.398 57.2636C168.42 60.6746 156.702 67.6873 152.547 67.4203C145.975 66.9981 147.199 59.5881 152.096 57.2872L155.607 56.7517L151.139 44.7784L160.23 41.7852V41.7853Z" fill="white"/>
<path id="Vector_6" d="M155.877 57.9201C155.809 57.9201 155.744 57.8782 155.72 57.8105L150.987 44.8354C150.971 44.7932 150.974 44.7463 150.993 44.7059C151.013 44.6654 151.048 44.6346 151.091 44.6204L160.182 41.627C160.27 41.5971 160.364 41.6456 160.394 41.733C160.423 41.8205 160.375 41.9146 160.287 41.9435L151.36 44.8829L156.034 57.6966C156.066 57.7831 156.021 57.8788 155.934 57.9101C155.915 57.9169 155.896 57.9201 155.877 57.9201Z" fill="#1A1B22"/>
</g>
<g id="Group_6">
<g id="Group_7">
<path id="Vector_7" d="M146.326 37.961C146.103 39.8338 146.211 41.9013 146.82 43.6254C147.43 45.3493 148.714 46.8858 150.428 47.5386C151.914 48.1046 153.615 47.9688 155.084 47.3578C156.552 46.7469 158.483 44.534 159.503 43.3179C161.071 43.8728 162.981 43.2259 163.884 41.8339C164.405 41.0307 164.588 39.9629 164.163 39.1056C163.737 38.2484 162.516 37.7723 161.575 37.9631C161.065 38.0664 160.784 38.3072 160.28 38.5193C159.718 38.7557 158.491 38.5809 157.915 38.3825C156.435 37.8732 150.463 34.4607 148.539 29.9502C147.55 31.8688 146.583 35.8001 146.326 37.961Z" fill="white"/>
<path id="Vector_8" d="M152.445 48.0625C151.718 48.0625 151.011 47.9403 150.365 47.6944C148.71 47.0641 147.325 45.5637 146.659 43.6808C146.087 42.0629 145.908 40.0248 146.156 37.9413C146.429 35.6418 147.413 31.7631 148.386 29.874C148.416 29.8166 148.48 29.7788 148.541 29.7836C148.606 29.7859 148.663 29.8255 148.689 29.8849C150.591 34.3436 156.601 37.7555 157.966 38.2251C158.53 38.4192 159.714 38.5742 160.211 38.3658C160.386 38.2919 160.534 38.214 160.678 38.1386C160.941 38.0007 161.189 37.8704 161.538 37.7996C162.603 37.5849 163.871 38.1484 164.309 39.0319C164.733 39.8877 164.623 40.9959 164.02 41.9245C163.103 43.3377 161.161 44.0199 159.554 43.5122C158.78 44.4333 156.712 46.8594 155.144 47.5117C154.264 47.8781 153.339 48.0626 152.445 48.0626L152.445 48.0625ZM146.488 37.9806C146.246 40.0144 146.419 41.9993 146.974 43.57C147.608 45.3616 148.92 46.7871 150.484 47.3828C151.845 47.901 153.496 47.8361 155.015 47.2041C156.56 46.5613 158.676 44.0396 159.371 43.2111C159.416 43.1576 159.489 43.1375 159.556 43.1609C161.044 43.688 162.882 43.0655 163.74 41.7435C164.271 40.9256 164.376 39.9191 164.009 39.1796C163.639 38.4338 162.515 37.9412 161.605 38.1263C161.303 38.1875 161.085 38.3015 160.834 38.4335C160.684 38.5121 160.53 38.5934 160.341 38.6727C159.733 38.9285 158.486 38.7567 157.857 38.5401C156.442 38.0532 150.641 34.8027 148.529 30.3439C147.646 32.2547 146.742 35.839 146.488 37.9806Z" fill="#1A1B22"/>
</g>
<path id="Vector_9" d="M159.737 42.013C159.713 42.013 159.689 42.008 159.666 41.9973C159.583 41.9581 159.547 41.859 159.586 41.7757C159.987 40.9244 160.934 40.364 161.868 40.4098C161.961 40.4146 162.032 40.4927 162.027 40.5846C162.022 40.6768 161.941 40.7479 161.852 40.7428C161.041 40.7022 160.234 41.1855 159.889 41.9173C159.86 41.9777 159.8 42.0131 159.737 42.0131L159.737 42.013Z" fill="#797981"/>
</g>
</g>
</g>
<g id="Group_8">
<g id="Group_9">
<path id="Vector_10" d="M85.5335 32.7823C86.1183 31.7118 87.228 32.2395 87.228 32.2395C87.2884 30.5204 91.1423 32.4141 91.1423 32.4141C90.3729 30.5229 92.137 31.5222 95.111 32.8512C98.0852 34.18 102.666 33.003 105.4 35.5932C106.665 36.7909 116.378 55.3168 116.378 55.3168L122.705 66.5153C116.344 74.2413 106.685 64.0949 103.396 61.3952C100.515 53.5845 98.0267 44.3056 97.5156 42.7877C96.7291 40.4515 95.9416 39.4788 93.389 38.5729C90.8363 37.6669 86.3475 36.3215 86.2799 35.3245C86.2291 34.5779 87.228 34.7125 87.228 34.7125C87.228 34.7125 84.9487 33.853 85.5335 32.7824V32.7823Z" fill="white"/>
<path id="Vector_11" d="M99.7345 50.4687C99.6617 50.4687 99.5947 50.4209 99.5739 50.3476C99.5567 50.2877 97.8569 44.3373 97.353 42.8404C96.5961 40.5918 95.8742 39.6328 93.3287 38.7296C92.9206 38.5849 92.4629 38.4288 91.982 38.2646C88.5805 37.1045 86.1684 36.2155 86.1086 35.3353C86.0888 35.0415 86.2077 34.8651 86.3111 34.769C86.3928 34.6928 86.4901 34.6406 86.5909 34.6054C86.1233 34.3595 85.5113 33.9554 85.3248 33.4537C85.2298 33.1989 85.2493 32.946 85.3824 32.7024C85.8321 31.8793 86.6046 31.8663 87.0867 32.0099C87.1408 31.7926 87.2642 31.6224 87.4507 31.5114C88.2483 31.0363 90.0551 31.7432 90.8501 32.0964C90.7478 31.728 90.7762 31.4875 90.9338 31.3368C91.3348 30.9536 92.3588 31.4198 94.2164 32.2654C94.5192 32.4032 94.8395 32.5491 95.1752 32.6991C96.3465 33.2225 97.7661 33.348 99.2688 33.4809C101.514 33.6795 103.835 33.8846 105.511 35.4723C105.735 35.684 107.28 38.3317 109.531 42.2422L109.959 42.9835C110.005 43.0633 109.977 43.1653 109.897 43.2112C109.817 43.2567 109.715 43.2295 109.669 43.1498L109.242 42.4082C108.132 40.4804 105.532 35.9659 105.28 35.7133C103.69 34.2064 101.427 34.0063 99.2392 33.8129C97.7077 33.6774 96.2611 33.5495 95.0384 33.003C94.7018 32.8528 94.3809 32.7067 94.0775 32.5683C92.7018 31.9422 91.4022 31.3509 91.1653 31.5775C91.1336 31.6077 91.0492 31.7526 91.2928 32.3513C91.3188 32.4154 91.3024 32.4889 91.2516 32.536C91.2011 32.5831 91.1261 32.5937 91.064 32.5634C90.3431 32.2095 88.3199 31.3813 87.6224 31.7974C87.474 31.8858 87.3982 32.0323 87.3908 32.2452C87.3887 32.3013 87.3587 32.3526 87.3104 32.3818C87.2623 32.4108 87.2028 32.4142 87.1517 32.3897C87.1123 32.3714 86.1764 31.9463 85.676 32.8619C85.5902 33.0192 85.5778 33.1748 85.6383 33.3376C85.8503 33.9076 86.8974 34.4109 87.283 34.5564C87.3623 34.5865 87.4064 34.6709 87.3856 34.753C87.3649 34.835 87.2855 34.8885 87.2016 34.8774C87.0747 34.8608 86.71 34.8531 86.5391 35.0128C86.4651 35.0822 86.4335 35.1803 86.4426 35.3129C86.4917 36.0399 89.861 37.189 92.0904 37.9494C92.5728 38.1139 93.0317 38.2704 93.4408 38.4155C96.1547 39.3787 96.9103 40.4775 97.6701 42.7342C98.1763 44.2383 99.8784 50.1963 99.8956 50.2565C99.9209 50.345 99.8693 50.4371 99.7807 50.4623C99.7654 50.4666 99.75 50.4686 99.7347 50.4686L99.7345 50.4687Z" fill="#1A1B22"/>
<path id="Vector_12" d="M94.5657 34.7122C94.5421 34.7122 94.518 34.7071 94.4952 34.6965C93.2365 34.1111 92.0623 33.3632 91.0048 32.4738C90.9341 32.4145 90.9252 32.3093 90.9846 32.239C91.044 32.1686 91.1495 32.1596 91.2202 32.2189C92.2552 33.0894 93.4046 33.8215 94.6365 34.3945C94.7203 34.4334 94.7564 34.5327 94.7174 34.6159C94.689 34.6765 94.6287 34.7121 94.5657 34.7121V34.7122Z" fill="#1A1B22"/>
<path id="Vector_13" d="M92.7092 35.9489C92.6847 35.9489 92.66 35.9435 92.6364 35.9323C90.9277 35.1069 89.253 34.1663 87.6594 33.1368C87.5092 33.0396 87.3222 32.9187 87.1959 32.7365C87.0406 32.5129 87.0191 32.2385 87.1409 32.0376C87.1884 31.959 87.2909 31.9331 87.3705 31.9814C87.4495 32.0289 87.4748 32.1313 87.4269 32.2101C87.3662 32.3105 87.4072 32.4552 87.4707 32.5471C87.5595 32.675 87.7093 32.7718 87.8412 32.8573C89.4234 33.8793 91.0858 34.813 92.7822 35.6327C92.8652 35.6726 92.8999 35.7724 92.8595 35.8552C92.8309 35.9145 92.7711 35.9491 92.7091 35.9491L92.7092 35.9489Z" fill="#1A1B22"/>
<path id="Vector_14" d="M91.9695 36.8751C91.9523 36.8751 91.9348 36.8725 91.9175 36.8668C90.2321 36.3164 88.5838 35.617 87.0184 34.7876C86.9368 34.7445 86.9059 34.6436 86.9494 34.5622C86.9926 34.481 87.0934 34.4497 87.1756 34.4934C88.7239 35.3139 90.3545 36.0059 92.0217 36.5501C92.1094 36.5788 92.1573 36.6729 92.1285 36.7605C92.1056 36.8306 92.0401 36.8751 91.9696 36.8751H91.9695Z" fill="#1A1B22"/>
</g>
<path id="Vector_15" d="M166.553 108.574C165.668 108.766 164.967 108.154 164.564 107.502C163.701 106.106 163.367 104.135 163.367 104.135L167.253 101.816L167.3 107.936L166.553 108.574Z" fill="#1A1B22"/>
<g id="Group_10">
<path id="Vector_16" d="M104.32 106.291H160.272C160.604 106.291 160.935 106.206 161.209 106.019C161.848 105.581 162.07 104.797 161.817 104.123C161.158 102.745 159.794 102.26 157.778 102.26H100.648L101.39 104.267C101.847 105.484 103.015 106.291 104.32 106.291L104.32 106.291Z" fill="#1A1B22"/>
<path id="Vector_17" d="M104.011 106.292C102.892 106.292 101.886 105.612 101.472 104.577L91.5662 79.817C91.3033 79.1599 91.3846 78.4159 91.7831 77.8306C92.1816 77.2452 92.8455 76.8945 93.5555 76.8945H127.944C130.016 76.8945 131.863 78.195 132.555 80.1404L141.853 106.292H104.011H104.011Z" fill="#1A1B22"/>
<path id="Vector_18" d="M137.3 102.669H103.206C103.114 102.669 103.039 102.595 103.039 102.503C103.039 102.41 103.114 102.336 103.206 102.336H137.3C137.392 102.336 137.467 102.41 137.467 102.503C137.467 102.595 137.392 102.669 137.3 102.669Z" fill="white"/>
</g>
<g id="Group_11">
<path id="Vector_19" d="M139.442 74.2046C139.442 74.2046 120.284 76.5332 110.69 69.2388C104.609 64.6159 97.2734 54.183 97.2734 54.183C97.2734 54.183 103.054 43.5606 110.982 43.2559L116.367 50.8961C118.771 54.2598 122.625 56.298 126.767 56.3972L152.694 56.8777L139.442 74.2046H139.442Z" fill="#1D6BF3"/>
<path id="Vector_20" d="M189.578 96.477C193.196 88.792 192.474 94.4778 192.447 85.99C192.433 81.7808 186.772 65.6198 184.302 62.2046C181.628 58.5086 177.058 56.5884 172.535 55.9102C170.714 55.637 167.32 56.1175 167.32 56.1175C167.32 56.1175 162.581 57.4158 155.59 56.7514C153.338 56.3884 147.511 57.8203 145.733 59.2437C143.955 60.667 142.639 62.5753 141.441 64.5084C139.556 67.5492 139.461 74.2036 139.461 74.2036C139.877 74.4127 142.883 103.028 142.883 103.028C142.883 103.028 164.016 100.047 165.527 101.268C167.821 103.12 188.039 99.7466 189.578 96.4771L189.578 96.477Z" fill="#1D6BF3"/>
<g id="Group_12">
<g id="Group_13">
<path id="Vector_21" d="M166.379 108.6C166.379 108.6 193.598 106.716 193.598 93.6433C193.598 90.6578 193.015 86.9226 192.235 84.126C192.235 84.126 167.268 86.1559 158.742 90.8757C158.544 90.9851 162.474 93.2179 165.991 103.028C167.828 108.152 166.379 108.6 166.379 108.6Z" fill="#1D6BF3"/>
<path id="Vector_22" d="M158.847 90.9604C158.783 90.9604 158.722 90.9232 158.694 90.861C158.657 90.7768 158.695 90.6784 158.78 90.6412C162.98 88.7953 167.753 87.4894 173.801 86.5316C173.894 86.5163 173.978 86.5791 173.993 86.6699C174.007 86.7609 173.945 86.8463 173.854 86.8605C167.835 87.8139 163.087 89.1121 158.914 90.9461C158.892 90.9557 158.87 90.9604 158.847 90.9604Z" fill="#1A1B22"/>
</g>
<path id="Vector_23" d="M173.838 86.862C173.763 86.862 173.695 86.8122 173.676 86.7369L170.451 74.2335C170.428 74.1444 170.481 74.0535 170.571 74.0306C170.661 74.0079 170.751 74.0614 170.774 74.1506L174 86.654C174.023 86.7431 173.969 86.834 173.879 86.8568C173.865 86.8604 173.851 86.862 173.838 86.862H173.838Z" fill="#1A1B22"/>
<path id="Vector_24" d="M166.511 108.586C166.444 108.586 166.382 108.546 166.356 108.481C166.322 108.395 166.364 108.298 166.45 108.264C167.146 107.99 166.612 106.034 166.37 105.37C166.339 105.284 166.384 105.188 166.47 105.157C166.557 105.125 166.653 105.17 166.684 105.256C166.791 105.549 167.696 108.132 166.572 108.574C166.552 108.582 166.531 108.586 166.511 108.586Z" fill="#1A1B22"/>
</g>
<path id="Vector_25" d="M139.612 73.82C139.611 73.82 139.611 73.82 139.61 73.82C139.518 73.8191 139.444 73.7439 139.444 73.6519C139.464 71.4093 138.991 69.1407 138.077 67.0917C138.04 67.0077 138.077 66.9091 138.162 66.8717C138.246 66.8346 138.345 66.8722 138.383 66.9564C139.316 69.0488 139.799 71.365 139.779 73.6548C139.778 73.7462 139.703 73.82 139.612 73.82H139.612Z" fill="#1A1B22"/>
</g>
<g id="Group_14">
<path id="Vector_26" d="M142.097 110.86C142.097 110.86 140.936 112.01 139.957 110.621C139.077 109.372 140.783 100.811 154.673 92.9197C156.09 92.1145 157.974 91.2829 159.308 90.8643C161.781 93.7177 165.935 99.116 167.45 105.182C162.458 105.915 157.045 107.149 154.183 110.407C149.128 116.163 151.282 109.902 151.282 109.902C151.282 109.902 148.147 114.615 147.05 113.907C145.592 112.966 147.967 109.055 149.04 107.438C149.343 107.005 149.525 106.731 149.525 106.731C149.525 106.731 149.329 107.002 149.04 107.438C147.806 109.202 144.538 113.651 143.136 113.366C141.39 113.011 142.097 110.86 142.097 110.86V110.86Z" fill="white"/>
<path id="Vector_27" d="M142.362 110.644C142.336 110.644 142.309 110.638 142.284 110.625C142.203 110.582 142.171 110.481 142.215 110.4C143.185 108.581 144.755 105.978 146.721 103.908C146.784 103.841 146.89 103.838 146.957 103.901C147.024 103.964 147.027 104.07 146.964 104.137C145.023 106.18 143.471 108.755 142.51 110.556C142.48 110.612 142.422 110.644 142.362 110.644Z" fill="#1A1B22"/>
<path id="Vector_28" d="M148.151 108.915C148.121 108.915 148.09 108.907 148.063 108.89C147.985 108.841 147.961 108.738 148.01 108.66C148.531 107.831 149.486 106.461 149.868 105.995C149.927 105.924 150.032 105.913 150.104 105.971C150.175 106.03 150.186 106.134 150.127 106.206C149.752 106.664 148.809 108.016 148.293 108.837C148.262 108.887 148.207 108.915 148.151 108.915L148.151 108.915Z" fill="#1A1B22"/>
<path id="Vector_29" d="M151.237 110.207C151.205 110.207 151.172 110.197 151.143 110.177C151.067 110.125 151.047 110.022 151.1 109.946C151.781 108.956 151.975 108.753 152.615 108.081L152.833 107.852C152.897 107.785 153.003 107.782 153.07 107.845C153.137 107.909 153.139 108.014 153.076 108.081L152.858 108.31C152.215 108.985 152.042 109.166 151.375 110.134C151.343 110.181 151.291 110.207 151.237 110.207Z" fill="#1A1B22"/>
<path id="Vector_30" d="M147.295 114.142C147.173 114.142 147.061 114.112 146.96 114.047C146.699 113.879 146.532 113.623 146.461 113.287C146.289 112.467 146.724 111.236 147.324 110.032C145.885 111.841 144.265 113.545 143.261 113.545C143.206 113.545 143.154 113.54 143.103 113.53C142.611 113.43 142.25 113.188 142.03 112.811C141.736 112.307 141.766 111.675 141.835 111.257C141.61 111.384 141.302 111.5 140.957 111.469C140.528 111.431 140.146 111.178 139.821 110.717C139.269 109.934 139.375 106.846 142.115 102.934C142.168 102.858 142.272 102.84 142.348 102.892C142.424 102.945 142.442 103.049 142.389 103.124C139.567 107.154 139.723 109.999 140.094 110.526C140.36 110.903 140.66 111.108 140.987 111.137C141.528 111.184 141.976 110.746 141.98 110.742C142.035 110.688 142.12 110.678 142.186 110.718C142.251 110.759 142.281 110.839 142.257 110.912C142.253 110.922 141.921 111.963 142.319 112.645C142.489 112.935 142.775 113.123 143.169 113.203C144.06 113.384 146.25 111.137 148.904 107.343C149.189 106.913 149.388 106.637 149.39 106.635C149.443 106.561 149.546 106.543 149.62 106.595C149.695 106.646 149.715 106.748 149.665 106.824C149.665 106.824 149.482 107.099 149.178 107.533C148.361 108.764 146.489 111.788 146.788 113.219C146.84 113.468 146.956 113.648 147.141 113.767C147.802 114.193 149.879 111.71 151.143 109.81C151.189 109.74 151.281 109.716 151.356 109.753C151.432 109.79 151.468 109.877 151.441 109.956C151.11 110.918 150.79 112.44 151.154 112.65C151.285 112.725 151.879 112.778 154.058 110.297C156.979 106.971 161.968 105.839 166.923 105.112C167.014 105.097 167.099 105.161 167.113 105.252C167.126 105.343 167.063 105.428 166.972 105.441C162.08 106.16 157.16 107.272 154.309 110.517C152.042 113.098 151.327 113.135 150.986 112.938C150.513 112.665 150.644 111.646 150.837 110.837C149.924 112.103 148.298 114.142 147.295 114.142Z" fill="#1A1B22"/>
</g>
<g id="Group_15">
<g id="Group_16">
<path id="Vector_31" d="M158.867 56.9585L166.781 52.8828L169.706 55.8255C168.775 59.9565 164.842 62.6151 160.102 62.3774L158.867 56.9585Z" fill="white"/>
<path id="Vector_32" d="M158.87 56.9582L154.128 54.1826L152.696 56.7739C152.234 58.2363 153.177 60.8934 156.455 62.1582L158.87 56.9582Z" fill="white"/>
</g>
<g id="Group_17">
<path id="Vector_33" d="M158.864 57.1256C158.835 57.1256 158.805 57.118 158.779 57.1027L154.184 54.4127L152.836 56.7745C152.79 56.8545 152.688 56.8821 152.608 56.8369C152.528 56.7913 152.5 56.6896 152.545 56.6098L153.978 54.1011C154 54.0622 154.037 54.0338 154.08 54.0225C154.123 54.0105 154.169 54.017 154.208 54.0397L158.869 56.7689L166.701 52.7354C166.766 52.702 166.845 52.7144 166.896 52.7661L169.822 55.7088C169.887 55.7742 169.886 55.8797 169.821 55.9445C169.755 56.0092 169.649 56.0089 169.584 55.9435L166.745 53.0876L158.941 57.1071C158.916 57.1194 158.89 57.1256 158.864 57.1256Z" fill="#1A1B22"/>
</g>
</g>
</g>
</g>
<g id="Group_18">
<path id="Vector_34" d="M124.35 28.3027H69.7112C67.4631 28.3027 65.6406 26.486 65.6406 24.2451V10.5087C65.6406 8.26787 67.463 6.45117 69.7112 6.45117H124.35C126.598 6.45117 128.42 8.26787 128.42 10.5087V24.2451C128.42 26.486 126.598 28.3027 124.35 28.3027Z" fill="#1A1B22"/>
</g>
<g id="Group_19">
<g id="Group_20">
<path id="Vector_35" d="M55.6489 21.3558L33.3168 28.9089L10.9844 21.3558L33.3168 13.8027L55.6489 21.3558Z" fill="#1A1B22"/>
<g id="Group_21">
<g id="Group_22">
<path id="Vector_36" d="M45.0753 24.7324V30.4512H21.5547V24.7953L45.0753 24.7324Z" fill="#1A1B22"/>
<path id="Vector_37" d="M45.0707 30.6184H21.5499C21.4576 30.6184 21.3828 30.5439 21.3828 30.4519V24.7961C21.3828 24.7039 21.4576 24.6295 21.5499 24.6295C21.6423 24.6295 21.7171 24.7039 21.7171 24.7961V30.2852H44.9034V24.733C44.9034 24.6409 44.9782 24.5664 45.0706 24.5664C45.163 24.5664 45.2378 24.6409 45.2378 24.733V30.4517C45.2378 30.5438 45.163 30.6183 45.0706 30.6183L45.0707 30.6184Z" fill="#1A1B22"/>
</g>
<g id="Group_23">
<path id="Vector_38" d="M21.5547 24.7962V23.6139C21.5547 22.3434 22.4428 21.2457 23.6877 20.9724C30.106 19.5639 36.5243 19.5639 42.9424 20.9724C44.1872 21.2457 45.0754 22.3434 45.0754 23.6139V24.7334L21.5547 24.7963V24.7962Z" fill="#1A1B22"/>
<path id="Vector_39" d="M21.5499 24.9625C21.4576 24.9625 21.3828 24.8879 21.3828 24.7959V23.6134C21.3828 22.2765 22.335 21.0973 23.647 20.8093C30.059 19.4021 36.5616 19.4021 42.9736 20.8093C44.2856 21.0973 45.2379 22.2765 45.2379 23.6134V24.7329C45.2379 24.8251 45.1632 24.8995 45.0707 24.8995C44.9783 24.8995 44.9036 24.8251 44.9036 24.7329V23.6134C44.9036 22.4318 44.0618 21.3894 42.9019 21.1347C36.5374 19.738 30.0833 19.738 23.719 21.1347C22.559 21.3894 21.7172 22.4318 21.7172 23.6134V24.7959C21.7172 24.8879 21.6424 24.9625 21.55 24.9625H21.5499Z" fill="white"/>
</g>
<g id="Group_24">
<path id="Vector_40" d="M45.0754 30.4507C45.0754 31.6306 39.8101 32.5872 33.3151 32.5872C26.82 32.5872 21.5547 31.6306 21.5547 30.4507C21.5547 29.271 26.82 28.3145 33.3151 28.3145C39.8101 28.3145 45.0754 29.271 45.0754 30.4507Z" fill="white"/>
<path id="Vector_41" d="M33.3104 32.7544C27.5281 32.7544 21.3828 31.9472 21.3828 30.4514C21.3828 28.9555 27.5281 28.1484 33.3104 28.1484C39.0926 28.1484 45.2379 28.9556 45.2379 30.4514C45.2379 31.9474 39.0926 32.7544 33.3104 32.7544ZM33.3104 28.4816C26.4782 28.4816 21.7172 29.5197 21.7172 30.4514C21.7172 31.383 26.4782 32.4213 33.3104 32.4213C40.1424 32.4213 44.9035 31.3831 44.9035 30.4514C44.9035 29.5198 40.1424 28.4816 33.3104 28.4816Z" fill="#1A1B22"/>
</g>
</g>
<g id="Group_25">
<path id="Vector_42" d="M15.4793 32.2656C15.387 32.2656 15.3125 32.191 15.3125 32.099V24.2076C15.3125 24.1155 15.387 24.041 15.4793 24.041C15.5714 24.041 15.6459 24.1155 15.6459 24.2076V32.099C15.6459 32.191 15.5714 32.2656 15.4793 32.2656Z" fill="#1A1B22"/>
<path id="Vector_43" d="M17.1028 39.6783H13.875L15.4888 33.0898L17.1028 39.6783Z" fill="#1A1B22"/>
</g>
</g>
<g id="Group_26">
<path id="Vector_44" d="M56.0518 51.4985H33.3234C33.2309 51.4985 33.1562 51.4241 33.1562 51.332V38.981C33.1562 38.8889 33.2309 38.8145 33.3234 38.8145C33.4157 38.8145 33.4905 38.8889 33.4905 38.981V51.1655H56.0517C56.144 51.1655 56.2188 51.2399 56.2188 51.332C56.2188 51.4241 56.144 51.4985 56.0517 51.4985H56.0518Z" fill="#1A1B22"/>
<g id="Group_27">
<g id="Group_28">
<path id="Vector_45" d="M86.435 61.6564H74.7921C74.6998 61.6564 74.625 61.5819 74.625 61.4898C74.625 61.3977 74.6998 61.3232 74.7921 61.3232H86.435C86.5275 61.3232 86.6021 61.3977 86.6021 61.4898C86.6021 61.5819 86.5275 61.6564 86.435 61.6564Z" fill="#1A1B22"/>
<path id="Vector_46" d="M71.787 61.6564H58.9406C58.8482 61.6564 58.7734 61.5819 58.7734 61.4898C58.7734 61.3977 58.8482 61.3232 58.9406 61.3232H71.787C71.8794 61.3232 71.9541 61.3977 71.9541 61.4898C71.9541 61.5819 71.8794 61.6564 71.787 61.6564Z" fill="#1A1B22" stroke="#1A1B22" stroke-width="0.240202" stroke-miterlimit="22.9256"/>
<path id="Vector_47" d="M76.8996 65.4171H58.9484C58.856 65.4171 58.7812 65.3427 58.7812 65.2506C58.7812 65.1585 58.856 65.084 58.9484 65.084H76.8996C76.9919 65.084 77.0667 65.1585 77.0667 65.2506C77.0667 65.3427 76.9919 65.4171 76.8996 65.4171Z" fill="#1A1B22"/>
<path id="Vector_48" d="M86.5561 57.8527H58.9406C58.8482 57.8527 58.7734 57.7782 58.7734 57.6861C58.7734 57.5941 58.8482 57.5195 58.9406 57.5195H86.5561C86.6485 57.5195 86.7232 57.5941 86.7232 57.6861C86.7232 57.7782 86.6485 57.8527 86.5561 57.8527Z" fill="#1A1B22"/>
</g>
<g id="Group_29">
<path id="Vector_49" d="M72.0156 51.3516C72.0156 52.6067 73.0363 53.624 74.2954 53.624C75.5545 53.624 76.5752 52.6067 76.5752 51.3516C76.5752 50.0966 75.5545 49.0791 74.2954 49.0791C73.0363 49.0791 72.0156 50.0966 72.0156 51.3516Z" fill="#1D6BF3"/>
<path id="Vector_50" d="M65.375 51.3516C65.375 52.6067 66.3956 53.624 67.6548 53.624C68.9139 53.624 69.9346 52.6067 69.9346 51.3516C69.9346 50.0966 68.9139 49.0791 67.6548 49.0791C66.3956 49.0791 65.375 50.0966 65.375 51.3516Z" fill="#1D6BF3"/>
<g id="Group_30">
<path id="Vector_51" d="M58.7188 51.3516C58.7188 52.6067 59.7395 53.624 60.9986 53.624C62.2578 53.624 63.2784 52.6067 63.2784 51.3516C63.2784 50.0966 62.2578 49.0791 60.9986 49.0791C59.7395 49.0791 58.7188 50.0966 58.7188 51.3516Z" fill="white"/>
<path id="Vector_52" d="M60.9939 53.7912C59.6446 53.7912 58.5469 52.6972 58.5469 51.3522C58.5469 50.0073 59.6445 48.9131 60.9939 48.9131C62.3431 48.9131 63.4409 50.0072 63.4409 51.3522C63.4409 52.697 62.3433 53.7912 60.9939 53.7912ZM60.9939 49.2464C59.829 49.2464 58.8812 50.1912 58.8812 51.3522C58.8812 52.5133 59.829 53.458 60.9939 53.458C62.1587 53.458 63.1065 52.5133 63.1065 51.3522C63.1065 50.1912 62.1587 49.2464 60.9939 49.2464Z" fill="#1D6BF3"/>
</g>
</g>
</g>
</g>
<g id="&#208;&#188;&#208;&#190;&#208;&#185; &#208;&#179;&#209;&#128;&#208;&#181;&#208;&#185;&#208;&#180;">
<path d="M78.6971 16.3635L77.2214 19.5054H76.4016L75.0127 16.3346V19.9872H74V14.9853H75.5335L76.9031 18.0886L78.3499 14.9853H79.8159V19.9872H78.6971V16.3635Z" fill="white"/>
<path d="M83.2437 20.0836C82.89 20.0836 82.5621 20.0258 82.2599 19.9101C81.9577 19.7945 81.6941 19.6274 81.469 19.409C81.2504 19.1841 81.0768 18.911 80.9482 18.5898C80.826 18.2685 80.7649 17.8991 80.7649 17.4815C80.7649 17.0638 80.826 16.6944 80.9482 16.3732C81.0768 16.0519 81.2504 15.782 81.469 15.5636C81.6941 15.3387 81.9577 15.1717 82.2599 15.0624C82.5621 14.9468 82.89 14.889 83.2437 14.889C83.5973 14.889 83.9253 14.9468 84.2275 15.0624C84.5297 15.1717 84.7933 15.3387 85.0183 15.5636C85.2434 15.782 85.4202 16.0519 85.5488 16.3732C85.6774 16.6944 85.7417 17.0638 85.7417 17.4815C85.7417 17.8991 85.6774 18.2685 85.5488 18.5898C85.4202 18.911 85.2434 19.1841 85.0183 19.409C84.7933 19.6274 84.5297 19.7945 84.2275 19.9101C83.9253 20.0258 83.5973 20.0836 83.2437 20.0836ZM83.2437 19.1488C83.6295 19.1488 83.9478 19.0138 84.1985 18.744C84.4557 18.4741 84.5843 18.0533 84.5843 17.4815C84.5843 16.9161 84.4557 16.4984 84.1985 16.2286C83.9478 15.9523 83.6295 15.8142 83.2437 15.8142C82.8643 15.8142 82.546 15.9523 82.2888 16.2286C82.0381 16.4984 81.9127 16.9161 81.9127 17.4815C81.9127 18.0533 82.0381 18.4741 82.2888 18.744C82.546 19.0138 82.8643 19.1488 83.2437 19.1488Z" fill="white"/>
<path d="M88.9347 14.3878C88.6647 14.3878 88.43 14.3525 88.2306 14.2818C88.0377 14.2111 87.8738 14.1147 87.7387 13.9927C87.6101 13.8642 87.5137 13.7164 87.4494 13.5493C87.3851 13.3759 87.3529 13.1928 87.3529 13H88.3367C88.3367 13.2249 88.3882 13.3887 88.491 13.4915C88.6004 13.5879 88.7482 13.6361 88.9347 13.6361C89.1212 13.6361 89.2659 13.5879 89.3687 13.4915C89.4716 13.3887 89.523 13.2249 89.523 13H90.5165C90.5165 13.1928 90.4843 13.3759 90.42 13.5493C90.3557 13.7164 90.2561 13.8642 90.121 13.9927C89.9924 14.1147 89.8285 14.2111 89.6291 14.2818C89.4298 14.3525 89.1983 14.3878 88.9347 14.3878ZM87.787 18.4741L90.1017 14.9853H91.2013V19.9872H90.0921V16.5177L87.7966 19.9872H86.6778V14.9853H87.787V18.4741Z" fill="white"/>
<path d="M94.5802 14.9853H97.8788V15.8913H95.699V19.9872H94.5802V14.9853Z" fill="white"/>
<path d="M101.549 20.0836C101.17 20.0836 100.842 20.0001 100.565 19.833C100.295 19.6596 100.076 19.4283 99.9093 19.1391V21.6931H98.7905V14.9853H99.8128L99.89 15.872C100.057 15.57 100.279 15.3323 100.555 15.1588C100.832 14.9789 101.17 14.889 101.568 14.889C101.864 14.889 102.144 14.9436 102.407 15.0528C102.677 15.1556 102.912 15.3162 103.111 15.5347C103.311 15.7467 103.468 16.0166 103.584 16.3442C103.706 16.6655 103.767 17.0446 103.767 17.4815C103.767 17.9248 103.706 18.3103 103.584 18.638C103.468 18.9592 103.307 19.2291 103.102 19.4475C102.902 19.6596 102.668 19.8202 102.398 19.9294C102.128 20.0322 101.845 20.0836 101.549 20.0836ZM101.279 19.1488C101.678 19.1488 101.999 19.0138 102.243 18.744C102.494 18.4677 102.619 18.0469 102.619 17.4815C102.619 16.9225 102.494 16.5049 102.243 16.2286C101.999 15.9523 101.681 15.8142 101.288 15.8142C101.089 15.8142 100.906 15.8495 100.739 15.9202C100.572 15.9844 100.424 16.0872 100.295 16.2286C100.173 16.3699 100.076 16.5466 100.006 16.7587C99.935 16.9643 99.8996 17.2052 99.8996 17.4815C99.8996 17.7642 99.935 18.0115 100.006 18.2236C100.076 18.4292 100.173 18.6026 100.295 18.744C100.417 18.8789 100.562 18.9817 100.729 19.0524C100.903 19.1166 101.086 19.1488 101.279 19.1488Z" fill="white"/>
<path d="M108.901 19.621C108.83 19.666 108.743 19.7174 108.64 19.7752C108.538 19.8266 108.415 19.8748 108.274 19.9198C108.132 19.9648 107.968 20.0033 107.782 20.0354C107.596 20.0676 107.383 20.0836 107.145 20.0836C106.226 20.0836 105.538 19.8555 105.081 19.3993C104.631 18.9432 104.406 18.3039 104.406 17.4815C104.406 17.0767 104.467 16.7137 104.59 16.3924C104.712 16.0712 104.882 15.8013 105.101 15.5829C105.319 15.358 105.58 15.1877 105.882 15.0721C106.184 14.95 106.515 14.889 106.875 14.889C107.248 14.889 107.583 14.95 107.878 15.0721C108.181 15.1942 108.428 15.3773 108.621 15.6214C108.814 15.8656 108.946 16.1675 109.017 16.5274C109.094 16.8872 109.097 17.308 109.026 17.7899H105.564C105.609 18.2461 105.76 18.5898 106.017 18.8211C106.274 19.046 106.676 19.1584 107.223 19.1584C107.621 19.1584 107.952 19.1102 108.216 19.0138C108.486 18.911 108.714 18.805 108.901 18.6958V19.621ZM106.875 15.7756C106.547 15.7756 106.271 15.8752 106.046 16.0744C105.821 16.2736 105.673 16.5691 105.602 16.961H107.956C107.968 16.5563 107.878 16.2575 107.686 16.0647C107.493 15.872 107.223 15.7756 106.875 15.7756Z" fill="white"/>
<path d="M112.322 14.3878C112.052 14.3878 111.817 14.3525 111.618 14.2818C111.425 14.2111 111.261 14.1147 111.126 13.9927C110.997 13.8642 110.901 13.7164 110.836 13.5493C110.772 13.3759 110.74 13.1928 110.74 13H111.724C111.724 13.2249 111.775 13.3887 111.878 13.4915C111.987 13.5879 112.135 13.6361 112.322 13.6361C112.508 13.6361 112.653 13.5879 112.756 13.4915C112.859 13.3887 112.91 13.2249 112.91 13H113.904C113.904 13.1928 113.871 13.3759 113.807 13.5493C113.743 13.7164 113.643 13.8642 113.508 13.9927C113.379 14.1147 113.216 14.2111 113.016 14.2818C112.817 14.3525 112.585 14.3878 112.322 14.3878ZM111.174 18.4741L113.489 14.9853H114.588V19.9872H113.479V16.5177L111.184 19.9872H110.065V14.9853H111.174V18.4741Z" fill="white"/>
<path d="M115.713 19.0813C115.861 18.9528 115.977 18.7761 116.06 18.5512C116.15 18.3264 116.221 18.0469 116.272 17.7128C116.324 17.3722 116.362 16.9771 116.388 16.5274C116.414 16.0776 116.436 15.5636 116.456 14.9853H120.121V19.0813H120.873V21.4136H119.899L119.812 19.9872H116.359L116.272 21.4136H115.289V19.0813H115.713ZM119.002 19.0813V15.8913H117.42C117.388 16.6816 117.333 17.3369 117.256 17.8573C117.185 18.3713 117.067 18.7793 116.899 19.0813H119.002Z" fill="white"/>
</g>
</g>
<g id="Group_31">
<g id="Group_32">
<g id="Group_33">
<path id="Vector_53" d="M35.6329 75.6111C35.6329 75.6111 43.394 75.2678 49.7001 78.1858C58.2519 82.1433 72.0134 94.4928 68.6179 101.53C64.3389 110.399 44.0408 101.702 44.0408 101.702L27.225 102.045C27.225 102.045 5.5236 110.744 1.03108 103.59C-3.49625 96.3809 10.7583 83.3951 19.4638 78.8726C27.0634 74.9246 35.6329 75.6111 35.6329 75.6111Z" fill="#1D6BF3"/>
<path id="Vector_54" d="M62.1459 93.7586C60.4572 93.7586 47.5168 92.152 46.9667 92.0837C46.8751 92.0724 46.8101 91.9891 46.8216 91.8977C46.833 91.8064 46.9163 91.7428 47.0082 91.7531C47.1427 91.7698 60.4779 93.4253 62.1461 93.4253C62.5293 93.4253 62.7824 93.3274 62.8987 93.1341C63.1183 92.7692 62.8488 92.0968 62.7263 91.8682C62.6828 91.7872 62.7135 91.6862 62.7948 91.6428C62.8758 91.5994 62.9772 91.6299 63.0209 91.7108C63.0426 91.751 63.547 92.7028 63.1858 93.3046C63.0051 93.6058 62.6553 93.7585 62.1461 93.7585L62.1459 93.7586Z" fill="#1A1B22"/>
<path id="Vector_55" d="M7.66199 93.7585C7.15278 93.7585 6.80284 93.6058 6.62213 93.3046C6.26082 92.7028 6.76534 91.751 6.78714 91.7108C6.83062 91.6299 6.93199 91.5994 7.0132 91.6428C7.09442 91.6861 7.12513 91.7871 7.08176 91.8682C6.9593 92.0968 6.68975 92.769 6.90937 93.1341C7.02563 93.3274 7.27877 93.4253 7.66199 93.4253C9.33002 93.4253 22.6653 91.7698 22.7998 91.7531C22.891 91.7429 22.9748 91.8064 22.9864 91.8977C22.9979 91.9891 22.933 92.0724 22.8413 92.0837C22.2912 92.152 9.35088 93.7586 7.66211 93.7586L7.66199 93.7585Z" fill="#1A1B22"/>
</g>
<g id="Group_34">
<path id="Vector_56" d="M49.4365 116.352H20.2734V99.9785H49.4365V116.352Z" fill="#1A1B22"/>
<g id="Group_35">
<path id="Vector_57" d="M49.0339 101.259H21.1188C20.5948 101.259 20.1402 100.898 20.0226 100.389L16.3182 84.3385C16.1559 83.6356 16.6912 82.9648 17.4144 82.9648H52.7383C53.4614 82.9648 53.9968 83.6356 53.8344 84.3385L50.1301 100.389C50.0125 100.898 49.5579 101.259 49.0339 101.259Z" fill="white"/>
<path id="Vector_58" d="M35.9983 90.6019C35.9983 91.284 35.5876 91.8368 35.0811 91.8368C34.5747 91.8368 34.1641 91.2839 34.1641 90.6019C34.1641 89.92 34.5747 89.3672 35.0811 89.3672C35.5876 89.3672 35.9983 89.9201 35.9983 90.6019Z" fill="#1A1B22"/>
</g>
<g id="Group_36">
<path id="Vector_59" d="M37.1434 116.534L55.1222 142.241L61.4429 145.711C63.3948 146.782 62.8291 149.783 60.6273 150.038L44.9575 151.856C40.6584 152.355 36.4388 150.401 33.9739 146.77L12.3908 114.981C8.24169 108.87 11.9819 100.449 19.2186 99.6099C21.6686 99.3257 24.0893 100.013 26.0167 101.462L37.1432 116.534H37.1434Z" fill="#1A1B22"/>
<g id="Group_37">
<path id="Vector_60" d="M26.0156 101.461C26.8223 102.067 27.5423 102.807 28.142 103.664L37.1422 116.533L26.0156 101.461Z" fill="#797981"/>
<path id="Vector_61" d="M37.1378 116.7C37.085 116.7 37.0331 116.676 37.0006 116.629L28.0003 103.76C27.4186 102.928 26.7153 102.2 25.9103 101.595C25.8366 101.539 25.8219 101.435 25.8773 101.361C25.9333 101.288 26.0379 101.273 26.1116 101.328C26.9446 101.955 27.6724 102.709 28.2744 103.57L37.2747 116.438C37.3273 116.514 37.3089 116.618 37.2331 116.67C37.2038 116.691 37.1706 116.7 37.1376 116.7H37.1378Z" fill="white"/>
</g>
<path id="Vector_62" d="M37.972 148.806C37.9171 148.806 37.8637 148.78 37.8316 148.73C37.7813 148.653 37.8036 148.55 37.8809 148.5C47.3024 142.417 55.038 142.073 55.1152 142.07C55.2046 142.067 55.2847 142.139 55.2881 142.231C55.2915 142.323 55.2195 142.4 55.1272 142.403C55.0509 142.406 47.4012 142.75 38.0627 148.779C38.0347 148.798 38.0032 148.806 37.9719 148.806L37.972 148.806Z" fill="white"/>
</g>
<g id="Group_38">
<path id="Vector_63" d="M47.4766 131.303L58.6027 114.622C62.702 108.475 58.8936 100.087 51.6503 99.309C49.0658 99.0314 46.5229 99.8329 44.5625 101.462L47.4766 131.303V131.303Z" fill="#1A1B22"/>
<g id="Group_39">
<path id="Vector_64" d="M44.5692 101.461C43.8908 102.025 43.2823 102.688 42.7658 103.439L16.1012 142.242L9.80897 145.764C7.86577 146.852 8.45573 149.848 10.6597 150.085L26.3435 151.77C30.6464 152.232 34.8501 150.243 37.2854 146.591L47.4834 131.301L44.5692 101.461Z" fill="#1A1B22"/>
<path id="Vector_65" d="M27.5772 152.003C27.1607 152.003 26.7421 151.981 26.3221 151.936L10.6382 150.252C9.5694 150.137 8.73639 149.37 8.51595 148.299C8.29152 147.208 8.76557 146.156 9.7234 145.62L15.9818 142.116L42.6243 103.345C43.1426 102.592 43.7597 101.915 44.4586 101.334C44.5297 101.274 44.635 101.284 44.694 101.355C44.7532 101.426 44.7436 101.531 44.6727 101.59C43.9973 102.151 43.401 102.805 42.9002 103.534L16.2356 142.337C16.2211 142.357 16.202 142.375 16.1795 142.388L9.88712 145.91C9.05867 146.374 8.64896 147.286 8.8435 148.232C9.03418 149.158 9.75281 149.821 10.6742 149.92L26.3579 151.605C30.6032 152.06 34.738 150.105 37.1426 146.5L47.3407 131.21C47.3918 131.133 47.4955 131.112 47.5724 131.163C47.6493 131.214 47.6703 131.318 47.6191 131.394L37.4211 146.684C35.1848 150.037 31.4947 152.003 27.5771 152.003H27.5772Z" fill="white"/>
</g>
<path id="Vector_66" d="M33.2928 148.807C33.2617 148.807 33.2302 148.799 33.202 148.78C23.8573 142.747 16.2137 142.407 16.1376 142.404C16.0454 142.401 15.9732 142.324 15.9767 142.232C15.98 142.14 16.0613 142.067 16.1497 142.071C16.2267 142.074 23.9623 142.418 33.3839 148.501C33.4612 148.551 33.4834 148.654 33.4331 148.731C33.4012 148.781 33.3476 148.807 33.2927 148.807L33.2928 148.807Z" fill="white"/>
</g>
</g>
<g id="Group_40">
<path id="Vector_67" d="M40.692 70.7096C40.692 70.7096 43.4739 62.7364 40.0196 63.1481C40.0196 63.1481 38.109 59.4893 34.7617 62.2334C34.7617 62.2334 32.6066 60.4497 30.8183 63.6054C30.8183 63.6054 28.8619 63.1939 28.6173 66.1209C28.3727 69.0479 30.1151 71.6244 30.1151 71.6244L40.692 70.7096Z" fill="#1A1B22"/>
<path id="Vector_68" d="M35.5478 80.3165C33.7731 80.3165 32.3799 78.7995 32.5353 77.0363L32.8093 71.2578H38.2864L38.5604 77.0363C38.7156 78.7995 37.3224 80.3165 35.5478 80.3165Z" fill="white"/>
<g id="Group_41">
<g id="Group_42">
<path id="Vector_69" d="M40.3062 70.0811C38.4838 70.127 38.8882 67.3711 38.8882 67.3711C37.1686 69.5205 35.1053 67.7371 35.1053 67.7371C32.0961 70.5725 30.511 67.2111 30.7205 68.1027C31.0346 69.4398 30.4701 70.1737 30.2468 70.4022C29.476 69.9127 28.2292 69.3979 28.3984 71.3383C28.5874 73.5057 29.9665 72.6825 30.5672 72.2125C31.1642 74.1534 32.4038 76.2737 35.3125 76.1827C38.1226 76.0948 39.5331 74.0489 40.0858 72.0542C40.7428 72.5178 41.9165 73.0449 42.0899 71.0575C42.2545 69.1707 41.0798 69.6056 40.306 70.0811H40.3062Z" fill="white"/>
<path id="Vector_70" d="M35.1284 76.3516C32.8918 76.3519 31.3275 75.052 30.4745 72.4851C30.0245 72.7998 29.4503 73.0661 28.968 72.8577C28.5478 72.676 28.2986 72.1696 28.2273 71.3526C28.1603 70.5837 28.2983 70.1069 28.6489 69.8949C29.0043 69.6803 29.5293 69.7783 30.211 70.1867C30.4538 69.8894 30.8108 69.236 30.5532 68.1404C30.5307 68.0445 30.4929 67.8844 30.624 67.8063C30.7557 67.7278 30.8646 67.8237 31.0298 67.9688C31.5368 68.4143 32.8837 69.5964 34.9859 67.6155C35.0478 67.5568 35.145 67.5546 35.21 67.6104C35.2186 67.6179 36.0866 68.3516 37.115 68.2558C37.7221 68.1994 38.273 67.8666 38.7528 67.2669C38.7998 67.2079 38.8805 67.1879 38.9499 67.2179C39.0192 67.2477 39.0598 67.3203 39.0488 67.3949C39.0467 67.4097 38.8383 68.8953 39.4472 69.5786C39.6478 69.8041 39.912 69.9142 40.2536 69.9147C40.9455 69.4977 41.4774 69.3971 41.8348 69.6169C42.1821 69.8305 42.3187 70.3064 42.2519 71.0718C42.1817 71.876 41.9389 72.3794 41.5305 72.5681C41.1739 72.733 40.7096 72.6461 40.1778 72.3177C39.7627 73.6517 38.5407 76.2478 35.3131 76.3487C35.2511 76.3507 35.1894 76.3516 35.1282 76.3516H35.1284ZM30.5627 72.0455C30.5794 72.0455 30.5963 72.048 30.6126 72.0531C30.6652 72.0695 30.7064 72.1107 30.7225 72.1633C31.5418 74.8262 33.0376 76.0812 35.3029 76.0158C38.3815 75.9195 39.5174 73.4643 39.9205 72.0093C39.935 71.9571 39.9741 71.915 40.0254 71.8969C40.0766 71.8785 40.1335 71.8863 40.1782 71.9177C40.4686 72.1228 41.0115 72.4401 41.3902 72.2658C41.6781 72.1329 41.8609 71.7099 41.9191 71.0428C41.9724 70.4325 41.8826 70.0377 41.6596 69.9005C41.4191 69.7527 40.9679 69.8672 40.3894 70.2225C40.3643 70.2379 40.3355 70.2465 40.306 70.2472C39.8481 70.2562 39.4717 70.1082 39.197 69.7993C38.7251 69.2691 38.6643 68.3931 38.6798 67.8436C38.2199 68.2866 37.705 68.5362 37.1434 68.5878C36.1947 68.6738 35.4017 68.171 35.1098 67.9553C33.0034 69.8617 31.5347 68.8363 30.9311 68.3247C31.1352 69.5623 30.6104 70.2642 30.3624 70.5181C30.307 70.5745 30.2193 70.5843 30.1528 70.5425C29.5457 70.157 29.0734 70.0283 28.8226 70.1799C28.5979 70.3156 28.5072 70.7113 28.5608 71.3236C28.6196 71.9998 28.8068 72.4246 29.1014 72.5519C29.5402 72.7415 30.1977 72.2859 30.4598 72.0811C30.4894 72.0577 30.5261 72.0455 30.5629 72.0455H30.5627Z" fill="#1A1B22"/>
</g>
<path id="Vector_71" d="M40.6594 71.4557C40.6195 71.4557 40.5797 71.4415 40.5479 71.4131C40.479 71.3516 40.4733 71.2464 40.5348 71.1778L41.3297 70.2936C41.3917 70.2251 41.4974 70.2195 41.5658 70.2806C41.6347 70.3421 41.6404 70.4473 41.5788 70.5159L40.7839 71.4002C40.7508 71.4369 40.7052 71.4557 40.6594 71.4557Z" fill="#1A1B22"/>
<path id="Vector_72" d="M29.9072 71.737C29.8613 71.737 29.8157 71.7183 29.7826 71.6815L28.9879 70.7972C28.9264 70.7288 28.9322 70.6234 29.0009 70.562C29.0693 70.5008 29.1752 70.5064 29.237 70.5749L30.0317 71.4592C30.0933 71.5277 30.0874 71.633 30.0187 71.6945C29.9869 71.7229 29.947 71.737 29.9072 71.737Z" fill="#1A1B22"/>
</g>
</g>
</g>
</g>
<g id="Group_43">
<path id="Vector_73" d="M35.0565 96.4041C37.3832 96.4041 39.2693 94.5241 39.2693 92.205C39.2693 89.8859 37.3832 88.0059 35.0565 88.0059C32.7299 88.0059 30.8438 89.8859 30.8438 92.205C30.8438 94.5241 32.7299 96.4041 35.0565 96.4041Z" fill="#1A1B22"/>
<path id="Vector_74" d="M36.388 89.6523H35.4766V94.7874H36.388V89.6523Z" fill="white"/>
<path id="Vector_75" d="M34.0327 94.7783H33.1016L34.2308 93.0601C33.9931 92.9021 33.4581 92.4282 33.2797 91.9146C33.1016 91.4011 33.1211 90.8088 33.6364 90.1767C34.0486 89.671 35.1025 89.6236 35.5781 89.6632V90.3742C34.8253 90.2555 33.8939 90.6705 34.0327 91.4405C34.1437 92.0567 34.9507 92.6454 35.3404 92.8626L34.0327 94.7783Z" fill="white"/>
</g>
</g>
</g>
</g>
</svg>
