<svg width="389" height="180" viewBox="0 0 389 180" fill="none" xmlns="http://www.w3.org/2000/svg">
<path d="M143.132 57.3601C155.477 57.3601 165.485 46.2806 165.485 32.6002C165.485 18.933 155.464 7.85352 143.132 7.85352C130.773 7.85352 120.766 18.933 120.766 32.6002C120.766 46.2664 130.786 57.3601 143.132 57.3601ZM250.728 104.24L258.478 107.627C260.976 108.721 262.713 109.987 263.689 111.427C264.704 112.881 264.837 114.627 264.089 116.707C263.84 117.46 263.455 118.161 262.953 118.773C262.545 119.275 262.036 119.683 261.457 119.974C260.89 120.245 260.271 120.396 259.64 120.414C258.943 120.456 258.242 120.406 257.555 120.268C259.016 121.017 260.217 122.188 261.003 123.628C261.617 124.854 261.617 126.308 261.016 128.014C260.667 129.096 260.052 130.073 259.226 130.855C258.513 131.515 257.637 131.971 256.687 132.175C255.752 132.362 254.71 132.349 253.574 132.162C252.356 131.917 251.167 131.537 250.033 131.029L242.364 127.668L250.727 104.241L250.728 104.24ZM252.72 108.36L250.154 115.56L254.67 117.533C255.392 117.84 256.072 118.067 256.727 118.16C257.395 118.253 257.983 118.227 258.531 118.08C259.074 117.922 259.569 117.633 259.974 117.24C260.415 116.826 260.763 116.266 261.016 115.546C261.444 114.346 261.323 113.36 260.669 112.6C259.779 111.645 258.682 110.907 257.463 110.44L252.72 108.36ZM249.165 118.333L246.359 126.2L251.036 128.253C251.766 128.578 252.527 128.834 253.307 129.013C254.002 129.174 254.644 129.2 255.218 129.107C255.796 129.024 256.336 128.767 256.768 128.373C257.222 128 257.57 127.44 257.837 126.693C258.372 125.226 258.265 123.986 257.543 123.013C256.835 122.026 255.486 121.093 253.495 120.213L249.165 118.333ZM140.609 17.507H145.472L154.41 42.3869H150.936L148.357 35.2804H137.334L134.796 42.3869H131.737L140.609 17.507ZM147.315 32.3207L142.866 19.9341L138.417 32.3339H147.315V32.3207ZM271.489 129.745C277.982 113.026 275.27 95.6662 265.41 90.9594C255.563 86.2658 242.296 96.026 235.802 112.732C229.295 129.451 232.021 146.812 241.881 151.518C251.728 156.212 264.995 146.451 271.489 129.745Z" fill="#0B0B0B" stroke="#0B0B0B" stroke-width="0.450511" stroke-miterlimit="22.9256" stroke-linecap="round" stroke-linejoin="round"/>
<path d="M145.281 7.92105C144.559 5.28152 141.393 -1.67861 127.284 2.76092C108.753 8.52071 111.505 32.5478 112.814 36.907" stroke="#0B0B0B" stroke-width="0.450511" stroke-miterlimit="22.9256" stroke-linecap="round" stroke-linejoin="round"/>
<path d="M126.082 3.09445C126.082 3.09445 119.055 -3.91853 109.849 7.72098C100.937 18.9743 106.014 35.654 106.014 35.654" stroke="#0B0B0B" stroke-width="0.450511" stroke-miterlimit="22.9256" stroke-linecap="round" stroke-linejoin="round"/>
<path d="M112.644 4.48161C112.644 4.48161 108.168 1.82887 103.385 8.975C98.602 16.1221 99.4972 30.1623 101.581 36.2423" stroke="#0B0B0B" stroke-width="0.450511" stroke-miterlimit="22.9256" stroke-linecap="round" stroke-linejoin="round"/>
<path d="M101.408 12.0273C101.408 12.0273 92.8567 13.6139 93.9923 28.1074C95.1279 42.6009 102.784 52.1335 102.183 55.0403C101.581 57.9471 91 74.7732 91 74.7732M162.254 45.5067C162.254 45.5067 166.984 51.733 159.742 59.7471C156.627 63.1245 152.851 65.8301 148.649 67.6962C144.446 69.5633 139.904 70.5512 135.305 70.6L104.575 108.253M268.78 93.2926C270.023 92.9592 278.867 90.9061 282.996 102.493C287.405 114.999 275.408 148.559 274.392 150.599" stroke="#0B0B0B" stroke-width="0.450511" stroke-miterlimit="22.9256" stroke-linecap="round" stroke-linejoin="round"/>
<path d="M281.913 99.9063C281.913 99.9063 293.51 99.8392 292.321 116.919C291.185 133.065 281.258 154.306 281.258 154.306" stroke="#0B0B0B" stroke-width="0.450511" stroke-miterlimit="22.9256" stroke-linecap="round" stroke-linejoin="round"/>
<path d="M292.564 115.267C292.564 115.267 299.913 117.187 295.785 132.4C291.67 147.626 284.789 159.013 284.789 159.013" stroke="#0B0B0B" stroke-width="0.450511" stroke-miterlimit="22.9256" stroke-linecap="round" stroke-linejoin="round"/>
<path d="M104.811 140.346C107.39 140.346 109.474 138.039 109.474 135.185C109.474 132.333 107.39 130.025 104.798 130.025C102.232 130.025 100.148 132.332 100.148 135.185C100.148 138.038 102.233 140.346 104.811 140.346ZM204.563 92.6268C207.142 92.6268 209.239 90.3207 209.239 87.4667C209.239 84.6138 207.141 82.3066 204.563 82.3066C201.997 82.3066 199.9 84.6138 199.9 87.4667C199.9 90.3197 201.998 92.6268 204.576 92.6268H204.563ZM219.928 31.0803C222.506 31.0803 224.603 28.7742 224.603 25.9202C224.603 23.0672 222.505 20.76 219.928 20.76C217.362 20.76 215.265 23.0662 215.265 25.9202C215.265 28.7731 217.363 31.0803 219.941 31.0803H219.928ZM178.095 165.826C180.66 165.826 182.757 163.52 182.757 160.666C182.757 157.813 180.659 155.506 178.08 155.506C175.515 155.506 173.431 157.812 173.431 160.666C173.431 163.519 175.515 165.826 178.094 165.826H178.095ZM274.146 18.5078C276.725 18.5078 278.809 16.2016 278.809 13.3476C278.809 10.4947 276.724 8.1875 274.132 8.1875C271.566 8.1875 269.483 10.4947 269.483 13.3476C269.483 16.2006 271.566 18.5078 274.145 18.5078H274.146Z" fill="#0B0B0B" stroke="#0B0B0B" stroke-width="0.450511" stroke-miterlimit="22.9256" stroke-linecap="round" stroke-linejoin="round"/>
<path d="M164.351 15.334C164.351 15.334 187.652 -8.62599 215.817 18.9076M215.51 32.0808L108.463 128.174M111.149 133.334C111.149 133.334 137.51 111.294 144.324 119.241C153.65 130.161 108.998 172.774 108.998 172.774C108.998 172.774 174.452 105.468 192.503 124.401C201.641 132.534 182.401 153.855 182.401 153.855" stroke="#0B0B0B" stroke-width="0.450511" stroke-miterlimit="22.9256" stroke-linecap="round" stroke-linejoin="round"/>
<path d="M184.551 165.427C184.551 165.427 222.857 177.601 213.116 129.094L206.302 95.3474M209.588 81.3743L268.055 18.1081M280.414 17.8418C280.414 17.8418 301.458 36.7077 279.639 53.9749C261.242 68.5477 264.1 86.6147 264.1 86.6147M211.686 19.4415L216.094 19.1082L215.627 14.6016M108.581 123.401L108.395 128.307L112.522 128.174M181.798 149.347L182.093 154.241L186.235 153.654" stroke="#0B0B0B" stroke-width="0.450511" stroke-miterlimit="22.9256" stroke-linecap="round" stroke-linejoin="round"/>
<path d="M209.831 97.9862L206.251 95.1464L204.033 98.9863M268.767 22.4797L268.286 17.5869L264.224 18.3868M260.817 83.8931L264.224 87.0002L266.63 83.2935M234.39 116.387C233.187 116.387 227.095 117.053 225.786 127.106C224.665 137.005 227.053 146.982 232.533 155.306L228.298 178.999M296.666 128.307C296.666 128.307 301.396 136.84 293.567 152.186C287.648 163.706 282.797 170.587 279.871 178.666" stroke="#0B0B0B" stroke-width="0.450511" stroke-miterlimit="22.9256" stroke-linecap="round" stroke-linejoin="round"/>
</svg>
